<svg id="googleplaydown_Image" data-name="googleplaydown Image" xmlns="http://www.w3.org/2000/svg" viewBox="0 0 935.35 322.01"><title>appledown</title><rect x="2.31" width="930.72" height="318.92" rx="66.05" fill="#0f2c42"/><rect x="4.62" y="3.09" width="930.72" height="318.92" rx="66.05" fill="#0f2c42"/><path d="M44.34,307.75c-6.4-9.53-10.5-19.93-10.51-31.49q-.16-98,0-196c0-16,6.64-29.49,17-41.32C60.1,28.41,72,22.12,85.2,18a15.16,15.16,0,0,1,4.43-.38q410.43,0,820.85,0c4.11,0,7.68,1.37,11.23,3.09a10.21,10.21,0,0,0,1.4,5.72c5.55,10.36,7.38,21.78,7.47,33.16q.55,71.72,0,143.45c-.1,16.06,1.14,32.12-1.6,48.25-2.38,14-7.67,26.13-17,36.4-14.47,16-33.46,22.8-54.39,22.81q-391.86.31-783.73.13c-6.13,0-12.18,0-18.28-1.62C52.11,308.06,48.21,307.14,44.34,307.75Zm743.59-169.2c4.58.86,7.05-.12,6.33-5.68-.59-4.59-.16-9.3-.11-14,.07-7.19,4.1-12.06,9.85-12,5.44.08,8.6,4.3,8.68,11.78.06,5.82.12,11.65,0,17.47-.07,2.51,1.25,2.66,3.09,2.51,1.38-.11,3.11.51,3-2-.36-8.13.9-16.34-.7-24.38-1.94-9.72-12.14-13.27-20.13-7.35-1.09.81-1.54,2.68-3.76,2.27,0-5.47,0-10.94,0-16.41,0-5.76-.38-6-6.33-4.19-1.31.93-1.07,2.33-1.07,3.63q0,22.39,0,44.79C786.74,136.31,786.46,137.74,787.93,138.55Zm-35.07,63c-1.14.75-1.12,1.92-1.12,3.08v39.61c0,1.32-.08,2.69,1.37,3.43a12.66,12.66,0,0,0,2.36.57c7.54.31,7.42.29,7.57-7.06.19-9.62-.84-19.28.67-28.85,1.34-8.55,6.4-13.05,15-13.73,1.3-.1,2.92.36,2.76-1.74-.17-2.41,1.18-5.46-.67-7.1s-4.78-.62-7.15.14a15.45,15.45,0,0,0-7.82,5.91c-1.17,1.61-2.16,3.35-3.23,5a14.35,14.35,0,0,1-.92-6.6c.2-2.85-.59-3.93-3.8-4.13-4.56-.27-5.89,1.16-5,5.51C753.25,197.56,752.89,199.61,752.86,201.59ZM101.73,180.92c0,2.17-.11,4.34,0,6.49s.57,4.29.82,6.43c3.49,28.94,15.06,54.3,34.17,76.17,12.45,14.25,22,16.28,39.5,9.21A74.94,74.94,0,0,1,191,274.75c10.52-1.88,20,1.61,29.52,5.25,15.12,5.75,25.86,3.25,36.45-8.64A133.87,133.87,0,0,0,282.79,229c1.38-3.7,1.24-5.45-2.69-7.63a49.42,49.42,0,0,1-8.21-81.29c7.32-6.21,7.33-6.22,0-13.08a36.51,36.51,0,0,0-3.43-2.9c-16.81-12.3-35-14-54.37-7.21-24.25,8.49-14.92,9-39.52-.08-25.93-9.62-49.55,3.81-60.82,20.62C104.86,150.63,101.6,165.29,101.73,180.92ZM504,240.59c15.29,15.8,35.43,7.65,41.25-5.29,4.82-10.72,5.21-21.67.29-32.39-4.3-9.34-11.85-14-22.33-13.77-8.24.18-14.57,3.79-19.92,11.4-.22-3.12-.51-5.07-.46-7,.12-5.21-3.79-2.71-6.06-3.19-2.82-.6-3.14,1-3.12,3.44.18,24.81.37,49.62.22,74.43,0,4.59,2.41,4,5.28,4.12,3.28.18,5.15-.12,5-4.36C503.78,259.19,504,250.37,504,240.59Zm-68.61-.2c14.28,15.52,33.77,8.47,40.2-3.19,6.08-11,6.69-22.67,1.41-34.06C469.28,186.4,448.72,184,436.69,198c-.49.58-.81,1.5-2.08,1.16a39,39,0,0,1-.28-4.85c.21-3.26-1.21-3.92-4.36-4.16-4.74-.36-5.66,1.4-5.05,5.61a78.67,78.67,0,0,1,.57,11c.05,20.49.14,41-.07,61.48,0,4,1.67,4.3,4.76,4.1,2.77-.18,5.55.66,5.35-4.05C435.16,259.29,435.43,250.3,435.43,240.39ZM380,167.64c-5.19-1.61-7.44.91-8.6,5.74-1.05,4.35-2.8,8.53-4.24,12.77q-9.87,29-19.71,58c-.41,1.23-2,2.7-.29,4,2.57,2,9.47-.48,10.5-3.63,2.1-6.37,4.26-12.73,6.17-19.16.76-2.55,2.38-2.72,4.53-2.7,7.33.07,14.66.2,22-.05,3.12-.11,4.38,1.09,5.23,3.88,1.91,6.28,4.06,12.49,6.19,18.7,1,2.8,6.51,4.74,10,3.06,3-1.45.38-3.77-.17-5.39-7.83-23.28-15.95-46.47-23.66-69.79C386.49,168.7,384.86,166.19,380,167.64Zm232.2-1.45c-1.31.07-3.48.07-5.63.33-9.67,1.17-17.79,8.08-19.68,16.67-2.06,9.37,1.77,17.56,11.07,23,3,1.75,6.34,2.91,9.5,4.4a76.76,76.76,0,0,1,8.9,4.42c5.88,3.79,8,8.83,6.59,14.85s-5.49,9.56-12.21,10.79c-7,1.27-13.48-.27-19.93-2.79-1.2-.48-3.4-3.26-4,.32-.43,2.46-4.6,5.58.75,7.67,9.57,3.75,19.28,4.92,29.25,1.91,12.61-3.82,18.82-14.17,16.17-27-1.52-7.34-6.67-11.65-12.87-15-5.42-2.93-11.55-4.32-16.73-7.74-5.59-3.69-7.73-8.27-6.53-13.93,1.05-5,5.87-8.9,12.1-9.61a29.88,29.88,0,0,1,15.19,2.05c2.29,1,3.92,1.41,4.61-1.74.58-2.61,2.67-5.2-1.93-6.54A53.5,53.5,0,0,0,612.18,166.19Zm70.53,53.12c0,13.88,6.56,24.33,17.86,28.35,12.39,4.41,26.16.33,33.47-9.9,7.54-10.58,7.05-28.87-1-39a24.46,24.46,0,0,0-12.19-8.32C700.51,184.15,682.74,197.62,682.71,219.31Zm134.92,1.61c5.66,0,11.33,0,17,0,1.61,0,3.08.38,3.5-2.23,1.63-10.37-4.17-23.08-12.8-27.33-9.76-4.81-22.72-2.25-30.26,6-9.63,10.51-10.68,30.59-2.19,41.84,7.7,10.19,27.48,13.84,40,7.51,3.5-1.76.82-4,.75-6-.09-2.79-2-1.48-3.18-1-5.12,1.89-10.41,2-15.74,1.81a18.92,18.92,0,0,1-17.75-16.62c-.37-3,.52-4.16,3.72-4C806.29,221.09,812,220.92,817.63,220.92ZM237.82,64.43c-1.27-1.48,2.72-6.38-3.55-5.41-21.67,3.36-39.94,22.93-41.46,44.6-.49,6.9.2,7.54,7,6.5C220.1,107,237.36,86.44,237.82,64.43ZM660,173.86c-10.05,1.88-10.05,1.88-10.06,11.18a5.57,5.57,0,0,0,0,1c.61,3.59-1.06,4.73-4.43,4.28-2.8-.38-4.55,0-4.53,3.79s1.72,4.24,4.53,3.77c4.07-.69,4.47,1.35,4.51,4.79.13,11.15-1,22.34.62,33.43s11.44,16.41,22,12.54c3.42-1.26,1.57-3.88,1.84-5.89.31-2.25-1.29-2.06-3-1.93-8.41.65-11.15-1.71-11.42-10.31-.24-7.32-.07-14.66-.07-22,0-10.57,0-10.64,10.7-10.56,3,0,4.88.1,4.88-4s-2.06-3.75-4.67-3.68-5-.11-7.5.05-3.54-.9-3.45-3.49C660.07,182.54,660,178.23,660,173.86ZM336.9,113.53v13c0,13.46,0,13.47,13.8,12.59,20.25-1.28,29.28-11.7,27.1-31.51-1-9.15-6.11-15.22-14.89-18-7.8-2.47-15.74-1.84-23.71-1-2.55.27-2.3,1.82-2.3,3.49Q336.92,102.81,336.9,113.53Zm297.24-6.14c-3.38-2.93-6-4.79-9.51-5.09-8.81-.78-15.72,4.36-17.72,13.36-2.3,10.35,2,20.05,10.08,23.05,7,2.6,12.45-.3,17.62-5.63.16,1.68.33,2.63.33,3.58,0,2.87,2.15,1.83,3.59,2,2.16.23,1.78-1.28,1.77-2.62q-.13-23.23-.22-46.48c0-2,.4-3.85-2.86-3.91-3.58-.07-3.08,2-3.08,4.19ZM434.9,132.78c-.65-1.94-.95-2.68-1.14-3.44-2-7.88-4.13-15.73-5.9-23.66-.78-3.5-3.2-3-5.35-2.65-3.19.55-.85,2.68-.53,3.8,2.73,9.56,5.73,19.06,8.5,28.62.63,2.17,1.31,3.34,3.94,3.34s3.33-1.18,4-3.28c2.58-8.14,5.31-16.23,8-24.32,1.32.17,1.14,1.15,1.37,1.89,2.34,7.62,4.76,15.21,7,22.87.64,2.19,1.77,2.73,3.91,2.81,2.29.09,3.18-.77,3.82-2.83,3.11-10,6.38-20,9.52-29.95.31-1,2-2.71-.56-3-1.59-.15-3.8-1.1-4.77,1.33a34.93,34.93,0,0,0-1,3.36l-6.94,24.93c-2.95-9.62-5.6-18.14-8.16-26.68-.58-1.93-1.3-3.15-3.7-3.13s-3,1.27-3.61,3.2C440.67,114.62,437.93,123.16,434.9,132.78Zm265.28-11.57c.31-11.3-6.14-18.71-16.52-19-11.06-.29-18.25,6.78-18.56,18.26-.29,10.93,6.59,18.87,16.61,19.15C692.45,140,699.86,132.55,700.18,121.21Zm-150.24-19c-10.84,0-18.13,7.57-18.12,18.86,0,10.7,7.35,18.53,17.37,18.55,10.64,0,18-7.74,18-19S560.49,102.25,549.94,102.23ZM383.39,120.74c-.14,11.1,6.61,18.74,16.7,18.9,10.77.18,18.08-7.28,18.29-18.66.21-11.2-6.41-18.58-16.82-18.75C390.47,102.05,383.53,109.12,383.39,120.74Zm210.4,14c.41,3.15,1.9,4.75,4.85,3.93,3.31-.93.47-3.31,1-5,.38-1.2,0-2.63,0-4,0-3.83-.18-7.66,0-11.47.79-14.67-8.57-18.2-20.94-15-1.81.48-5,.52-3.73,3.87,1.17,3.09,3.14.42,4.49,0,6.58-1.87,11.6-.57,13.43,3.91,1.19,2.89,1.44,5.07-3,5a22.41,22.41,0,0,0-13.25,3.6,11.36,11.36,0,0,0-4.31,13.61c1.87,4.62,7.5,7.34,12.84,6.12A20.57,20.57,0,0,0,593.79,134.71Zm120.06-26.82a2.23,2.23,0,0,1-1.1-2.53c.17-2.14-1-2.4-2.77-2.48-2.06-.08-2.45.86-2.43,2.71.08,10.14.15,20.28,0,30.42,0,2.89,1.55,2.58,3.45,2.71,2.35.17,2.7-.88,2.66-2.92-.12-5.82,0-11.64,0-17.46a10.93,10.93,0,0,1,1.62-6.66c2.38-3.37,5.54-5.33,9.78-4.53a7.78,7.78,0,0,1,6.68,7.66c.42,7,.4,13.94.42,20.92,0,2,.35,3.25,2.69,3,1.49-.19,3.43.67,3.36-2.21-.19-7.64.2-15.32-.38-22.92-.6-7.83-6.32-12-14.18-11.24C719.55,102.68,716.51,104.8,713.85,107.89Zm-229.64.56c-.69-2.76.68-5.89-3.32-5.58s-2.13,3.17-2.16,4.85c-.15,9.33,0,18.66-.08,28,0,2.51.82,3,3.15,3,2.49,0,3-.84,3-3.16-.14-6.33-.2-12.67,0-19a10,10,0,0,1,9.59-9.69c4.57-.08,7.68,3,8.51,8.67a43.91,43.91,0,0,1,.39,6c.05,4.83.14,9.66,0,14.49-.09,2.43,1.05,2.76,3,2.65,1.66-.09,3.33.29,3.19-2.42-.4-7.81.75-15.69-.63-23.44-1.6-9-9.81-13.09-18.21-9.48C488.28,104.36,486.67,106.24,484.21,108.45Zm360,13.18c3.5,0,7,0,10.5,0,1.48,0,2.39-.28,2.73-2.07,1.51-7.85-4.92-16.59-12.87-17.27s-13.91,2.63-17,9.57c-3.68,8.35-2.08,18.55,3.7,23.58,5.06,4.4,16.68,5.64,22.24,2.61,1.68-.91,1.41-2,1.16-3.27-.38-1.92-1.69-1.13-2.71-.82a25.09,25.09,0,0,1-9.9.74,11.36,11.36,0,0,1-10.23-9.44c-.4-2.29-.2-3.89,2.86-3.69S841,121.63,844.2,121.63Zm-67,18c1.35-.38,4.15.67,4.57-2.39.53-3.82-2.59-2.39-4.42-2.66-3.35-.5-4.32-2.9-4.43-5.73-.19-5,.18-10-.26-15s.91-7.51,6.37-6.53c1.66.29,3.37.25,3.32-2.38,0-2.46-1.77-2.25-3.12-2-5.82,1-7.3-1.69-6.56-6.89.15-1,.92-3.11-1-3.16-1.65-.05-3.89,0-4.75,2a8.65,8.65,0,0,0-.15,3.46c.06,2.56.45,5.26-3.64,4.61-1.61-.26-1.87,1-1.84,2.27s.33,2.43,1.95,2.15c3.62-.61,3.56,1.64,3.55,4.19,0,6.32-.2,12.66.23,19S770.75,139.61,777.25,139.65ZM518.53,112.07c0,7.83.08,15.66,0,23.48,0,2.27.4,3.29,3,3.2,2.23-.08,3.21-.44,3.19-3-.12-15.48-.09-31,0-46.46,0-2.37-.35-3.62-3.23-3.62-3.24,0-2.85,1.94-2.85,3.94Z" transform="translate(-33.74 -17.6)" fill="#123342"/><path d="M44.34,307.75c3.87-.61,7.77.31,11.3,1.24,6.1,1.59,12.15,1.62,18.28,1.62q391.86,0,783.73-.13c20.93,0,39.92-6.85,54.39-22.81,9.31-10.27,14.6-22.42,17-36.4,2.74-16.13,1.5-32.19,1.6-48.25q.48-71.73,0-143.45c-.09-11.38-1.92-22.8-7.47-33.16a10.21,10.21,0,0,1-1.4-5.72c15.4,5.17,27.12,15,35.52,28.72a71.56,71.56,0,0,1,10.43,37.72c.11,60.92.61,121.85-.18,182.76-.43,33.08-20.46,59.29-54.63,67.69a9.4,9.4,0,0,1-2,.08l-1.06.49c-7.37,1.59-14.85,1.46-22.33,1.46q-390.65,0-781.29,0c-2.16,0-4.32-.12-6.48-.18a2.58,2.58,0,0,0-2.65-.56Q63.06,336.23,44.34,307.75Z" transform="translate(-33.74 -17.6)" fill="#0f2c42"/><path d="M97.05,338.84a2.58,2.58,0,0,1,2.65.56C98.74,339.59,97.78,339.74,97.05,338.84Z" transform="translate(-33.74 -17.6)" fill="#123342"/><path d="M909.8,338.15l1.06-.49C910.62,338.07,910.38,338.48,909.8,338.15Z" transform="translate(-33.74 -17.6)" fill="#123342"/><path d="M101.73,180.92c-.13-15.63,3.13-30.29,12-43.49,11.27-16.81,34.89-30.24,60.82-20.62,24.6,9.13,15.27,8.57,39.52.08,19.41-6.79,37.56-5.09,54.37,7.21a36.51,36.51,0,0,1,3.43,2.9c7.37,6.86,7.36,6.87,0,13.08a49.42,49.42,0,0,0,8.21,81.29c3.93,2.18,4.07,3.93,2.69,7.63A133.87,133.87,0,0,1,257,271.36c-10.59,11.89-21.33,14.39-36.45,8.64-9.55-3.64-19-7.13-29.52-5.25a74.94,74.94,0,0,0-14.75,4.47c-17.54,7.07-27.05,5-39.5-9.21-19.11-21.87-30.68-47.23-34.17-76.17-.25-2.14-.67-4.28-.82-6.43S101.73,183.09,101.73,180.92Z" transform="translate(-33.74 -17.6)" fill="#fefefe"/><path d="M504,240.59c0,9.78-.26,18.6.12,27.38.18,4.24-1.69,4.54-5,4.36-2.87-.16-5.31.47-5.28-4.12.15-24.81,0-49.62-.22-74.43,0-2.44.3-4,3.12-3.44,2.27.48,6.18-2,6.06,3.19-.05,1.94.24,3.89.46,7,5.35-7.61,11.68-11.22,19.92-11.4,10.48-.22,18,4.43,22.33,13.77,4.92,10.72,4.53,21.67-.29,32.39C539.47,248.24,519.33,256.39,504,240.59Zm34.8-21.29a27,27,0,0,0-1.47-9.82c-2.67-8-8.81-12.45-16.73-12.28-7.66.17-13.81,5.19-15.81,13.4a40.06,40.06,0,0,0,0,18.73c1.51,6.39,6,10.23,12.28,11.74A15.75,15.75,0,0,0,533,236.31C537.53,231.56,538.67,225.58,538.84,219.3Z" transform="translate(-33.74 -17.6)" fill="#fefefe"/><path d="M435.43,240.39c0,9.91-.27,18.9.1,27.87.2,4.71-2.58,3.87-5.35,4.05-3.09.2-4.8-.13-4.76-4.1.21-20.49.12-41,.07-61.48a78.67,78.67,0,0,0-.57-11c-.61-4.21.31-6,5.05-5.61,3.15.24,4.57.9,4.36,4.16a39,39,0,0,0,.28,4.85c1.27.34,1.59-.58,2.08-1.16,12-14.05,32.59-11.6,40.35,5.14,5.28,11.39,4.67,23-1.41,34.06C469.2,248.86,449.71,255.91,435.43,240.39Zm-.15-20.51h.16c0,1.66-.06,3.32,0,5,.39,8.55,5.79,14.95,13.89,16.51,7.67,1.48,15.45-3,18.65-10.84a30.33,30.33,0,0,0,.68-20.95c-2.67-8.51-9.1-12.89-17.59-12.38-7.46.45-13.85,6.5-15.28,14.74A71.83,71.83,0,0,0,435.28,219.88Z" transform="translate(-33.74 -17.6)" fill="#fefefe"/><path d="M380,167.64c4.88-1.45,6.51,1.06,7.94,5.38,7.71,23.32,15.83,46.51,23.66,69.79.55,1.62,3.18,3.94.17,5.39-3.51,1.68-9.06-.26-10-3.06-2.13-6.21-4.28-12.42-6.19-18.7-.85-2.79-2.11-4-5.23-3.88-7.31.25-14.64.12-22,.05-2.15,0-3.77.15-4.53,2.7-1.91,6.43-4.07,12.79-6.17,19.16-1,3.15-7.93,5.59-10.5,3.63-1.71-1.29-.12-2.76.29-4q9.78-29,19.71-58c1.44-4.24,3.19-8.42,4.24-12.77C372.54,168.55,374.79,166,380,167.64Zm-.8,8.51c-3.27,12.59-7.15,23.84-11.19,35-1,2.84-.34,3.8,2.75,3.71,6.14-.19,12.28-.07,18.42,0,1.8,0,2.85-.28,2.08-2.56C387.26,200.57,383.4,188.82,379.18,176.15Z" transform="translate(-33.74 -17.6)" fill="#fefefe"/><path d="M612.18,166.19a53.5,53.5,0,0,1,14.59,2.08c4.6,1.34,2.51,3.93,1.93,6.54-.69,3.15-2.32,2.71-4.61,1.74a29.88,29.88,0,0,0-15.19-2.05c-6.23.71-11,4.62-12.1,9.61-1.2,5.66.94,10.24,6.53,13.93,5.18,3.42,11.31,4.81,16.73,7.74,6.2,3.35,11.35,7.66,12.87,15,2.65,12.79-3.56,23.14-16.17,27-10,3-19.68,1.84-29.25-1.91-5.35-2.09-1.18-5.21-.75-7.67.63-3.58,2.83-.8,4-.32,6.45,2.52,13,4.06,19.93,2.79,6.72-1.23,10.83-4.78,12.21-10.79s-.71-11.06-6.59-14.85a76.76,76.76,0,0,0-8.9-4.42c-3.16-1.49-6.5-2.65-9.5-4.4-9.3-5.42-13.13-13.61-11.07-23,1.89-8.59,10-15.5,19.68-16.67C608.7,166.26,610.87,166.26,612.18,166.19Z" transform="translate(-33.74 -17.6)" fill="#fefefe"/><path d="M682.71,219.31c0-21.69,17.8-35.16,38.11-28.88A24.46,24.46,0,0,1,733,198.75c8.08,10.14,8.57,28.43,1,39-7.31,10.23-21.08,14.31-33.47,9.9C689.27,243.64,682.7,233.19,682.71,219.31Zm46.21-.44a26.69,26.69,0,0,0-3.2-13.33c-6.36-11.71-22.1-12.34-28.9-.86-5.59,9.42-5.67,19.39,0,28.86,6.63,11.14,21.47,11,28.33.05A25.88,25.88,0,0,0,728.92,218.87Z" transform="translate(-33.74 -17.6)" fill="#fefefe"/><path d="M817.63,220.92c-5.67,0-11.34.17-17-.07-3.2-.13-4.09,1-3.72,4a18.92,18.92,0,0,0,17.75,16.62c5.33.23,10.62.08,15.74-1.81,1.19-.44,3.09-1.75,3.18,1,.07,2,2.75,4.2-.75,6-12.49,6.33-32.27,2.68-40-7.51-8.49-11.25-7.44-31.33,2.19-41.84,7.54-8.23,20.5-10.79,30.26-6,8.63,4.25,14.43,17,12.8,27.33-.42,2.61-1.89,2.22-3.5,2.23C829,220.93,823.29,220.92,817.63,220.92Zm-4.92-7.07c4.15,0,8.3-.14,12.44.05,2.67.12,3.5-.84,3.3-3.43-.63-8.42-6.63-13.91-15-14.19s-14.31,6.42-16.37,15.22c-.55,2.34,1.09,2.35,2.66,2.35C804.09,213.86,808.4,213.85,812.71,213.85Z" transform="translate(-33.74 -17.6)" fill="#fefefe"/><path d="M237.82,64.43c-.46,22-17.72,42.57-38,45.69-6.78,1-7.47.4-7-6.5C194.33,82,212.6,62.38,234.27,59,240.54,58.05,236.55,63,237.82,64.43Z" transform="translate(-33.74 -17.6)" fill="#fefefe"/><path d="M660,173.86c0,4.37.11,8.68,0,13-.09,2.59.82,3.66,3.45,3.49s5,0,7.5-.05,4.67-.34,4.67,3.68-1.93,4-4.88,4c-10.7-.08-10.7,0-10.7,10.56,0,7.33-.17,14.67.07,22,.27,8.6,3,11,11.42,10.31,1.67-.13,3.27-.32,3,1.93-.27,2,1.58,4.63-1.84,5.89-10.52,3.87-20.34-1.56-22-12.54s-.49-22.28-.62-33.43c0-3.44-.44-5.48-4.51-4.79-2.81.47-4.51,0-4.53-3.77s1.73-4.17,4.53-3.79c3.37.45,5-.69,4.43-4.28a5.57,5.57,0,0,1,0-1C649.91,175.74,649.91,175.74,660,173.86Z" transform="translate(-33.74 -17.6)" fill="#fefefe"/><path d="M336.9,113.53q0-10.73,0-21.45c0-1.67-.25-3.22,2.3-3.49,8-.85,15.91-1.48,23.71,1,8.78,2.78,13.89,8.85,14.89,18,2.18,19.81-6.85,30.23-27.1,31.51-13.8.88-13.8.87-13.8-12.59Zm6-.21v13c0,8.71,0,8.74,8.9,8.13a31,31,0,0,0,5.9-1c9.54-2.52,14.32-10.21,14-22.45-.2-9.57-5.4-16-14.88-17.83-3-.6-6.29-.17-9.43-.41-3.43-.27-4.78,1-4.61,4.56C343.12,102.66,342.93,108,342.93,113.32Z" transform="translate(-33.74 -17.6)" fill="#fefefe"/><path d="M752.86,201.59c0-2,.39-4,0-5.93-.86-4.35.47-5.78,5-5.51,3.21.2,4,1.28,3.8,4.13a14.35,14.35,0,0,0,.92,6.6c1.07-1.68,2.06-3.42,3.23-5a15.45,15.45,0,0,1,7.82-5.91c2.37-.76,5.3-1.78,7.15-.14s.5,4.69.67,7.1c.16,2.1-1.46,1.64-2.76,1.74-8.63.68-13.69,5.18-15,13.73-1.51,9.57-.48,19.23-.67,28.85-.15,7.35,0,7.37-7.57,7.06a12.66,12.66,0,0,1-2.36-.57C753.14,232.34,753.62,217,752.86,201.59Z" transform="translate(-33.74 -17.6)" fill="#fefefe"/><path d="M634.14,107.39V89.83c0-2.14-.5-4.26,3.08-4.19,3.26.06,2.85,1.92,2.86,3.91q.09,23.25.22,46.48c0,1.34.39,2.85-1.77,2.62-1.44-.16-3.59.88-3.59-2,0-.95-.17-1.9-.33-3.58-5.17,5.33-10.6,8.23-17.62,5.63-8.11-3-12.38-12.7-10.08-23.05,2-9,8.91-14.14,17.72-13.36C628.13,102.6,630.76,104.46,634.14,107.39Zm0,13.4c0-9-3.41-13.84-9.88-14.1-6.22-.24-11.06,5-11.54,12.52-.56,8.76,3.34,14.89,9.82,15.44C629.91,135.28,634.13,130.24,634.14,120.79Z" transform="translate(-33.74 -17.6)" fill="#fefefe"/><path d="M434.9,132.78c3-9.62,5.77-18.16,8.38-26.74.59-1.93,1.19-3.19,3.61-3.2s3.12,1.2,3.7,3.13c2.56,8.54,5.21,17.06,8.16,26.68l6.94-24.93a34.93,34.93,0,0,1,1-3.36c1-2.43,3.18-1.48,4.77-1.33,2.54.24.87,2,.56,3-3.14,10-6.41,20-9.52,30-.64,2.06-1.53,2.92-3.82,2.83-2.14-.08-3.27-.62-3.91-2.81-2.22-7.66-4.64-15.25-7-22.87-.23-.74-.05-1.72-1.37-1.89-2.66,8.09-5.39,16.18-8,24.32-.67,2.1-1.41,3.28-4,3.28s-3.31-1.17-3.94-3.34c-2.77-9.56-5.77-19.06-8.5-28.62-.32-1.12-2.66-3.25.53-3.8,2.15-.37,4.57-.85,5.35,2.65,1.77,7.93,3.9,15.78,5.9,23.66C434,130.1,434.25,130.84,434.9,132.78Z" transform="translate(-33.74 -17.6)" fill="#fefefe"/><path d="M787.81,86.6c6-1.81,6.32-1.57,6.33,4.19,0,5.47,0,10.94,0,16.41,2.22.41,2.67-1.46,3.76-2.27,8-5.92,18.19-2.37,20.13,7.35,1.6,8,.34,16.25.7,24.38.11,2.53-1.62,1.91-3,2-1.84.15-3.16,0-3.09-2.51.16-5.82.1-11.65,0-17.47-.08-7.48-3.24-11.7-8.68-11.78-5.75-.07-9.78,4.8-9.85,12,0,4.66-.48,9.37.11,14,.72,5.56-1.75,6.54-6.33,5.68Z" transform="translate(-33.74 -17.6)" fill="#fefefe"/><path d="M700.18,121.21c-.32,11.34-7.73,18.74-18.47,18.43-10-.28-16.9-8.22-16.61-19.15.31-11.48,7.5-18.55,18.56-18.26C694,102.5,700.49,109.91,700.18,121.21Zm-6.2-.33a17.57,17.57,0,0,0-1-6.34c-1.79-4.73-4.76-8-10.18-8s-8.59,3-10.31,7.79c-1.94,5.43-1.74,10.78,1.4,15.72,4.15,6.54,12.41,6.78,17.1.62A15.51,15.51,0,0,0,694,120.88Z" transform="translate(-33.74 -17.6)" fill="#fefefe"/><path d="M549.94,102.23c10.55,0,17.3,7.19,17.27,18.36s-7.38,19.08-18,19c-10,0-17.36-7.85-17.37-18.55C531.81,109.8,539.1,102.21,549.94,102.23Zm11,18.6a15.93,15.93,0,0,0-1.62-7.73c-1.85-3.81-4.67-6.38-9.18-6.57-4.7-.2-8,2.07-10,6a17.36,17.36,0,0,0-.07,16.29c1.91,3.8,5.08,6.25,9.46,6.25,4.59,0,7.75-2.59,9.77-6.58A15.78,15.78,0,0,0,560.93,120.83Z" transform="translate(-33.74 -17.6)" fill="#fefefe"/><path d="M383.39,120.74c.14-11.62,7.08-18.69,18.17-18.51,10.41.17,17,7.55,16.82,18.75-.21,11.38-7.52,18.84-18.29,18.66C390,139.48,383.25,131.84,383.39,120.74Zm6,.28a16.57,16.57,0,0,0,2.23,8.54c3.25,5.31,9.13,7.08,14.08,4.17,8.12-4.77,8.66-20.06.9-25.47a9.36,9.36,0,0,0-5.09-1.72C394.34,106.22,389.34,112.17,389.41,121Z" transform="translate(-33.74 -17.6)" fill="#fefefe"/><path d="M593.79,134.71a20.57,20.57,0,0,1-8.59,4.72c-5.34,1.22-11-1.5-12.84-6.12a11.36,11.36,0,0,1,4.31-13.61,22.41,22.41,0,0,1,13.25-3.6c4.43.08,4.18-2.1,3-5-1.83-4.48-6.85-5.78-13.43-3.91-1.35.39-3.32,3.06-4.49,0-1.26-3.35,1.92-3.39,3.73-3.87,12.37-3.25,21.73.28,20.94,15-.21,3.81,0,7.64,0,11.47,0,1.33.38,2.76,0,4-.52,1.65,2.32,4-1,5C595.69,139.46,594.2,137.86,593.79,134.71Zm0-9.81c-.67-1.42,1.46-4.39-1.85-4.58-3.8-.21-7.75-.06-11,2.37s-4,5.77-2.19,9.3c1.71,3.27,4.77,3.87,8.18,2.82C591.66,133.33,593.89,130,593.77,124.9Z" transform="translate(-33.74 -17.6)" fill="#fefefe"/><path d="M713.85,107.89c2.66-3.09,5.7-5.21,9.76-5.58,7.86-.73,13.58,3.41,14.18,11.24.58,7.6.19,15.28.38,22.92.07,2.88-1.87,2-3.36,2.21-2.34.3-2.68-1-2.69-3,0-7,0-14-.42-20.92a7.78,7.78,0,0,0-6.68-7.66c-4.24-.8-7.4,1.16-9.78,4.53a10.93,10.93,0,0,0-1.62,6.66c0,5.82-.07,11.64,0,17.46,0,2-.31,3.09-2.66,2.92-1.9-.13-3.49.18-3.45-2.71.14-10.14.07-20.28,0-30.42,0-1.85.37-2.79,2.43-2.71,1.72.08,2.94.34,2.77,2.48A2.23,2.23,0,0,0,713.85,107.89Z" transform="translate(-33.74 -17.6)" fill="#fefefe"/><path d="M484.21,108.45c2.46-2.21,4.07-4.09,6.41-5.09,8.4-3.61,16.61.5,18.21,9.48,1.38,7.75.23,15.63.63,23.44.14,2.71-1.53,2.33-3.19,2.42-1.95.11-3.09-.22-3-2.65.17-4.83.08-9.66,0-14.49a43.91,43.91,0,0,0-.39-6c-.83-5.65-3.94-8.75-8.51-8.67a10,10,0,0,0-9.59,9.69c-.22,6.32-.16,12.66,0,19,0,2.32-.5,3.2-3,3.16-2.33,0-3.19-.54-3.15-3,.13-9.33-.07-18.66.08-28,0-1.68-1.85-4.54,2.16-4.85S483.52,105.69,484.21,108.45Z" transform="translate(-33.74 -17.6)" fill="#fefefe"/><path d="M844.2,121.63c-3.17,0-6.34.17-9.49,0s-3.26,1.4-2.86,3.69a11.36,11.36,0,0,0,10.23,9.44A25.09,25.09,0,0,0,852,134c1-.31,2.33-1.1,2.71.82.25,1.29.52,2.36-1.16,3.27-5.56,3-17.18,1.79-22.24-2.61-5.78-5-7.38-15.23-3.7-23.58,3.06-6.94,8.94-10.25,17-9.57s14.38,9.42,12.87,17.27c-.34,1.79-1.25,2.08-2.73,2.07C851.2,121.61,847.7,121.63,844.2,121.63Zm-2.51-4.18a49.5,49.5,0,0,1,5.45,0c4.2.48,5-1.36,3.62-4.9-1.27-3.32-3.36-5.64-7.06-6.16a9.18,9.18,0,0,0-9.74,4.42c-1.12,1.77-2.83,3.86-1.78,5.86.89,1.7,3.31.56,5.05.72C838.7,117.56,840.2,117.45,841.69,117.45Z" transform="translate(-33.74 -17.6)" fill="#fefefe"/><path d="M777.25,139.65c-6.5,0-9.75-2.79-10.19-9.11s-.26-12.64-.23-19c0-2.55.07-4.8-3.55-4.19-1.62.28-1.91-.85-1.95-2.15s.23-2.53,1.84-2.27c4.09.65,3.7-2,3.64-4.61A8.65,8.65,0,0,1,767,94.9c.86-2,3.1-2,4.75-2,1.93,0,1.16,2.13,1,3.16-.74,5.2.74,7.94,6.56,6.89,1.35-.24,3.07-.45,3.12,2,.05,2.63-1.66,2.67-3.32,2.38-5.46-1-6.82,1.5-6.37,6.53s.07,10,.26,15c.11,2.83,1.08,5.23,4.43,5.73,1.83.27,5-1.16,4.42,2.66C781.4,140.32,778.6,139.27,777.25,139.65Z" transform="translate(-33.74 -17.6)" fill="#fefefe"/><path d="M518.53,112.07V89.59c0-2-.39-3.94,2.85-3.94,2.88,0,3.24,1.25,3.23,3.62-.07,15.49-.1,31,0,46.46,0,2.58-1,2.94-3.19,3-2.55.09-3-.93-3-3.2C518.61,127.73,518.53,119.9,518.53,112.07Z" transform="translate(-33.74 -17.6)" fill="#fefefe"/><path d="M787.81,86.6l.12,52c-1.47-.81-1.19-2.24-1.19-3.53q0-22.4,0-44.79C786.74,88.93,786.5,87.53,787.81,86.6Z" transform="translate(-33.74 -17.6)" fill="#0f2c42"/><path d="M752.86,201.59c.76,15.37.28,30.75.25,46.12-1.45-.74-1.37-2.11-1.37-3.43V204.67C751.74,203.51,751.72,202.34,752.86,201.59Z" transform="translate(-33.74 -17.6)" fill="#0f2c42"/><path d="M538.84,219.3c-.17,6.28-1.31,12.26-5.85,17a15.75,15.75,0,0,1-15.87,4.76c-6.27-1.51-10.77-5.35-12.28-11.74a40.06,40.06,0,0,1,0-18.73c2-8.21,8.15-13.23,15.81-13.4,7.92-.17,14.06,4.3,16.73,12.28A27,27,0,0,1,538.84,219.3Z" transform="translate(-33.74 -17.6)" fill="#123342"/><path d="M435.28,219.88a71.83,71.83,0,0,1,.52-7.93c1.43-8.24,7.82-14.29,15.28-14.74,8.49-.51,14.92,3.87,17.59,12.38a30.33,30.33,0,0,1-.68,20.95c-3.2,7.88-11,12.32-18.65,10.84-8.1-1.56-13.5-8-13.89-16.51-.07-1.66,0-3.32,0-5Z" transform="translate(-33.74 -17.6)" fill="#123342"/><path d="M379.18,176.15c4.22,12.67,8.08,24.42,12.06,36.13.77,2.28-.28,2.56-2.08,2.56-6.14,0-12.28-.14-18.42,0-3.09.09-3.77-.87-2.75-3.71C372,200,375.91,188.74,379.18,176.15Z" transform="translate(-33.74 -17.6)" fill="#123342"/><path d="M728.92,218.87a25.88,25.88,0,0,1-3.8,14.72c-6.86,11-21.7,11.09-28.33-.05-5.64-9.47-5.56-19.44,0-28.86,6.8-11.48,22.54-10.85,28.9.86A26.69,26.69,0,0,1,728.92,218.87Z" transform="translate(-33.74 -17.6)" fill="#123342"/><path d="M812.71,213.85c-4.31,0-8.62,0-12.93,0-1.57,0-3.21,0-2.66-2.35,2.06-8.8,8.11-15.49,16.37-15.22s14.33,5.77,15,14.19c.2,2.59-.63,3.55-3.3,3.43C821,213.71,816.86,213.85,812.71,213.85Z" transform="translate(-33.74 -17.6)" fill="#123342"/><path d="M342.93,113.32c0-5.33.19-10.66-.07-16-.17-3.56,1.18-4.83,4.61-4.56,3.14.24,6.38-.19,9.43.41,9.48,1.84,14.68,8.26,14.88,17.83.27,12.24-4.51,19.93-14,22.45a31,31,0,0,1-5.9,1c-8.9.61-8.9.58-8.9-8.13Z" transform="translate(-33.74 -17.6)" fill="#123342"/><path d="M634.14,120.79c0,9.45-4.23,14.49-11.6,13.86-6.48-.55-10.38-6.68-9.82-15.44.48-7.51,5.32-12.76,11.54-12.52C630.73,107,634.15,111.83,634.14,120.79Z" transform="translate(-33.74 -17.6)" fill="#123342"/><path d="M694,120.88a15.51,15.51,0,0,1-3,9.8c-4.69,6.16-13,5.92-17.1-.62-3.14-4.94-3.34-10.29-1.4-15.72,1.72-4.8,4.93-7.81,10.31-7.79s8.39,3.26,10.18,8A17.57,17.57,0,0,1,694,120.88Z" transform="translate(-33.74 -17.6)" fill="#123342"/><path d="M560.93,120.83a15.78,15.78,0,0,1-1.69,7.7c-2,4-5.18,6.58-9.77,6.58-4.38,0-7.55-2.45-9.46-6.25a17.36,17.36,0,0,1,.07-16.29c2-4,5.35-6.24,10-6,4.51.19,7.33,2.76,9.18,6.57A15.93,15.93,0,0,1,560.93,120.83Z" transform="translate(-33.74 -17.6)" fill="#123342"/><path d="M389.41,121c-.07-8.85,4.93-14.8,12.12-14.48a9.36,9.36,0,0,1,5.09,1.72c7.76,5.41,7.22,20.7-.9,25.47-5,2.91-10.83,1.14-14.08-4.17A16.57,16.57,0,0,1,389.41,121Z" transform="translate(-33.74 -17.6)" fill="#123342"/><path d="M593.77,124.9c.12,5.13-2.11,8.43-6.88,9.91-3.41,1.05-6.47.45-8.18-2.82-1.85-3.53-1.08-6.87,2.19-9.3s7.22-2.58,11-2.37C595.23,120.51,593.1,123.48,593.77,124.9Z" transform="translate(-33.74 -17.6)" fill="#123342"/><path d="M841.69,117.45c-1.49,0-3,.11-4.46,0-1.74-.16-4.16,1-5.05-.72-1-2,.66-4.09,1.78-5.86a9.18,9.18,0,0,1,9.74-4.42c3.7.52,5.79,2.84,7.06,6.16,1.35,3.54.58,5.38-3.62,4.9A49.5,49.5,0,0,0,841.69,117.45Z" transform="translate(-33.74 -17.6)" fill="#123342"/></svg>