<svg id="car_Image" data-name="car Image" xmlns="http://www.w3.org/2000/svg" viewBox="0 0 624.47 176.79"><defs><style>.cls-1{fill:#25a0fd;}.cls-2{fill:#0090fe;}.cls-3{fill:#014f7d;}.cls-4{fill:#0474b7;}</style></defs><title>car</title><path class="cls-1" d="M48.07,107c-.69-5.78-1.34-11.57-2.08-17.34-.6-4.73,1.61-8.39,4.41-11.8,8-9.63,18.11-16.67,28.27-23.64,12.78-8.77,26.13-16.62,39.72-24.07,2-1.09,3.9-2,4.82-4.62,1-2.86,4.28-3.48,6.94-4.36,11.29-3.7,23.08-4.93,34.78-6,52.76-4.68,105.66-6.3,158.62-6.18a186.44,186.44,0,0,1,27.32,2.15c43.68,6.55,84.06,21.69,119.66,48,9.06,6.72,18,10.46,29.21,11.46,23.14,2.08,46.2,5.17,69.21,8.39,15.1,2.11,30.51,2.42,45.2,7.14,25.27,8.11,40.24,29.2,43.78,52.79-1.77-.35-3.54-.75-5.32-1q-25.4-4-50.78-7.87c-12.25-17.05-29.49-21-49.24-19.44-10.1.81-19,4.46-27.54,9.32-.81-1.09-2-.89-3.16-1q-19.86-2.46-39.72-5c-.4-5.62-.45-11.3-1.27-16.87-1.82-12.28-5.66-23-17.32-30.36-13.17-8.3-24.85-18.87-38.7-26.29C390.6,22.07,353.69,14.16,315.19,13.22c-21.07-.52-42.13,1.52-63.19,2.6-22.55,1.15-45,2.88-67.34,6.26-14.2,2.15-28,5.4-39.47,15.08-8.63,7.26-17.85,13.84-26.84,20.66-2.27,1.71-5,3.07-4,6.65,1,3.88,4.14,3.61,7.23,3.61,20.32,0,40.64,0,61-.1,3.83,0,5.1.5,3.35,4.72a15.84,15.84,0,0,0,1.48,14.82c1.92,3.1,3.72,6.29,5.56,9.44-7.6.35-15.26.74-22.81.75-23.55,0-46.95,2.31-70.42,3.34-4.94.22-9.85.91-14.77,1.5C72.62,104,60.35,105.52,48.07,107Z" transform="translate(-36.51 -9.04)"/><path class="cls-2" d="M48.07,107c12.28-1.5,24.55-3,36.83-4.47,4.92-.59,9.83-1.28,14.77-1.5,23.47-1,46.87-3.32,70.42-3.34,7.55,0,15.21-.4,22.81-.75,11,17.82,21.5,36,35,52.05,10.1,12,20.94,22,38.2,22.07,20.43.09,40.86,1.2,61.3,1.85,15.46.49,30.94.45,46.4.74,25.29.47,50.58,1.52,75.88,1.33,5.17,0,10.33,0,15.5.05,11.82,0,11.82,0,14-11.39.25-1.3.55-2.6.67-3.91A402.24,402.24,0,0,0,482.17,114q19.86,2.5,39.72,5c1.14.15,2.35,0,3.16,1-17,15.23-21.28,35-20,56.65l.13-.05c.37,3.74-.72,5.54-5.08,5.63-12.31.25-24.6,1.28-36.9,1.58-25.14.61-50.24,2.29-75.4,2-27.8-.34-55.53-2.18-83.28-3.62q-31.15-1.62-62.29-3.38c-6.15-.34-12.29-.73-18.44-1.12-2.87-.18-4.77-1.29-4.11-4.63,1.08-8.28-.81-16.24-3-24.06-4.62-16.65-12.95-30.69-29.6-37.94-13.09-5.71-26.64-6.32-40.43-2.56-12.39,3.38-21.62,10.7-27.55,22-6.64,12.71-8.77,26.35-7.92,40.55.38,3.62-1.36,4.52-4.7,4-8.18-1.2-16.4-2.21-24.6-3.29-7.58-3.16-15.68-5-23-8.86-6.06-4.31-12-8.7-15-15.9-1.17-5.68-3.06-11.22-3.36-17.07-.25-5,.68-9.38,5.8-11.56,2-.84,2.18-2.12,2-4C48.15,112,48.17,109.5,48.07,107Z" transform="translate(-36.51 -9.04)"/><path class="cls-3" d="M505.09,176.65c-1.32-21.69,2.93-41.42,20-56.65,8.58-4.86,17.44-8.51,27.54-9.32,19.75-1.6,37,2.39,49.24,19.44,2.86,6,5.49,12,6.62,18.58,1.55,9,2.55,17.91.49,26.93q-48.69.27-97.4.56C509.39,176.21,507.24,176.49,505.09,176.65Z" transform="translate(-36.51 -9.04)"/><path class="cls-2" d="M608.94,175.63c2.06-9,1.06-18-.49-26.93-1.13-6.58-3.76-12.62-6.62-18.58q25.38,3.93,50.78,7.87c1.78.28,3.55.68,5.32,1a77.54,77.54,0,0,1,2.88,27.44,4.57,4.57,0,0,1-3.71,4.59Q634,177.92,611,185c-3,.92-3.21-.17-2.49-2.54A16.6,16.6,0,0,0,608.94,175.63Z" transform="translate(-36.51 -9.04)"/><path class="cls-3" d="M44,147.06c3,7.2,8.95,11.59,15,15.9-6.09-.4-12.18-.82-18.27-1.19-4.31-.27-3.45-3.87-3.84-6.33C35.72,148.37,37.13,146.86,44,147.06Z" transform="translate(-36.51 -9.04)"/><path class="cls-3" d="M111.25,171.08c-.85-14.2,1.28-27.84,7.92-40.55,5.93-11.35,15.16-18.67,27.55-22,13.79-3.76,27.34-3.15,40.43,2.56,16.65,7.25,25,21.29,29.6,37.94,2.16,7.82,4.05,15.78,3,24.06-19.21-2-38.52-.13-57.72-1.25C145.07,170.81,128.16,171.28,111.25,171.08Z" transform="translate(-36.51 -9.04)"/><path class="cls-4" d="M482.17,114a402.24,402.24,0,0,1-2.23,45.78c-.12,1.31-.42,2.61-.67,3.91-2.22,11.43-2.22,11.43-14,11.39-5.17,0-10.33-.09-15.5-.05-25.3.19-50.59-.86-75.88-1.33-15.46-.29-30.94-.25-46.4-.74-20.44-.65-40.87-1.76-61.3-1.85C248.89,171,238.05,161,228,149c-13.55-16.1-24.06-34.23-35-52-1.84-3.15-3.64-6.34-5.56-9.44a15.84,15.84,0,0,1-1.48-14.82c1.75-4.22.48-4.74-3.35-4.72-20.32.11-40.64,0-61,.1-3.09,0-6.19.27-7.23-3.61-1-3.58,1.76-4.94,4-6.65,9-6.82,18.21-13.4,26.84-20.66,11.5-9.68,25.27-12.93,39.47-15.08C207,18.7,229.45,17,252,15.82c21.06-1.08,42.12-3.12,63.19-2.6,38.5.94,75.41,8.85,109.69,27.23,13.85,7.42,25.53,18,38.7,26.29,11.66,7.33,15.5,18.08,17.32,30.36C481.72,102.67,481.77,108.35,482.17,114ZM198.85,97.07c2.18,6.38,6.35,11.65,9.88,17.25,9.68,15.33,19.54,30.55,33,42.94,4.83,4.43,10.06,8.33,16.94,8.66,5.64.26,11.27.64,16.89.9,15.61.73,31.25.7,46.87,1.29,4.38.17,5.61-1,5.64-5.5A555.21,555.21,0,0,0,324.82,100c-1.1-8-2.29-16.08-5.21-23.74-1.53-4-3.66-6.58-8.74-6.37-7.78.32-15.6-.42-23.38-.63-29.26-.76-58.53-.87-87.8-1.17-8.1-.08-12.63,6-9.85,13.68A54.07,54.07,0,0,0,198.85,97.07ZM329.91,101c1.41,21,2.7,42.08,2.16,63.18,0,.34,0,.67,0,1-.05,1.77.62,2.78,2.56,2.89,3.64.21,7.26.69,10.89.83,15.77.61,31.56.4,47.33.73,25.75.55,51.51,1.33,77.28,1.39,2.64,0,3.66-.73,4.08-3.54A305,305,0,0,0,477.88,113c-.65-7.59-.74-15.27-2.93-22.63-1.79-6-5.59-10.63-12-11.24-14.7-1.38-29.45-2.2-44.18-3.17-11.27-.75-22.55-1.19-33.8-2.13-20.79-1.71-41.6-2.77-63.11-3.19,3,5.17,4.06,10.54,5.21,15.86C328.08,91.32,329,96.17,329.91,101ZM446.44,67.7c-.19-.75-.16-1.18-.36-1.34-1.55-1.25-3.11-2.5-4.74-3.66-37-26.38-78.67-38.18-123.74-39.18-2.57-.06-3.71.09-2.89,3.16C317.44,36.8,320,47,322.46,57.17c.57,2.36,1.62,3.1,4,3.19,12,.47,23.95,1,35.91,1.79C390.31,63.92,418.2,65.83,446.44,67.7ZM259.61,58.21v1.68c16.14,0,32.28-.14,48.42.09,3.82.06,4.49-.78,3.49-4.41q-3.87-13.92-7-28c-.75-3.31-2.19-4.05-5.43-4-21.46.5-42.86,2-64.28,3.14A20.06,20.06,0,0,0,219,34.76c-4.64,6-7.83,12.72-10.9,19.57-1.33,3-.93,4,2.6,3.94C227,58.13,243.3,58.21,259.61,58.21ZM135.87,57.3c1,.52,1.25.79,1.53.79,18.46,0,36.93,0,55.39.16,2.63,0,3.32-1.4,4.1-3.38a119.09,119.09,0,0,1,11.05-22.31c.62-.93,1.88-2,.89-3-.62-.61-2.2-.48-3.3-.34-7.25.94-14.46,2.19-21.73,2.92C164.55,34.06,150,44.73,135.87,57.3Z" transform="translate(-36.51 -9.04)"/><path class="cls-2" d="M477.88,113a305,305,0,0,1-3.67,54.49c-.42,2.81-1.44,3.55-4.08,3.54-25.77-.06-51.53-.84-77.28-1.39-15.77-.33-31.56-.12-47.33-.73-3.63-.14-7.25-.62-10.89-.83-1.94-.11-2.61-1.12-2.56-2.89,0-.33,0-.66,0-1,.54-21.1-.75-42.14-2.16-63.18,13.3-.28,26.5,1.43,39.74,2.21,14.52.86,29,2.49,43.5,3.78,8.74.77,17.48,1.46,26.21,2.3C452.2,110.54,464.93,112.93,477.88,113Z" transform="translate(-36.51 -9.04)"/><path class="cls-2" d="M324.82,100a555.21,555.21,0,0,1,3.29,62.64c0,4.46-1.26,5.67-5.64,5.5-15.62-.59-31.26-.56-46.87-1.29-5.62-.26-11.25-.64-16.89-.9-6.88-.33-12.11-4.23-16.94-8.66-13.5-12.39-23.36-27.61-33-42.94-3.53-5.6-7.7-10.87-9.88-17.25,18.94.4,37.86,0,56.81.58C278.72,98.32,301.75,99.63,324.82,100Z" transform="translate(-36.51 -9.04)"/><path class="cls-1" d="M477.88,113c-12.95-.07-25.68-2.46-38.52-3.7-8.73-.84-17.47-1.53-26.21-2.3-14.5-1.29-29-2.92-43.5-3.78-13.24-.78-26.44-2.49-39.74-2.21-1-4.84-1.83-9.69-2.87-14.51-1.15-5.32-2.18-10.69-5.21-15.86,21.51.42,42.32,1.48,63.11,3.19,11.25.94,22.53,1.38,33.8,2.13,14.73,1,29.48,1.79,44.18,3.17,6.44.61,10.24,5.21,12,11.24C477.14,97.73,477.23,105.41,477.88,113Z" transform="translate(-36.51 -9.04)"/><path class="cls-1" d="M324.82,100c-23.07-.34-46.1-1.65-69.16-2.32-18.95-.55-37.87-.18-56.81-.58a54.07,54.07,0,0,1-9-15.33c-2.78-7.63,1.75-13.76,9.85-13.68,29.27.3,58.54.41,87.8,1.17,7.78.21,15.6,1,23.38.63,5.08-.21,7.21,2.33,8.74,6.37C322.53,83.89,323.72,91.92,324.82,100Z" transform="translate(-36.51 -9.04)"/></svg>