<?xml version="1.0" encoding="utf-8"?>
<!-- Generator: Adobe Illustrator 23.0.6, SVG Export Plug-In . SVG Version: 6.00 Build 0)  -->
<svg version="1.1" id="carshadow_xA0_Image_1_" xmlns="http://www.w3.org/2000/svg" xmlns:xlink="http://www.w3.org/1999/xlink"
	 x="0px" y="0px" viewBox="0 0 642 64" style="enable-background:new 0 0 642 64;" xml:space="preserve">
<style type="text/css">
	.st0{fill:#34505B;}
</style>
<g>
	<path class="st0" d="M321.51,55.01c-60.99,0.05-121.95-1.11-182.86-4.22c-35.92-1.83-71.84-3.87-107.4-9.82
		c-5.25-0.88-10.48-1.9-15.47-3.82c-2.25-0.87-5.57-1.34-5.45-4.26c0.11-2.79,3.35-3.32,5.66-4.13c8.85-3.1,18.08-4.48,27.31-5.66
		c50.13-6.42,100.55-8.46,151-10.13c61.79-2.06,123.6-2.47,185.41-1.62c53.14,0.74,106.27,2.21,159.3,5.9
		c27.39,1.91,54.83,3.7,81.75,9.7c2.59,0.58,5.15,1.37,7.62,2.31c1.81,0.69,4.28,1.32,4.35,3.6c0.07,2.63-2.64,3.19-4.56,3.95
		c-5.28,2.09-10.84,3.2-16.41,4.15c-29.6,5.05-59.51,7.11-89.43,8.84C455.46,53.68,388.5,55.02,321.51,55.01z"/>
</g>
</svg>
