<svg id="cloudclose_Image" data-name="cloudclose Image" xmlns="http://www.w3.org/2000/svg" viewBox="0 0 3686.2 1032.61"><defs><style>.cls-1{fill:#fdfdfd;}.cls-2{fill:#e4dffa;}</style></defs><title>cloudclose</title><path class="cls-1" d="M1203.42,428.07a34.15,34.15,0,0,1,15.25,7.34,7.42,7.42,0,0,0,.42,2.41c4.86,8.56,5.61,17.85,5.51,27.47-.27,24.69-23.72,48.61-48.38,48.45-11.09-.08-22.23.48-33.23-.22-8.19-.52-16.19.56-24.27.33-2.61-.08-4,.63-2.2,3.48,5.65,8.88,7.18,18.68,7.08,29.07-.25,26.5-22.92,49.46-49.34,49.4-9.41,0-18.82-.89-28.25,0-4.82.47-9.86-1.59-14.32-.71-11.11,2.19-22.12-1.09-33.2.56-6.16.92-12.86-1.28-18.79-.43-11.15,1.58-22.12-1-33.19.46a51.11,51.11,0,0,1-33-6.86C895.94,566,904.63,529.3,931,514.64c9.44-5.25,19.6-7.16,31.13-6.56-11.44-19.43-12.74-38.78-1.11-57.9,6.8-11.18,16.62-18.89,29.59-22.1,1,1.18,1.52.57,1.93-.5a3.71,3.71,0,0,1,3-.64c.9,1.28,1.5.81,2-.34a33,33,0,0,1,15.93.11c.5,1.1,1.11,1.5,2,.31l6.14-.06c.88,1.26,1.48.81,2-.32a33,33,0,0,1,15.93,0c.49,1.13,1.1,1.54,2,.32h6.14c.87,1.23,1.47.79,2-.31a32.9,32.9,0,0,1,15.93-.05c.49,1.15,1.1,1.58,2,.33l6.14.06c.85,1.2,1.45.77,2-.3a33,33,0,0,1,15.93-.13c.48,1.18,1.09,1.62,2,.33h7.1c.89,1.3,1.49.84,2-.32a33,33,0,0,1,15.93.11c.5,1.1,1.11,1.5,2,.31l6.14-.06c.88,1.26,1.48.81,2-.32a33,33,0,0,1,15.93,0c.49,1.13,1.1,1.54,2,.32h6.14c.86,1.22,1.46.8,2-.31a32.9,32.9,0,0,1,15.93-.05c.49,1.15,1.1,1.58,2,.33l6.14.06c.85,1.19,1.45.78,2-.3a33,33,0,0,1,15.93-.13c.48,1.17,1.08,1.63,2,.34a3.8,3.8,0,0,1,3,.64C1201.88,428.68,1202.42,429.26,1203.42,428.07Z" transform="translate(221.96 1.91)"/><path class="cls-1" d="M2710.71,612.9c5.46-24.32,31.22-40.88,57.84-37,3.52.51,6.9,0,10.33.05,15,.08,30.08-1.18,45.1.43a26.46,26.46,0,0,0,4.45,0c1-.07,2-.54,2.93-.52,15,.35,30.09-1.1,45.09.6a29.73,29.73,0,0,0,5.43-.24c13.75-1,27.53-2,41.18.64a37.18,37.18,0,0,1,17.42,8.14c-.19,2,.9,3.5,1.68,5.14a47.54,47.54,0,0,1,4.34,18.76,51.34,51.34,0,0,1-9.3,32.43c-2.3,3.28-1.21,3.84,2.21,4.65,5.21,1.23,10.34.47,15.19-.59,4.11-.91,2.86,1.5,3.31,3.18a30,30,0,0,1-6.85,11.26c-.7.1-1.34.47-1.13,1.19.29,1,1.22.79,2,.63,9.59,2,19.15-1.43,28.76,0,8.7,1.26,16.83,3.82,23.77,9.44-.17,1.59.63,2.89,1.24,4.26,6.24,14.07,6.39,28.18.73,42.52-6.62,16.8-25.39,30.05-43.44,31.2-8.42.54-16.69-2.1-25.1-.21-8.62,1.94-17.3-1.82-26,0-9,1.88-17.95-1.87-27,0-8.63,1.76-17.32-1.81-26.08,0s-17.33-1.89-26.1-.09a32.25,32.25,0,0,1-7.79.64c-8.68-.36-16.52-3.28-24.34-6.51-12.66-16-12.65-41.72,0-59.71.93-1.31,1.9-2.58,3.55-4.83-8.92-.38-16.79,2.6-24.61.45-.3-5.15,3.36-8.48,5.69-12.43.65-1.1,1.72-2.3.83-3.67-.74-1.14-2.11-.87-3.21-.64a66.29,66.29,0,0,1-17.17,1c-3.29-.18-6.39-1.6-9.84-.86-7.31,1.58-14.62,1.17-22.07.12-5.39-.77-9.69-4.54-15.17-4.47a35,35,0,0,1-7.87-16c1.25-1,.61-1.55-.52-2-.14-.69-.29-1.37-.44-2.06,1.17-.88.71-1.46-.35-1.94a7.82,7.82,0,0,1-.6-5.08,5.05,5.05,0,0,0,0-5.8,8,8,0,0,1,.48-5c1.57-.73,1.71-1.72.52-3l.45-2C2711.33,614.46,2712,613.92,2710.71,612.9Z" transform="translate(221.96 1.91)"/><path class="cls-1" d="M2349.32,591.37c14.89-2.76,28.78-.71,41.16,8.59a18.21,18.21,0,0,0,.82,3.33c6.56,14.12,7.12,28.28,1.33,42.89-6.79,17.15-24.49,30.86-43.83,31.82-8.4.42-16.65-2-25.08-.24s-17-1.67-25.55,0-17.32-1.81-26,0a43.65,43.65,0,0,1-8.36,1,73.45,73.45,0,0,1-32.24-7,44.18,44.18,0,0,1-9.41-20.59c-.8-4.26-2.35-6.08-6.73-5.54-1.57.2-3.24-.45-4.87-.71-3.64-3-3.93-7.53-4.88-11.63-.63-2.71-1.94-3.26-4.42-3.57a116.84,116.84,0,0,0-25.7,0c-2.61.25-3.73,1.09-4.12,3.8-4.17,29.31-31.49,50.28-63.7,43.42-5.12-1.09-9.36-4.17-14.43-5.08-6.87-8.73-9.55-18.87-9.48-29.73a9.52,9.52,0,0,0-4-8.35c-23.57-19.46-25.48-55-4.25-76.48a20.4,20.4,0,0,1,1.91-1.54c1.21,0,1.94-.47,2-1.75a5.16,5.16,0,0,1,2.88-2.31c1.17.14,2-.21,2.14-1.5a4,4,0,0,1,2.66-1.58,44.39,44.39,0,0,0,12.35-5l2.07-.53c1.23,1.17,2.22,1,2.93-.56l2.1-.35a25.72,25.72,0,0,0,12.75,0l2.08.35a7.64,7.64,0,0,0,9.07.05,3.65,3.65,0,0,1,3.08-.47,20.51,20.51,0,0,0,11.77,0l2.08.32c1.08,2,2.46,1.73,4,.53h2.16c1.52,1.22,2.9,1.45,3.95-.58l2.09-.29a20.51,20.51,0,0,0,11.77,0l2.07.29c1.05,2,2.44,1.78,4,.58h2.16c1.5,1.21,2.87,1.43,3.95-.54l2.09-.31a20.59,20.59,0,0,0,11.77,0l2.08.25c3.31,2.46,6.67,2.22,10.06.15l2.1-.35a25.72,25.72,0,0,0,12.75,0l2.08.35a7.64,7.64,0,0,0,9.07.05,3.65,3.65,0,0,1,3.08-.47,20.51,20.51,0,0,0,11.77,0l2.08.32c1.08,2,2.46,1.74,4,.53h2.16c1.52,1.21,2.9,1.44,3.95-.59l2.09-.29a20.51,20.51,0,0,0,11.77,0l2.07.29c1.05,2,2.44,1.78,4,.58h2.16c1.5,1.22,2.87,1.43,3.95-.54l2.09-.31a20.59,20.59,0,0,0,11.77,0l2.08.25c4.27,2.41,9,3.13,13.74,4.06a11.12,11.12,0,0,1,5.26,2.79,39.49,39.49,0,0,1,8.9,21.91c.31,3.18,1.58,4.11,4.31,3.65,4.65-.79,8.21.36,10,5.07.19.68.37,1.37.56,2.06-1.19,1.25-1.1,2.25.58,2.93l.36,2.08C2347.59,588.66,2345.93,590.64,2349.32,591.37Z" transform="translate(221.96 1.91)"/><path class="cls-1" d="M393.36,189.88c-21.66-27.63-5.23-71.68,29.83-80.15,8.89-2.14,17.75-1.67,27.7.23-13.48-19.16-16.25-38.63-5.64-58.85,6.69-12.78,17.14-21.39,31.36-25,1,1.17,1.51.56,1.93-.49a3.83,3.83,0,0,1,3-.64c.88,1.26,1.48.78,2-.32a31.16,31.16,0,0,1,14.93,0c.5,1.13,1.11,1.57,2,.31l7.13,0c.86,1.24,1.46.78,2-.3a32.78,32.78,0,0,1,15.93.08c.5,1,1.11,1.45,1.95.3l6.17,0c.85,1.2,1.45.76,1.95-.3a32.78,32.78,0,0,1,15.93,0c.5,1.08,1.11,1.49,2,.3l6.17,0c.84,1.17,1.43.74,1.93-.3a32.94,32.94,0,0,1,15.94-.07c.5,1.1,1.1,1.53,2,.31l7.12,0c.88,1.26,1.48.8,2-.31a31.16,31.16,0,0,1,14.93,0c.5,1.13,1.11,1.56,2,.31l7.12,0c.86,1.23,1.47.79,2-.3a32.78,32.78,0,0,1,15.93.08c.5,1,1.11,1.45,1.95.3l6.17,0c.85,1.2,1.45.76,1.95-.3a126.84,126.84,0,0,1,31.93,0c.49,1.07,1.08,1.51,2,.34a37.67,37.67,0,0,1,19,7.87,55.33,55.33,0,0,1,6.11,37.4c-4.18,23-25.91,41.31-49.31,41.57-15.75.18-31.48-1.38-47.22-.07-4.33.37-8.57-2-12.84-.85-5.29,1.38-10.6.51-15.89.88-2.51.18-5.61-2.86-7.29.07-1.34,2.36,2.12,4.11,3.26,6.21,11.48,21.22,8,49.27-11.41,65.89-10,8.53-21.7,12.33-34.33,12.48-6.63.07-13.34-1.63-20.11-.67-2.28.33-4.66,1.09-6.84.72a64.85,64.85,0,0,0-20.14-.7c-2,.27-4,1.05-5.85.71a60.08,60.08,0,0,0-20.15-.79c-2.26.34-4.41,1.39-6.85.93-5.66-1.06-11.25-1.92-17.15-1.08-3.3.48-6.66,1.15-10.28.83C408.75,195.7,401.11,192.74,393.36,189.88Z" transform="translate(221.96 1.91)"/><path class="cls-1" d="M298.4,528.14l2.07.51c1.51,1.79,3.51,2.09,5.68,1.86A24.43,24.43,0,0,1,316.44,536c.57,1.37,1.13,2.75,1.72,4.11,4.66,10.74,6.57,21.83,3.94,33.39-5.72,25.25-26.05,41.82-52,41.08-9.11-.27-18.14.25-27.21.24a19.53,19.53,0,0,1-4.47-.22c-4.61-1.13-9.12-.79-13.78-.1a38,38,0,0,1-14.37-.26,24.64,24.64,0,0,0-8.43-.26c-13.83,1.53-27.73-.65-41.56.76-.62.07-1.28-.38-1.93-.44-6.85-.71-12.9-3.81-19.13-6.38-12.42-17.91-11.61-36.5-2.44-55.8-7.39.37-14.43.44-21.32-1.33.32-4.24,2.27-7.93,4.15-11.59,1.31-2.57.41-3.32-2.05-3.35-5.79-.08-11.87-1.4-17.27-.62-11,1.58-21.73-.87-32.59.5a58.4,58.4,0,0,1-33.28-5.89c-21.56-27.48-5.38-71.41,29.5-80,2.58-.64,5.29-1.47,7.86-1.25,14.22,1.19,28.49-1.42,42.68.75a18.46,18.46,0,0,0,4.45-.12c2-.19,4-.92,5.93-.72,14,1.45,28.16-1.4,42.18.85a18,18,0,0,0,4.45-.14c2-.19,4-.93,5.93-.72,14.36,1.57,28.86-1.8,43.13,1.21a39.85,39.85,0,0,1,17.9,8.36c-.17,1.59.71,2.85,1.24,4.24,2.7,7.15,4.88,14.41,4.8,22.16a53.37,53.37,0,0,1-4.38,20.22c-2.43,5.78-2.19,6,3.88,6.16,3.46.07,6.89-.23,10.38.64,2.49.63,3.23,1.88,3.45,4a26,26,0,0,1-4.31,10.31c-.73.25-1.13.79-.71,1.46s1.07.63,1.56-.06l2.23-.12a11.25,11.25,0,0,0,8.8,0,5.44,5.44,0,0,1,4.06.54c.79,1.53,1.79,1.59,3,.41h3.17c1.16,1.21,2.15,1.12,2.94-.4a5.53,5.53,0,0,1,4.08-.54,11.22,11.22,0,0,0,8.79,0,5.52,5.52,0,0,1,4.06.5C296.19,529.14,297.19,529.23,298.4,528.14Z" transform="translate(221.96 1.91)"/><path class="cls-1" d="M1671.54,837.68a32.9,32.9,0,0,1,15.93.1c.51,1,1.11,1.43,2,.3l6.17-.06c.85,1.2,1.45.75,2-.31a32.9,32.9,0,0,1,15.93,0c.49,1,1.09,1.47,2,.33a38.24,38.24,0,0,1,19.06,7.95c3.67,7.29,6.46,14.86,7,23.08a52.33,52.33,0,0,1-31.64,51.74c-2.29,1-2.94,2.59-3.44,4.92-4.8,22.41-25.62,39.76-48.34,40.17-10.58.19-20.35-1.88-29.48-7.15-3.63-4.23-5.45-9.35-7-14.56-.55-1.84-1.12-3.41-3.06-4.09-.74-1.66-1.75-1.74-3-.48l-4.13,0a16.25,16.25,0,0,1-5.32-9.87c-.88-5-4.1-5.79-8.16-5.94-3.67-.14-7.14,1.14-10.85,1.09-9.06-.14-18.08-.66-27.19-.37-10,.33-20.1,0-30.16.22-4.27.08-8.71-1.45-12.82-.76-13.59,2.3-26.3.47-38.33-6.22a38.26,38.26,0,0,1-7.85-19.06c1.15-.85.69-1.44-.32-1.93a33.1,33.1,0,0,1,0-16c1-.49,1.27-1.09.33-1.9,2.74-19.9,21.09-38.25,40.81-40.83.86,1.14,1.44.68,1.92-.34a32.94,32.94,0,0,1,15.94,0c.5,1.08,1.11,1.5,2,.31l6.18.06c.83,1.14,1.42.72,1.92-.29a33.06,33.06,0,0,1,15.94-.12c.5,1.11,1.11,1.53,2,.31h7.14c.86,1.23,1.46.79,2-.3a32.9,32.9,0,0,1,15.93.1c.51,1,1.11,1.43,2,.3l6.17-.06c.85,1.2,1.45.75,2-.31a32.9,32.9,0,0,1,15.93,0c.51,1.06,1.11,1.46,2,.3h6.17c.84,1.17,1.43.74,1.93-.3a32.94,32.94,0,0,1,15.94,0c.5,1.09,1.11,1.5,2,.31l6.18.06c.83,1.14,1.42.72,1.92-.29a33.06,33.06,0,0,1,15.94-.12c.5,1.11,1.11,1.54,2,.31h7.14C1670.44,839.21,1671,838.76,1671.54,837.68Z" transform="translate(221.96 1.91)"/><path class="cls-1" d="M3240.7,261.73a.56.56,0,0,1,.78.43c4.47,6.12,6.45,13.2,7.84,20.51.27,1.42.2,3,1.83,3.83,3.87,2,12.29,9,13.84,11.35.08.69.17,1.38.25,2.08a1.88,1.88,0,0,0,.08,3c2.2,2.16,11,2.4,14.21.47l2.07-.34a26.55,26.55,0,0,0,13.82,0l2.06.33c2.66,2.34,5.35,2.21,8.06.08l2.06-.39a26.38,26.38,0,0,0,13.83-.05l2.05.28,17.35,6.36a.46.46,0,0,1,.66.38c.18,1.49,1.11,1.85,2.43,1.61h.39l.16.35a16.45,16.45,0,0,0,.87,3.33c3.76,7.59,5.16,15.54,5.31,24.06.5,28.36-24.31,52.52-53.56,51-11.26-.57-22.41.62-33.68-.2a330.86,330.86,0,0,0-34.22-.19c-6.12.19-12.12.7-18.28,0a36.61,36.61,0,0,0-13.88.64,14.18,14.18,0,0,1-6.94,0,34.38,34.38,0,0,0-14.38-.64c-11.4,1.88-22.72-1-34.2.5-9.75,1.24-19.21-2.57-27.76-7.7a.46.46,0,0,1-.39-.66c-1.78-6.65-5.52-12.6-6.55-19.58-.73-4.89.81-9.89-1.06-14.65l.3-2.06,6.29-17.34a.49.49,0,0,1,.39-.69c1.51-.18,1.83-1.12,1.56-2.45a9.85,9.85,0,0,1,3.49-4.54,9.07,9.07,0,0,0,5.79-5.77,19,19,0,0,1,7.59-5.41l17.37-6.34,2.06-.28c3.75.89,7.53,2.15,11-.73.26-1.15.51-2.3.76-3.44q2.09-1.17.46-2.93c.17-.69.33-1.38.49-2.07a17.6,17.6,0,0,0,2.86-8.68,11.49,11.49,0,0,1,2.66-5.34c2.08-.56,2.43-2.26,2.63-4a5,5,0,0,1,2.32-3,11.85,11.85,0,0,0,6.72-6.72,5,5,0,0,1,2.95-2.32c1.8-.19,3.5-.54,4.05-2.64l.81-.42,18.21-6.09a4,4,0,0,1,3.14-.35,10.76,10.76,0,0,0,7.68,0,6,6,0,0,1,4.11.46c.75,1.37,1.73,1.49,2.9.51l2.1.49A91.62,91.62,0,0,0,3240.7,261.73Z" transform="translate(221.96 1.91)"/><path class="cls-1" d="M1581.18,239.79c-.14-.69-.27-1.38-.41-2.07,1.08-1.93-.27-1.8-1.5-1.77l-9.84-.33c-2.87-2.66-3.45-6.32-4-9.86-.75-4.47-2.72-7-7.59-5.94-12.46,2.6-25-.43-37.58.56-10.39.82-21.08-.46-31.64.41a15.87,15.87,0,0,1-2.94-.41c-7-.84-13.32-3.77-20-5.58-18-22.23-10.53-60.51,14.53-74.15,1.23.25,2.13-.05,2.35-1.44a5.77,5.77,0,0,1,3.36-1.69c1.21.36,2.24.31,2.65-1.16a6.86,6.86,0,0,1,4-1.38c1.11,1.29,1.62.63,2-.6l2-.42c.92,1.25,1.52.81,2-.38a5.49,5.49,0,0,1,4-.59,15.36,15.36,0,0,0,10.85,0,3.78,3.78,0,0,1,3,.43c.73,1.77,1.75,1.77,3,.48l3.1,0c.85,1.22,1.48,1,2-.27a5.42,5.42,0,0,1,4-.64,15.22,15.22,0,0,0,10.84,0,5.44,5.44,0,0,1,4,.63c.5,1.23,1.14,1.51,2,.29h3.1c1.23,1.3,2.24,1.27,3-.48a3.84,3.84,0,0,1,3-.43,15.36,15.36,0,0,0,10.85,0,5.47,5.47,0,0,1,4,.59c.8,1.63,1.81,1.62,3,.37h2.11c1.2,1.27,2.21,1.27,3-.42a3.72,3.72,0,0,1,3.06-.48,18.67,18.67,0,0,0,11.82,0,3.69,3.69,0,0,1,3,.47c.77,1.7,1.79,1.7,3,.43h2.12c1.16,1.25,2.16,1.25,3-.37a5.49,5.49,0,0,1,4-.59,15.36,15.36,0,0,0,10.85,0,3.86,3.86,0,0,1,3,.42c.74,1.77,1.75,1.79,3,.49l3.09,0c.85,1.23,1.48.94,2-.27a5.42,5.42,0,0,1,4-.64,15.22,15.22,0,0,0,10.84,0,5.4,5.4,0,0,1,4,.64c.5,1.23,1.14,1.49,2,.27l3.1,0c1.23,1.3,2.24,1.27,3-.48a3.84,3.84,0,0,1,3-.43,15.36,15.36,0,0,0,10.85,0,5.47,5.47,0,0,1,4,.59c.45,1.2,1,1.63,2,.39l2,.41c.32,1.27.86,1.85,2,.6a6.78,6.78,0,0,1,4,1.39c.4,1.46,1.43,1.51,2.64,1.16a5.75,5.75,0,0,1,3.37,1.68c.21,1.39,1.1,1.7,2.33,1.47q.56-.17.66.39c4.55,7.66,7.75,15.93,7.9,24.8.37,21.55-8.7,38.16-27.7,48.75a11.06,11.06,0,0,0-6.21,8.79c-3.82,24.51-23.61,41.72-48.2,43.39a49.8,49.8,0,0,1-30.67-8,14,14,0,0,1-3.49-6.24c.44-1.27.41-2.34-1.18-2.74l-.81-2.28c.45-1.12.51-2.12-.79-2.74-.19-.69-.39-1.37-.58-2.06C1582.92,241.49,1582.83,240.49,1581.18,239.79Z" transform="translate(221.96 1.91)"/><path class="cls-1" d="M717.15,864.51l1.36.26a2,2,0,0,0,2.64.73,4.42,4.42,0,0,1,3.32,1.16c.51,1.16,1.41,1.28,2.49,1a24.78,24.78,0,0,1,9.51,5.44c2.61,13,4.81,15.4,14.25,15.68,2.92,3.53,4.06,7.88,5.53,12.08.47,1.35.34,3.26,2.42,3.2,5.78-.14,11.35,1.87,17.29.91,13.94-2.24,27,.12,38.55,8.88,1.66,4.68,3.89,9.24,4.87,14.06,3.41,16.83.54,32.41-10.81,45.79-9.31,11-20.92,17.74-35.63,18.16-6,.17-12.21-1.38-17.82-.59-11.31,1.59-22.46-.86-33.68.48-6.38.76-13.2-1.3-19.3-.45-11.32,1.57-22.47-1.16-33.69.43-6,.86-12.53-1.27-18.3-.45-11.14,1.58-22.13-.91-33.18.5-11.29,1.44-22.11-1.07-32.37-6-19.92-25.2-7.87-65.8,23.14-78,7.23-2.83,14.77-4.49,22.45-3.51a95.31,95.31,0,0,0,21.29-.06c2.9-.28,3.85-1.29,4.65-3.86,4.75-15.23,14-26.53,29-32.74a1.79,1.79,0,0,0,2.39-.94,4.58,4.58,0,0,1,3.37-1.17c1.06.39,2,.36,2.62-.75l3.08-.68c.79.94,1.38.62,1.88-.29a32.22,32.22,0,0,1,15,0C714.52,865.12,715.82,864.88,717.15,864.51Z" transform="translate(221.96 1.91)"/><path class="cls-1" d="M-217.94,851.07c6.5-19.34,27.71-33.61,48.63-32.73,3-1.08,2.35-2.74.7-4.55a31.49,31.49,0,0,1,.1-15c.95-.49,1.25-1.09.31-1.89a38.91,38.91,0,0,1,7.12-18.08c1.3-.17,1.66-1,1.49-2.18a2.28,2.28,0,0,1,1.35-1.83c1.29-.06,1.8-.79,1.72-2a13.1,13.1,0,0,1,5-5,1.72,1.72,0,0,0,2.11-1.78,2,2,0,0,1,1.7-1.31c1.25.2,2.11-.18,2.26-1.57a.54.54,0,0,1,.75-.43,65.87,65.87,0,0,0,14.28-6.15l2.06-.48c1.24,1.16,2.24,1,2.94-.57a3.77,3.77,0,0,1,3.07-.4,17,17,0,0,0,10.79,0l2.08.26c2.49,2.34,5.61,2.12,8.68,2.11l2.32.81c.42,1.52,1.47,1.57,2.71,1.14a11.18,11.18,0,0,1,5.28,2.79c1.8,3.66,4.9,6.4,6.29,10.47,2.51,7.36,2.91,14.82,2.78,22.44-.12,6.91.33,7.3,7.49,7.65s7.2.39,7.46,7.16c0,1-.09,2,.76,2.76-.08.69-.17,1.38-.25,2.07-1.56.34-1.61,1.52-1.39,2.71.18.94.75,1.47,1.75.76,11.45-.19,22,2.65,31.11,9.78-.17,1.58.72,2.85,1.23,4.25,3.55,9.72,5.46,19.4,4.1,30.09-3,23.54-27,45.09-51,43.51a164.33,164.33,0,0,0-24.71-.14c-5.26.44-10.87-1.32-15.78-.56-10.62,1.64-21.1-.73-31.63.53-9.51,1.14-19.1-1.08-28.7,0-11,1.3-21.41-1.2-31.31-6A32,32,0,0,1-219,886.6c.57-1.16.65-2.19-.77-2.81-.17-.68-.34-1.37-.5-2,1.18-1.26,1.07-2.26-.6-3a5.94,5.94,0,0,1-.47-4,10.12,10.12,0,0,0,0-8.87,6.16,6.16,0,0,1,.42-4c1.79-.65,1.88-1.66.63-3,.16-.67.31-1.35.47-2C-217.82,855.38-217.59,853.32-217.94,851.07Z" transform="translate(221.96 1.91)"/><path class="cls-1" d="M2491.59,112.79c-20.67-27.32-7.61-73.45,33.07-80.72,8-1.43,12.53-4,17.07-11C2563-11.7,2612.5-8.84,2630.61,25.9c2.11,4,4.26,5.22,8.69,5.16,11.08-.14,21.36,2.88,30.17,10a39.94,39.94,0,0,0,1.37,5.27,55,55,0,0,1,3.86,27.13c-2.45,24.48-24.94,45.78-49.83,45.42-9.42-.14-18.82-.7-28.25-.08-7.39.49-14.77-.57-22.25-.19-11.2.56-22.49-.25-33.73.29-4,.19-7.81-1.71-11.87-.91a57.63,57.63,0,0,1-27.09-1.23C2498.18,115.74,2495.3,113.21,2491.59,112.79Z" transform="translate(221.96 1.91)"/><path class="cls-1" d="M-58.58,71.07a8.12,8.12,0,0,1,5,.5c.73,1.55,1.72,1.68,2.94.53l2.06.46c.4,1.11,1,1.7,2,.51a6,6,0,0,1,4,1.39c.47,1.39,1.47,1.44,2.65,1.06a20.58,20.58,0,0,1,8.54,4.91,8,8,0,0,0,.43,2.4c4.48,8.46,5.65,17.47,5.53,27-.32,25.49-23.71,48.95-49.31,49-9.24,0-18.45-.55-27.72-.3-9.53.25-19.13-.41-28.69.34-4.38.34-8.67-1.92-12.83-.94-11.19,2.66-22.39-1-33.62.74-10.8,1.71-21-1.87-30.89-5.88-11.31-15.63-12.86-32.65-5.66-50.08C-207.2,86-194.59,75.36-176.41,72c.89,1.19,1.47.72,1.95-.35a10.24,10.24,0,0,1,6.06-.63,3.64,3.64,0,0,0,4.82,0,8.12,8.12,0,0,1,5.05.5c.76,1.57,1.75,1.68,3,.47h5.16c.84,1.18,1.45.78,1.95-.3a10.35,10.35,0,0,1,6.07-.66,3.63,3.63,0,0,0,4.81,0,10.37,10.37,0,0,1,6.05.64c.49,1.11,1.1,1.51,2,.31l5.16,0c1.19,1.2,2.17,1.07,2.94-.46a10.47,10.47,0,0,1,6.06-.55,2.5,2.5,0,0,0,3.82,0,10.36,10.36,0,0,1,6,.6c.49,1.13,1.1,1.55,2,.32h6.13c.88,1.25,1.48.81,2-.32a10.39,10.39,0,0,1,6.06-.6,2.5,2.5,0,0,0,3.82,0,10.44,10.44,0,0,1,6,.56c.48,1.17,1.09,1.6,2,.33l6.13.06c.86,1.22,1.46.79,2-.31a10.32,10.32,0,0,1,6.06-.63A3.64,3.64,0,0,0-58.58,71.07Z" transform="translate(221.96 1.91)"/><path class="cls-1" d="M3346.77,1007.79c-4.45-9.69-10.69-17.81-20.25-23-1.68-5.14-4.4-9.34-9.93-11a38.32,38.32,0,0,1-7.83-19.06c1.14-.85.68-1.44-.32-1.93-6.43-29.25,18.43-59.91,49.76-59.54,13.05.15,26.2-1.7,39.25.65,2.52.45,5.27-.3,7.91-.58,13.58-1.43,26.14,1,37.12,9.62-.21,1.78.79,3.18,1.42,4.71,9.2,22.45,3.61,46.35-14.73,61.83-2.64,2.23-4.75,4.29-5.64,7.76-5.47,21.31-26,36.71-48.08,37.56C3365.24,1015.2,3355.8,1012.3,3346.77,1007.79Z" transform="translate(221.96 1.91)"/><path class="cls-2" d="M913.49,588.83a51.11,51.11,0,0,0,33,6.86c11.07-1.42,22,1.12,33.19-.46,5.93-.85,12.63,1.35,18.79.43,11.08-1.65,22.09,1.63,33.2-.56,4.46-.88,9.5,1.18,14.32.71,9.43-.9,18.84,0,28.25,0,26.42.06,49.09-22.9,49.34-49.4.1-10.39-1.43-20.19-7.08-29.07-1.81-2.85-.41-3.56,2.2-3.48,8.08.23,16.08-.85,24.27-.33,11,.7,22.14.14,33.23.22,24.66.16,48.11-23.76,48.38-48.45.1-9.62-.65-18.91-5.51-27.47a7.42,7.42,0,0,1-.42-2.41c23.9,14.26,29.85,50.74,11.81,73.93-12.25,15.73-28.63,22.32-48.39,20.15a45.62,45.62,0,0,0-12.89,0,22.69,22.69,0,0,1-8,.31c-9.82-1.89-19.57.24-29.41.15-.95,1.94.79,3,1.48,4.36,9.85,19.17,9.46,38.13-3,55.75-12.58,17.83-30.51,24.45-52,21.22a18.91,18.91,0,0,0-7.42.08,8.67,8.67,0,0,1-2.46.36c-14.56-.77-29.17,1-43.71-.66a19.16,19.16,0,0,0-6,.21,48.48,48.48,0,0,1-17.4.3c-3.69-.62-7.24-.14-10.88,0-13.74.33-27.6,1.17-41.23-.1C934,610,921.73,602.21,913.49,588.83Z" transform="translate(221.96 1.91)"/><path class="cls-2" d="M393.36,189.88c7.75,2.86,15.39,5.82,23.82,6.57,3.62.32,7-.35,10.28-.83,5.9-.84,11.49,0,17.15,1.08,2.44.46,4.59-.59,6.85-.93a60.08,60.08,0,0,1,20.15.79c1.84.34,3.89-.44,5.85-.71a64.85,64.85,0,0,1,20.14.7c2.18.37,4.56-.39,6.84-.72,6.77-1,13.48.74,20.11.67,12.63-.15,24.38-3.95,34.33-12.48,19.41-16.62,22.89-44.67,11.41-65.89-1.14-2.1-4.6-3.85-3.26-6.21,1.68-2.93,4.78.11,7.29-.07,5.29-.37,10.6.5,15.89-.88,4.27-1.11,8.51,1.22,12.84.85,15.74-1.31,31.47.25,47.22.07,23.4-.26,45.13-18.57,49.31-41.57a55.33,55.33,0,0,0-6.11-37.4C712.29,43.44,721.54,70.25,714,92.48a51.53,51.53,0,0,1-49.87,35.46c-9.13-.13-18.26.37-27.44-.88-6.33-.87-12.9,1.93-19.37.7-11.73-2.24-23.57,2.72-35.46-1.08,4.29,7,8,13.76,9.76,21.46,8.42,37-22.52,69.85-59.87,63.48a37.76,37.76,0,0,0-7.88-.06c-15.22.51-30.46.95-45.67-.18a22.21,22.21,0,0,0-5.93.06c-5.87,1.12-43.63.76-48.59-.49C411,207.73,400.54,201.12,393.36,189.88Z" transform="translate(221.96 1.91)"/><path class="cls-2" d="M3113.75,382.8c8.55,5.13,18,8.94,27.76,7.7,11.48-1.46,22.8,1.38,34.2-.5a34.38,34.38,0,0,1,14.38.64,14.18,14.18,0,0,0,6.94,0,36.61,36.61,0,0,1,13.88-.64c6.16.75,12.16.24,18.28,0a330.86,330.86,0,0,1,34.22.19c11.27.82,22.42-.37,33.68.2,29.25,1.51,54.06-22.65,53.56-51-.15-8.52-1.55-16.47-5.31-24.06a16.45,16.45,0,0,1-.87-3.33c25.86,15.56,30.21,55.15,8.43,78.05-12,12.65-26.92,18-44.27,16.09-4.67-.51-9.25-.94-13.87,0a8.68,8.68,0,0,1-3,.31c-13.54-2.07-27.2,1.36-40.74-.95-1.75-.3-3.62.12-5.44.21-15.07.69-30.13.65-45.19,0-2.67-.12-5.28,0-7.92.05-14.24.23-28.57,1.23-42.7,0C3134.32,404.46,3122.07,396.26,3113.75,382.8Z" transform="translate(221.96 1.91)"/><path class="cls-2" d="M584.6,985.78c10.26,4.88,21.08,7.39,32.37,6,11-1.41,22,1.08,33.18-.5,5.77-.82,12.28,1.31,18.3.45,11.22-1.59,22.37,1.14,33.69-.43,6.1-.85,12.92,1.21,19.3.45,11.22-1.34,22.37,1.11,33.68-.48,5.61-.79,11.85.76,17.82.59,14.71-.42,26.32-7.18,35.63-18.16,11.35-13.38,14.22-29,10.81-45.79-1-4.82-3.21-9.38-4.87-14.06,24,14.4,29.84,51.25,11.46,74.28-12.55,15.74-29.13,22.12-49,19.63-3.68-.46-7.24,0-10.84-.06-14.89-.12-29.8,1.21-44.65-.49-2.75-.32-5.29.65-7.9.59-14.89-.37-29.8,1.12-44.65-.6-2.92-.34-5.61.66-8.4.68-13.41.08-26.9,1-40.21-.19C605.22,1006.31,593,998.77,584.6,985.78Z" transform="translate(221.96 1.91)"/><path class="cls-2" d="M2800.54,742.81c7.82,3.23,15.66,6.15,24.34,6.51a32.25,32.25,0,0,0,7.79-.64c8.77-1.8,17.47,1.87,26.1.09s17.45,1.76,26.08,0c9.07-1.85,18.06,1.9,27,0,8.73-1.83,17.41,1.93,26,0,8.41-1.89,16.68.75,25.1.21,18.05-1.15,36.82-14.4,43.44-31.2,5.66-14.34,5.51-28.45-.73-42.52-.61-1.37-1.41-2.67-1.24-4.26,27.38,17.26,29.72,59.19,4.45,81.37-12.57,11-27.32,14.79-43.71,12.2a17.66,17.66,0,0,0-7.89.06,3.35,3.35,0,0,1-1,.15c-15-.22-30.14,1.07-45.17-.57-2.58-.28-4.95.56-7.4.53-15.06-.18-30.14,1.11-45.17-.52a21.1,21.1,0,0,0-5.94.33C2831.92,768.18,2810.15,759.07,2800.54,742.81Z" transform="translate(221.96 1.91)"/><path class="cls-2" d="M-212.33,899.76c9.9,4.82,20.31,7.32,31.31,6,9.6-1.13,19.19,1.09,28.7,0,10.53-1.26,21,1.11,31.63-.53,4.91-.76,10.52,1,15.78.56a164.33,164.33,0,0,1,24.71.14c24,1.58,48-20,51-43.51,1.36-10.69-.55-20.37-4.1-30.09-.51-1.4-1.4-2.67-1.23-4.25,31,19.79,28.63,68.94-4.25,87.49a51.34,51.34,0,0,1-33.75,6.2c-3.68-.57-7.25,0-10.84,0-14.89-.2-29.81,1.26-44.66-.52-2.76-.33-5.28.61-7.91.63-13.74.09-27.58,1-41.2-.22C-192,920.23-204.06,912.63-212.33,899.76Z" transform="translate(221.96 1.91)"/><path class="cls-2" d="M2491.59,112.79c3.71.42,6.59,2.95,10.09,3.93a57.63,57.63,0,0,0,27.09,1.23c4.06-.8,7.86,1.1,11.87.91,11.24-.54,22.53.27,33.73-.29,7.48-.38,14.86.68,22.25.19,9.43-.62,18.83-.06,28.25.08,24.89.36,47.38-20.94,49.83-45.42a55,55,0,0,0-3.86-27.13,39.94,39.94,0,0,1-1.37-5.27c27.12,17.32,29.14,59.37,3.84,81.32-12,10.42-26.1,14.3-41.77,12.24a37.69,37.69,0,0,0-11.37,0,44.32,44.32,0,0,1-15.41-.09,24.22,24.22,0,0,0-10.38.08,3.3,3.3,0,0,1-1,.13c-14.56-.74-29.15,1-43.68-.67a24.48,24.48,0,0,0-6.94.39C2522.6,137.79,2501.28,128.74,2491.59,112.79Z" transform="translate(221.96 1.91)"/><path class="cls-2" d="M139.26,607.92c6.23,2.57,12.28,5.67,19.13,6.38.65.06,1.31.51,1.93.44,13.83-1.41,27.73.77,41.56-.76a24.64,24.64,0,0,1,8.43.26,38,38,0,0,0,14.37.26c4.66-.69,9.17-1,13.78.1a19.53,19.53,0,0,0,4.47.22c9.07,0,18.1-.51,27.21-.24,25.91.74,46.24-15.83,52-41.08,2.63-11.56.72-22.65-3.94-33.39-.59-1.36-1.15-2.74-1.72-4.11,20.47,11.9,28.74,41.7,18,64.76a51.94,51.94,0,0,1-53.94,29.65c-4.34-.58-8.57-.93-12.87,0a8.59,8.59,0,0,1-3,.27c-13.55-1.8-27.19,1.25-40.73-.88-4.36-.69-8.58,1.21-12.89.93-10.44-.69-20.9.12-31.3-.17C162.63,630.1,148.75,622.6,139.26,607.92Z" transform="translate(221.96 1.91)"/><path class="cls-2" d="M-208.44,152.8c9.91,4,20.09,7.59,30.89,5.88,11.23-1.77,22.43,1.92,33.62-.74,4.16-1,8.45,1.28,12.83.94,9.56-.75,19.16-.09,28.69-.34,9.27-.25,18.48.32,27.72.3,25.6-.08,49-23.54,49.31-49,.12-9.51-1.05-18.52-5.53-27a8,8,0,0,1-.43-2.4C-11,92.53-3,122.47-14.09,145.37A51.92,51.92,0,0,1-67.86,174.5c-4.34-.57-8.57-.93-12.87.05a7.44,7.44,0,0,1-2.48.22c-13.7-1.75-27.51,1.32-41.2-.88-3.38-.54-6.62.8-9.91.74-12.43-.26-24.91.63-37.26-.18C-187.06,173.44-199.69,166-208.44,152.8Z" transform="translate(221.96 1.91)"/><path class="cls-2" d="M2231.56,671.8a73.45,73.45,0,0,0,32.24,7,43.65,43.65,0,0,0,8.36-1c8.69-1.81,17.37,1.74,26,0s17.11,1.71,25.55,0,16.68.66,25.08.24c19.34-1,37-14.67,43.83-31.82,5.79-14.61,5.23-28.77-1.33-42.89a18.21,18.21,0,0,1-.82-3.33c27.55,17.09,29.84,59.51,4.32,81.61-12.47,10.8-27.05,14.55-43.25,12-2.85-.44-5.58-.75-8.37.06a5,5,0,0,1-1.48.2c-14.88-.55-29.79,1.1-44.64-.67a22.22,22.22,0,0,0-5.93.37c-22.55,3.22-42.86-.4-58.09-19.27A20.17,20.17,0,0,1,2231.56,671.8Z" transform="translate(221.96 1.91)"/><path class="cls-2" d="M1588.6,258.79a49.8,49.8,0,0,0,30.67,8c24.59-1.67,44.38-18.88,48.2-43.39a11.06,11.06,0,0,1,6.21-8.79c19-10.59,28.07-27.2,27.7-48.75-.15-8.87-3.35-17.14-7.9-24.8,25.24,14,31.73,51.79,13,75.54-4.81,6.1-10.52,11.21-17.63,14.41-3.29,1.48-4.58,3.49-5,7a51.58,51.58,0,0,1-39,43.38A52.32,52.32,0,0,1,1589.66,261,14.3,14.3,0,0,1,1588.6,258.79Z" transform="translate(221.96 1.91)"/><path class="cls-2" d="M1628.59,958.79c9.13,5.27,18.9,7.34,29.48,7.15,22.72-.41,43.54-17.76,48.34-40.17.5-2.33,1.15-4,3.44-4.92a52.33,52.33,0,0,0,31.64-51.74c-.55-8.22-3.34-15.79-7-23.08,18.76,10.62,27.91,37.37,20.3,59.57C1750,919.52,1741,929.78,1727.64,936c-3.23,1.51-4.52,3.5-5.46,6.86-5.89,21-19.56,34.35-41,38.29-21.19,3.9-38.61-3.51-51.8-20.61A8.38,8.38,0,0,1,1628.59,958.79Z" transform="translate(221.96 1.91)"/><path class="cls-2" d="M3346.77,1007.79c9,4.51,18.47,7.41,28.68,7,22.12-.85,42.61-16.25,48.08-37.56.89-3.47,3-5.53,5.64-7.76,18.34-15.48,23.93-39.38,14.73-61.83-.63-1.53-1.63-2.93-1.42-4.71,25.38,15.85,29.45,55.28,7.51,77.65a61,61,0,0,0-13,19.28c-15.81,36.49-65.73,41.68-89.44,9.67A9.09,9.09,0,0,1,3346.77,1007.79Z" transform="translate(221.96 1.91)"/><path class="cls-2" d="M2093.3,671.91c5.07.91,9.31,4,14.43,5.08,32.21,6.86,59.53-14.11,63.7-43.42.39-2.71,1.51-3.55,4.12-3.8a116.84,116.84,0,0,1,25.7,0c2.48.31,3.79.86,4.42,3.57.95,4.1,1.24,8.61,4.88,11.63-6.68-1.09-13.22,1.2-19.86.8-3-.17-2.92,1.78-3.25,3.84-3.62,22.64-19.37,39.24-41.52,43.84C2125.81,697.61,2102.91,688.24,2093.3,671.91Z" transform="translate(221.96 1.91)"/><path class="cls-2" d="M1478.61,917.79c12,6.69,24.74,8.52,38.33,6.22,4.11-.69,8.55.84,12.82.76,10.06-.2,20.15.11,30.16-.22,9.11-.29,18.13.23,27.19.37,3.71.05,7.18-1.23,10.85-1.09,4.06.15,7.28.94,8.16,5.94a16.25,16.25,0,0,0,5.32,9.87,10.85,10.85,0,0,1-2.85.79c-14.23.05-28.46.24-42.68-.12-3.66-.09-7.24.13-10.87.2-13.39.28-26.89,1.09-40.19-.1C1499.42,939,1487,931.24,1478.61,917.79Z" transform="translate(221.96 1.91)"/><path class="cls-2" d="M1465.64,214.8c6.68,1.81,13,4.74,20,5.58a15.87,15.87,0,0,0,2.94.41c10.56-.87,21.25.41,31.64-.41,12.59-1,25.12,2,37.58-.56,4.87-1,6.84,1.47,7.59,5.94.59,3.54,1.17,7.2,4,9.86a18.69,18.69,0,0,1-4.35.81c-12.08-.52-24.16.07-36.23-.15-5.29-.09-10.51-.36-15.84,0C1493.39,237.82,1477.21,231.26,1465.64,214.8Z" transform="translate(221.96 1.91)"/><path class="cls-2" d="M34.46,529.84a58.4,58.4,0,0,0,33.28,5.89c10.86-1.37,21.64,1.08,32.59-.5,5.4-.78,11.48.54,17.27.62,2.46,0,3.36.78,2.05,3.35-1.88,3.66-3.83,7.35-4.15,11.59-.63.2-1.25.46-1.89.6-5.07,1.08-43.94.79-48.94-.5C52,547.63,41.61,541,34.46,529.84Z" transform="translate(221.96 1.91)"/><path class="cls-2" d="M2957.91,648.54c-.45-1.68.8-4.09-3.31-3.18-4.85,1.06-10,1.82-15.19.59-3.42-.81-4.51-1.37-2.21-4.65a51.34,51.34,0,0,0,9.3-32.43,47.54,47.54,0,0,0-4.34-18.76c-.78-1.64-1.87-3.18-1.68-5.14C2960.57,597.51,2968.85,627.7,2957.91,648.54Z" transform="translate(221.96 1.91)"/><path class="cls-2" d="M2718.57,657.79c5.48-.07,9.78,3.7,15.17,4.47,7.45,1,14.76,1.46,22.07-.12,3.45-.74,6.55.68,9.84.86a66.29,66.29,0,0,0,17.17-1c1.1-.23,2.47-.5,3.21.64.89,1.37-.18,2.57-.83,3.67-2.33,4-6,7.28-5.69,12.43-5.16-1.18-10.21.31-15.32.53C2745.28,680.05,2729.71,673.58,2718.57,657.79Z" transform="translate(221.96 1.91)"/><path class="cls-2" d="M257.84,515.49c-.22-2.13-1-3.38-3.45-4-3.49-.87-6.92-.57-10.38-.64-6.07-.12-6.31-.38-3.88-6.16a53.37,53.37,0,0,0,4.38-20.22c.08-7.75-2.1-15-4.8-22.16-.53-1.39-1.41-2.65-1.24-4.24C256.51,469.57,265.48,496.17,257.84,515.49Z" transform="translate(221.96 1.91)"/><path class="cls-2" d="M-65.75,812.73c-.85-.75-.73-1.77-.76-2.76-.26-6.77-.32-6.82-7.46-7.16s-7.61-.74-7.49-7.65c.13-7.62-.27-15.08-2.78-22.44-1.39-4.07-4.49-6.81-6.29-10.47C-73.63,770.81-62.36,793.76-65.75,812.73Z" transform="translate(221.96 1.91)"/><path class="cls-2" d="M3265,297.85c-1.55-2.34-10-9.32-13.84-11.35-1.63-.86-1.56-2.41-1.83-3.83-1.39-7.31-3.37-14.39-7.84-20.51C3254.91,270.37,3262.71,282.29,3265,297.85Z" transform="translate(221.96 1.91)"/><path class="cls-2" d="M2346.72,579.86c-1.82-4.71-5.38-5.86-10-5.07-2.73.46-4-.47-4.31-3.65a39.49,39.49,0,0,0-8.9-21.91C2335.54,556.16,2343.4,566.28,2346.72,579.86Z" transform="translate(221.96 1.91)"/><path class="cls-2" d="M750.72,888.73c-9.44-.28-11.64-2.7-14.25-15.68A38.49,38.49,0,0,1,750.72,888.73Z" transform="translate(221.96 1.91)"/><path class="cls-2" d="M3105.75,347.91c1.87,4.76.33,9.76,1.06,14.65,1,7,4.77,12.93,6.55,19.58C3106.09,371.78,3103.92,360.29,3105.75,347.91Z" transform="translate(221.96 1.91)"/><path class="cls-2" d="M3316.59,973.79c5.53,1.66,8.25,5.86,9.93,11A28.66,28.66,0,0,1,3316.59,973.79Z" transform="translate(221.96 1.91)"/><path class="cls-2" d="M3206.54,254.64l-18.21,6.09A34.11,34.11,0,0,1,3206.54,254.64Z" transform="translate(221.96 1.91)"/><path class="cls-2" d="M3279.53,303.4c-3.17,1.93-12,1.69-14.21-.47a1.88,1.88,0,0,1-.08-3c2,4.72,6.56,2.53,9.89,3.64C3276.43,304,3278.06,303.48,3279.53,303.4Z" transform="translate(221.96 1.91)"/><path class="cls-2" d="M3340.83,309.67l-17.35-6.36A35.41,35.41,0,0,1,3340.83,309.67Z" transform="translate(221.96 1.91)"/><path class="cls-2" d="M3112.34,328.51l-6.29,17.34A34.9,34.9,0,0,1,3112.34,328.51Z" transform="translate(221.96 1.91)"/><path class="cls-2" d="M3148.53,303.31l-17.37,6.34A35.72,35.72,0,0,1,3148.53,303.31Z" transform="translate(221.96 1.91)"/><path class="cls-2" d="M3321.43,303a26.38,26.38,0,0,1-13.83.05A31.19,31.19,0,0,1,3321.43,303Z" transform="translate(221.96 1.91)"/><path class="cls-2" d="M3295.42,303.06a26.55,26.55,0,0,1-13.82,0A31.14,31.14,0,0,1,3295.42,303.06Z" transform="translate(221.96 1.91)"/><path class="cls-2" d="M3240.7,261.73a91.62,91.62,0,0,1-14.23-6A28.3,28.3,0,0,1,3240.7,261.73Z" transform="translate(221.96 1.91)"/><path class="cls-2" d="M-130.46,756.54a65.87,65.87,0,0,1-14.28,6.15A29.4,29.4,0,0,1-130.46,756.54Z" transform="translate(221.96 1.91)"/><path class="cls-2" d="M2224.39,542.19a25.72,25.72,0,0,1-12.75,0A27.47,27.47,0,0,1,2224.39,542.19Z" transform="translate(221.96 1.91)"/><path class="cls-2" d="M2119.39,542.19a25.72,25.72,0,0,1-12.75,0A27.47,27.47,0,0,1,2119.39,542.19Z" transform="translate(221.96 1.91)"/><path class="cls-2" d="M2302.4,542.13a20.59,20.59,0,0,1-11.77,0A24.66,24.66,0,0,1,2302.4,542.13Z" transform="translate(221.96 1.91)"/><path class="cls-2" d="M1592.42,133a18.67,18.67,0,0,1-11.82,0A25.25,25.25,0,0,1,1592.42,133Z" transform="translate(221.96 1.91)"/><path class="cls-2" d="M2276.4,542.15a20.51,20.51,0,0,1-11.77,0A24.92,24.92,0,0,1,2276.4,542.15Z" transform="translate(221.96 1.91)"/><path class="cls-2" d="M2250.39,542.17a20.51,20.51,0,0,1-11.77,0A24.92,24.92,0,0,1,2250.39,542.17Z" transform="translate(221.96 1.91)"/><path class="cls-2" d="M2171.4,542.15a20.51,20.51,0,0,1-11.77,0A24.92,24.92,0,0,1,2171.4,542.15Z" transform="translate(221.96 1.91)"/><path class="cls-2" d="M2145.39,542.17a20.51,20.51,0,0,1-11.77,0A24.92,24.92,0,0,1,2145.39,542.17Z" transform="translate(221.96 1.91)"/><path class="cls-2" d="M2197.4,542.13a20.59,20.59,0,0,1-11.77,0A24.66,24.66,0,0,1,2197.4,542.13Z" transform="translate(221.96 1.91)"/><path class="cls-2" d="M2318.22,546.44c-4.71-.93-9.47-1.65-13.74-4.06A28.87,28.87,0,0,1,2318.22,546.44Z" transform="translate(221.96 1.91)"/><path class="cls-2" d="M1670.44,133a15.36,15.36,0,0,1-10.85,0A22.63,22.63,0,0,1,1670.44,133Z" transform="translate(221.96 1.91)"/><path class="cls-2" d="M-111.6,755.14a17,17,0,0,1-10.79,0A22,22,0,0,1-111.6,755.14Z" transform="translate(221.96 1.91)"/><path class="cls-2" d="M2099.54,543.62a44.39,44.39,0,0,1-12.35,5A25.22,25.22,0,0,1,2099.54,543.62Z" transform="translate(221.96 1.91)"/><path class="cls-2" d="M1513.43,133a15.36,15.36,0,0,1-10.85,0A22.63,22.63,0,0,1,1513.43,133Z" transform="translate(221.96 1.91)"/><path class="cls-2" d="M1644.43,133a15.22,15.22,0,0,1-10.84,0A22.46,22.46,0,0,1,1644.43,133Z" transform="translate(221.96 1.91)"/><path class="cls-2" d="M1539.43,133a15.22,15.22,0,0,1-10.84,0A22.46,22.46,0,0,1,1539.43,133Z" transform="translate(221.96 1.91)"/><path class="cls-2" d="M1565.44,133a15.36,15.36,0,0,1-10.85,0A22.63,22.63,0,0,1,1565.44,133Z" transform="translate(221.96 1.91)"/><path class="cls-2" d="M3161.62,302.3c-3.5,2.88-7.28,1.62-11,.73C3154.21,301.9,3158,302.55,3161.62,302.3Z" transform="translate(221.96 1.91)"/><path class="cls-2" d="M1618.43,133a15.36,15.36,0,0,1-10.85,0A22.63,22.63,0,0,1,1618.43,133Z" transform="translate(221.96 1.91)"/><path class="cls-2" d="M2209.54,542.53c-3.39,2.07-6.75,2.31-10.06-.15Z" transform="translate(221.96 1.91)"/><path class="cls-2" d="M3180.52,266.11a11.85,11.85,0,0,1-6.72,6.72A16.72,16.72,0,0,1,3180.52,266.11Z" transform="translate(221.96 1.91)"/><path class="cls-2" d="M265.41,527.1a11.25,11.25,0,0,1-8.8,0A16.53,16.53,0,0,1,265.41,527.1Z" transform="translate(221.96 1.91)"/><path class="cls-2" d="M291.41,527.09a11.22,11.22,0,0,1-8.79,0A16.3,16.3,0,0,1,291.41,527.09Z" transform="translate(221.96 1.91)"/><path class="cls-2" d="M-221.36,865.88a10.12,10.12,0,0,1,0,8.87A16.59,16.59,0,0,1-221.36,865.88Z" transform="translate(221.96 1.91)"/><path class="cls-2" d="M2235.54,542.59a7.64,7.64,0,0,1-9.07-.05Z" transform="translate(221.96 1.91)"/><path class="cls-2" d="M2130.54,542.59a7.64,7.64,0,0,1-9.07-.05Z" transform="translate(221.96 1.91)"/><path class="cls-2" d="M3123.57,315.06a9.07,9.07,0,0,1-5.79,5.77A13.83,13.83,0,0,1,3123.57,315.06Z" transform="translate(221.96 1.91)"/><path class="cls-2" d="M3217.36,254.27a10.76,10.76,0,0,1-7.68,0A12.66,12.66,0,0,1,3217.36,254.27Z" transform="translate(221.96 1.91)"/><path class="cls-2" d="M3305.54,303.47c-2.71,2.13-5.4,2.26-8.06-.08Z" transform="translate(221.96 1.91)"/><path class="cls-2" d="M-100.84,757.51c-3.07,0-6.19.23-8.68-2.11A16.37,16.37,0,0,1-100.84,757.51Z" transform="translate(221.96 1.91)"/><path class="cls-2" d="M3166.19,285.18a17.6,17.6,0,0,1-2.86,8.68A15.78,15.78,0,0,1,3166.19,285.18Z" transform="translate(221.96 1.91)"/><path class="cls-2" d="M2708.75,624.91a5.05,5.05,0,0,1,0,5.8A8.33,8.33,0,0,1,2708.75,624.91Z" transform="translate(221.96 1.91)"/><path class="cls-2" d="M-163.58,71.07a3.64,3.64,0,0,1-4.82,0A6.2,6.2,0,0,1-163.58,71.07Z" transform="translate(221.96 1.91)"/><path class="cls-2" d="M2349.32,591.37c-3.39-.73-1.73-2.71-1.1-4.44C2348.59,588.41,2349,589.89,2349.32,591.37Z" transform="translate(221.96 1.91)"/><path class="cls-2" d="M-58.58,71.07a3.64,3.64,0,0,1-4.82,0A6.2,6.2,0,0,1-58.58,71.07Z" transform="translate(221.96 1.91)"/><path class="cls-2" d="M-168.61,813.79c1.65,1.81,2.32,3.47-.7,4.55C-168,817-169.13,815.27-168.61,813.79Z" transform="translate(221.96 1.91)"/><path class="cls-2" d="M-137.58,71.06a3.63,3.63,0,0,1-4.81,0A6.13,6.13,0,0,1-137.58,71.06Z" transform="translate(221.96 1.91)"/><path class="cls-2" d="M306.15,530.51c-2.17.23-4.17-.07-5.68-1.86A8.36,8.36,0,0,1,306.15,530.51Z" transform="translate(221.96 1.91)"/><path class="cls-2" d="M-217.94,851.07c.35,2.25.12,4.31-1.9,5.79A9.57,9.57,0,0,1-217.94,851.07Z" transform="translate(221.96 1.91)"/><path class="cls-2" d="M2183.54,542.48c-1.08,2-2.45,1.75-3.95.54A6.4,6.4,0,0,1,2183.54,542.48Z" transform="translate(221.96 1.91)"/><path class="cls-2" d="M2256.43,543c-1.5,1.21-2.88,1.44-4-.53A6.58,6.58,0,0,1,2256.43,543Z" transform="translate(221.96 1.91)"/><path class="cls-2" d="M-111.58,71.06a2.5,2.5,0,0,1-3.82,0A4.13,4.13,0,0,1-111.58,71.06Z" transform="translate(221.96 1.91)"/><path class="cls-2" d="M-85.58,71.05a2.5,2.5,0,0,1-3.82,0A4.16,4.16,0,0,1-85.58,71.05Z" transform="translate(221.96 1.91)"/><path class="cls-2" d="M2262.54,542.43c-1.05,2-2.43,1.8-3.95.59A6,6,0,0,1,2262.54,542.43Z" transform="translate(221.96 1.91)"/><path class="cls-2" d="M2282.43,543c-1.52,1.2-2.91,1.45-4-.58A6.1,6.1,0,0,1,2282.43,543Z" transform="translate(221.96 1.91)"/><path class="cls-2" d="M2288.54,542.48c-1.08,2-2.45,1.76-3.95.54A6.4,6.4,0,0,1,2288.54,542.48Z" transform="translate(221.96 1.91)"/><path class="cls-2" d="M-65.64,818.27c-1,.71-1.57.18-1.75-.76-.22-1.19-.17-2.37,1.39-2.71Z" transform="translate(221.96 1.91)"/><path class="cls-2" d="M3187.52,261.15c-.55,2.1-2.25,2.45-4.05,2.64A6.23,6.23,0,0,1,3187.52,261.15Z" transform="translate(221.96 1.91)"/><path class="cls-2" d="M3171.48,275.8c-.2,1.78-.55,3.48-2.63,4A6.24,6.24,0,0,1,3171.48,275.8Z" transform="translate(221.96 1.91)"/><path class="cls-2" d="M2177.43,543c-1.52,1.2-2.91,1.45-4-.58A6.1,6.1,0,0,1,2177.43,543Z" transform="translate(221.96 1.91)"/><path class="cls-2" d="M2151.43,543c-1.5,1.2-2.88,1.44-4-.53A6.58,6.58,0,0,1,2151.43,543Z" transform="translate(221.96 1.91)"/><path class="cls-2" d="M2157.54,542.43c-1.05,2-2.43,1.8-3.95.58A6.07,6.07,0,0,1,2157.54,542.43Z" transform="translate(221.96 1.91)"/><path class="cls-2" d="M2104.54,542.53c-.71,1.61-1.7,1.73-2.93.56A3,3,0,0,1,2104.54,542.53Z" transform="translate(221.96 1.91)"/><path class="cls-2" d="M3162.84,295.93q1.62,1.76-.46,2.93A2.91,2.91,0,0,1,3162.84,295.93Z" transform="translate(221.96 1.91)"/><path class="cls-2" d="M3224.37,255.24c-1.17,1-2.15.86-2.9-.51A2.75,2.75,0,0,1,3224.37,255.24Z" transform="translate(221.96 1.91)"/><path class="cls-2" d="M1581.18,239.79c1.65.7,1.74,1.7.57,2.94A3.27,3.27,0,0,1,1581.18,239.79Z" transform="translate(221.96 1.91)"/><path class="cls-2" d="M2709.75,616.91c1.19,1.23,1.05,2.22-.52,3A2.76,2.76,0,0,1,2709.75,616.91Z" transform="translate(221.96 1.91)"/><path class="cls-2" d="M-155.57,72c-1.21,1.21-2.2,1.1-3-.47A3,3,0,0,1-155.57,72Z" transform="translate(221.96 1.91)"/><path class="cls-2" d="M2347.86,584.85c-1.68-.68-1.77-1.68-.58-2.93A3.25,3.25,0,0,1,2347.86,584.85Z" transform="translate(221.96 1.91)"/><path class="cls-2" d="M-121.46,71.6c-.77,1.53-1.75,1.66-2.94.46A3,3,0,0,1-121.46,71.6Z" transform="translate(221.96 1.91)"/><path class="cls-2" d="M272.43,528.05c-1.17,1.18-2.17,1.12-3-.41A3.35,3.35,0,0,1,272.43,528.05Z" transform="translate(221.96 1.91)"/><path class="cls-2" d="M278.54,527.64c-.79,1.52-1.78,1.61-2.94.4A3.3,3.3,0,0,1,278.54,527.64Z" transform="translate(221.96 1.91)"/><path class="cls-2" d="M298.4,528.14c-1.21,1.09-2.21,1-2.93-.55A2.9,2.9,0,0,1,298.4,528.14Z" transform="translate(221.96 1.91)"/><path class="cls-2" d="M1656.54,133.45c-.74,1.75-1.75,1.78-3,.48A3.65,3.65,0,0,1,1656.54,133.45Z" transform="translate(221.96 1.91)"/><path class="cls-2" d="M-125.46,755.49c-.7,1.61-1.7,1.73-2.94.57A2.92,2.92,0,0,1-125.46,755.49Z" transform="translate(221.96 1.91)"/><path class="cls-2" d="M1624.46,133.93c-1.24,1.3-2.25,1.28-3-.49A3.64,3.64,0,0,1,1624.46,133.93Z" transform="translate(221.96 1.91)"/><path class="cls-2" d="M1603.54,133.58c-.81,1.62-1.81,1.62-3,.37A3.85,3.85,0,0,1,1603.54,133.58Z" transform="translate(221.96 1.91)"/><path class="cls-2" d="M1598.45,133.94c-1.19,1.27-2.21,1.27-3-.43A3.76,3.76,0,0,1,1598.45,133.94Z" transform="translate(221.96 1.91)"/><path class="cls-2" d="M1577.54,133.52c-.77,1.69-1.78,1.69-3,.42A3.72,3.72,0,0,1,1577.54,133.52Z" transform="translate(221.96 1.91)"/><path class="cls-2" d="M1572.45,134c-1.17,1.25-2.18,1.26-3-.37A3.84,3.84,0,0,1,1572.45,134Z" transform="translate(221.96 1.91)"/><path class="cls-2" d="M1551.54,133.45c-.74,1.75-1.75,1.78-3,.48A3.65,3.65,0,0,1,1551.54,133.45Z" transform="translate(221.96 1.91)"/><path class="cls-2" d="M1519.45,133.93c-1.23,1.29-2.25,1.29-3-.48A3.57,3.57,0,0,1,1519.45,133.93Z" transform="translate(221.96 1.91)"/><path class="cls-2" d="M-220.31,858.89c1.25,1.3,1.16,2.31-.63,3A3.21,3.21,0,0,1-220.31,858.89Z" transform="translate(221.96 1.91)"/><path class="cls-2" d="M717.15,864.51c-1.33.37-2.63.61-3.63-.71A3.71,3.71,0,0,1,717.15,864.51Z" transform="translate(221.96 1.91)"/><path class="cls-2" d="M-220.88,878.79c1.67.69,1.78,1.69.6,3A3.13,3.13,0,0,1-220.88,878.79Z" transform="translate(221.96 1.91)"/><path class="cls-2" d="M-50.59,72.1c-1.22,1.15-2.21,1-2.94-.53A2.78,2.78,0,0,1-50.59,72.1Z" transform="translate(221.96 1.91)"/><path class="cls-2" d="M1615.57,939.66c1.22-1.26,2.23-1.18,3,.48A3.17,3.17,0,0,1,1615.57,939.66Z" transform="translate(221.96 1.91)"/><path class="cls-2" d="M478.54,25.6c-.42,1-1,1.66-1.93.49A1.52,1.52,0,0,1,478.54,25.6Z" transform="translate(221.96 1.91)"/><path class="cls-2" d="M-174.46,71.69c-.48,1.07-1.06,1.54-1.95.35A1.47,1.47,0,0,1-174.46,71.69Z" transform="translate(221.96 1.91)"/><path class="cls-2" d="M-148.46,71.73c-.5,1.08-1.11,1.48-1.95.3A1.53,1.53,0,0,1-148.46,71.73Z" transform="translate(221.96 1.91)"/><path class="cls-2" d="M1120.43,427c-.85,1.19-1.46.79-2-.31A1.53,1.53,0,0,1,1120.43,427Z" transform="translate(221.96 1.91)"/><path class="cls-2" d="M1102.54,426.6c-.49,1.16-1.09,1.62-2,.32A1.49,1.49,0,0,1,1102.54,426.6Z" transform="translate(221.96 1.91)"/><path class="cls-2" d="M1093.46,426.92c-.9,1.29-1.51.85-2-.33A1.51,1.51,0,0,1,1093.46,426.92Z" transform="translate(221.96 1.91)"/><path class="cls-2" d="M1075.54,426.72c-.5,1.07-1.1,1.5-2,.3A1.53,1.53,0,0,1,1075.54,426.72Z" transform="translate(221.96 1.91)"/><path class="cls-2" d="M1067.45,427c-.88,1.25-1.49.82-2-.33A1.51,1.51,0,0,1,1067.45,427Z" transform="translate(221.96 1.91)"/><path class="cls-2" d="M1049.54,426.68c-.49,1.1-1.09,1.54-2,.31A1.51,1.51,0,0,1,1049.54,426.68Z" transform="translate(221.96 1.91)"/><path class="cls-2" d="M1041.44,427c-.87,1.22-1.48.81-2-.32A1.51,1.51,0,0,1,1041.44,427Z" transform="translate(221.96 1.91)"/><path class="cls-2" d="M1023.54,426.64c-.49,1.13-1.09,1.58-2,.32A1.5,1.5,0,0,1,1023.54,426.64Z" transform="translate(221.96 1.91)"/><path class="cls-2" d="M1015.43,427c-.85,1.19-1.46.79-2-.31A1.53,1.53,0,0,1,1015.43,427Z" transform="translate(221.96 1.91)"/><path class="cls-2" d="M997.54,426.6c-.48,1.15-1.08,1.62-2,.34A1.46,1.46,0,0,1,997.54,426.6Z" transform="translate(221.96 1.91)"/><path class="cls-2" d="M3114.29,325.37c.27,1.33-.05,2.27-1.56,2.45A2.79,2.79,0,0,1,3114.29,325.37Z" transform="translate(221.96 1.91)"/><path class="cls-2" d="M3343.92,311.66c-1.32.24-2.25-.12-2.43-1.61A2.7,2.7,0,0,1,3343.92,311.66Z" transform="translate(221.96 1.91)"/><path class="cls-2" d="M992.54,427.58c-.41,1.07-.94,1.68-1.93.5A1.49,1.49,0,0,1,992.54,427.58Z" transform="translate(221.96 1.91)"/><path class="cls-2" d="M1203.42,428.07c-1,1.19-1.54.61-2-.5A1.53,1.53,0,0,1,1203.42,428.07Z" transform="translate(221.96 1.91)"/><path class="cls-2" d="M1198.46,426.93c-.91,1.29-1.51.83-2-.34A1.49,1.49,0,0,1,1198.46,426.93Z" transform="translate(221.96 1.91)"/><path class="cls-2" d="M1180.54,426.72c-.5,1.08-1.1,1.49-2,.3A1.52,1.52,0,0,1,1180.54,426.72Z" transform="translate(221.96 1.91)"/><path class="cls-2" d="M1583.93,249.81c1.59.4,1.62,1.47,1.18,2.74A3.16,3.16,0,0,1,1583.93,249.81Z" transform="translate(221.96 1.91)"/><path class="cls-2" d="M1172.45,427c-.88,1.25-1.49.82-2-.33A1.5,1.5,0,0,1,1172.45,427Z" transform="translate(221.96 1.91)"/><path class="cls-2" d="M1154.54,426.68c-.5,1.11-1.1,1.53-2,.31A1.51,1.51,0,0,1,1154.54,426.68Z" transform="translate(221.96 1.91)"/><path class="cls-2" d="M254.38,527.2c-.49.69-1.13.73-1.56.06s0-1.21.71-1.46Z" transform="translate(221.96 1.91)"/><path class="cls-2" d="M1146.44,427c-.87,1.22-1.48.81-2-.32A1.51,1.51,0,0,1,1146.44,427Z" transform="translate(221.96 1.91)"/><path class="cls-2" d="M1582.33,244.79c1.3.62,1.24,1.62.79,2.74A2.71,2.71,0,0,1,1582.33,244.79Z" transform="translate(221.96 1.91)"/><path class="cls-2" d="M1579.27,236c1.23,0,2.58-.16,1.5,1.77Z" transform="translate(221.96 1.91)"/><path class="cls-2" d="M2084.53,550.25c-.16,1.29-1,1.64-2.14,1.5A2.38,2.38,0,0,1,2084.53,550.25Z" transform="translate(221.96 1.91)"/><path class="cls-2" d="M2079.51,554.06c0,1.28-.77,1.79-2,1.75A2.3,2.3,0,0,1,2079.51,554.06Z" transform="translate(221.96 1.91)"/><path class="cls-2" d="M1692.82,140.68c-1.23.23-2.12-.08-2.33-1.47A2.54,2.54,0,0,1,1692.82,140.68Z" transform="translate(221.96 1.91)"/><path class="cls-2" d="M1482.52,139.21c-.22,1.39-1.12,1.69-2.35,1.44A2.58,2.58,0,0,1,1482.52,139.21Z" transform="translate(221.96 1.91)"/><path class="cls-2" d="M1687.12,137.53c-1.21.35-2.24.3-2.64-1.16A2.82,2.82,0,0,1,1687.12,137.53Z" transform="translate(221.96 1.91)"/><path class="cls-2" d="M1488.53,136.36c-.41,1.47-1.44,1.52-2.65,1.16A2.87,2.87,0,0,1,1488.53,136.36Z" transform="translate(221.96 1.91)"/><path class="cls-2" d="M2710.71,612.9c1.24,1,.62,1.56-.51,2A1.53,1.53,0,0,1,2710.71,612.9Z" transform="translate(221.96 1.91)"/><path class="cls-2" d="M1680.44,135c-1.1,1.25-1.64.67-2-.6A1.71,1.71,0,0,1,1680.44,135Z" transform="translate(221.96 1.91)"/><path class="cls-2" d="M1494.53,134.38c-.34,1.23-.85,1.89-2,.6A1.73,1.73,0,0,1,1494.53,134.38Z" transform="translate(221.96 1.91)"/><path class="cls-2" d="M2709.39,635.79c1.06.48,1.52,1.06.35,1.94A1.47,1.47,0,0,1,2709.39,635.79Z" transform="translate(221.96 1.91)"/><path class="cls-2" d="M2710.18,639.79c1.13.4,1.77.93.52,2A1.52,1.52,0,0,1,2710.18,639.79Z" transform="translate(221.96 1.91)"/><path class="cls-2" d="M2951.94,661.62c-.79.16-1.72.4-2-.63-.21-.72.43-1.09,1.13-1.19C2951.35,660.41,2951.65,661,2951.94,661.62Z" transform="translate(221.96 1.91)"/><path class="cls-2" d="M1676.45,134c-.93,1.24-1.53.81-2-.39A1.6,1.6,0,0,1,1676.45,134Z" transform="translate(221.96 1.91)"/><path class="cls-2" d="M483.54,24.64c-.49,1.1-1.09,1.58-2,.32A1.49,1.49,0,0,1,483.54,24.64Z" transform="translate(221.96 1.91)"/><path class="cls-2" d="M1650.46,133.91c-.85,1.22-1.49,1-2-.27A1.74,1.74,0,0,1,1650.46,133.91Z" transform="translate(221.96 1.91)"/><path class="cls-2" d="M1629.54,133.64c-.51,1.21-1.14,1.5-2,.27A1.73,1.73,0,0,1,1629.54,133.64Z" transform="translate(221.96 1.91)"/><path class="cls-2" d="M500.45,25c-.87,1.26-1.48.82-2-.31A1.54,1.54,0,0,1,500.45,25Z" transform="translate(221.96 1.91)"/><path class="cls-2" d="M509.54,24.68c-.5,1.08-1.1,1.54-2,.3A1.51,1.51,0,0,1,509.54,24.68Z" transform="translate(221.96 1.91)"/><path class="cls-2" d="M527.42,25.06c-.84,1.15-1.45.75-1.95-.3A1.52,1.52,0,0,1,527.42,25.06Z" transform="translate(221.96 1.91)"/><path class="cls-2" d="M-95.81,759.46c-1.24.43-2.29.38-2.71-1.14A2.88,2.88,0,0,1-95.81,759.46Z" transform="translate(221.96 1.91)"/><path class="cls-2" d="M535.54,24.72c-.5,1.06-1.1,1.5-1.95.3A1.5,1.5,0,0,1,535.54,24.72Z" transform="translate(221.96 1.91)"/><path class="cls-2" d="M-145.49,763.12c-.15,1.39-1,1.77-2.26,1.57A2.51,2.51,0,0,1-145.49,763.12Z" transform="translate(221.96 1.91)"/><path class="cls-2" d="M-149.45,766a1.72,1.72,0,0,1-2.11,1.78A2.53,2.53,0,0,1-149.45,766Z" transform="translate(221.96 1.91)"/><path class="cls-2" d="M-156.52,772.81c.08,1.23-.43,2-1.72,2A2.39,2.39,0,0,1-156.52,772.81Z" transform="translate(221.96 1.91)"/><path class="cls-2" d="M-159.59,776.66c.17,1.18-.19,2-1.49,2.18A2.37,2.37,0,0,1-159.59,776.66Z" transform="translate(221.96 1.91)"/><path class="cls-2" d="M-168.2,796.92c.94.8.64,1.4-.31,1.89A1.33,1.33,0,0,1-168.2,796.92Z" transform="translate(221.96 1.91)"/><path class="cls-2" d="M553.43,25c-.85,1.19-1.46.78-2-.3A1.53,1.53,0,0,1,553.43,25Z" transform="translate(221.96 1.91)"/><path class="cls-2" d="M1128.54,426.64c-.49,1.13-1.09,1.58-2,.32A1.5,1.5,0,0,1,1128.54,426.64Z" transform="translate(221.96 1.91)"/><path class="cls-2" d="M561.53,24.75c-.5,1-1.09,1.47-1.93.3A1.51,1.51,0,0,1,561.53,24.75Z" transform="translate(221.96 1.91)"/><path class="cls-2" d="M579.44,25c-.87,1.22-1.47.79-2-.31A1.53,1.53,0,0,1,579.44,25Z" transform="translate(221.96 1.91)"/><path class="cls-2" d="M1513.53,837.75c-.48,1-1.06,1.48-1.92.34A1.45,1.45,0,0,1,1513.53,837.75Z" transform="translate(221.96 1.91)"/><path class="cls-2" d="M1531.43,838c-.85,1.19-1.46.77-2-.31A1.53,1.53,0,0,1,1531.43,838Z" transform="translate(221.96 1.91)"/><path class="cls-2" d="M1539.53,837.79c-.5,1-1.09,1.43-1.92.29A1.51,1.51,0,0,1,1539.53,837.79Z" transform="translate(221.96 1.91)"/><path class="cls-2" d="M1557.44,838c-.86,1.22-1.47.8-2-.31A1.52,1.52,0,0,1,1557.44,838Z" transform="translate(221.96 1.91)"/><path class="cls-2" d="M1566.54,837.68c-.5,1.09-1.1,1.53-2,.3A1.52,1.52,0,0,1,1566.54,837.68Z" transform="translate(221.96 1.91)"/><path class="cls-2" d="M1584.42,838.08c-.84,1.13-1.44.74-2-.3A1.54,1.54,0,0,1,1584.42,838.08Z" transform="translate(221.96 1.91)"/><path class="cls-2" d="M1592.54,837.71c-.5,1.06-1.1,1.51-2,.31A1.52,1.52,0,0,1,1592.54,837.71Z" transform="translate(221.96 1.91)"/><path class="cls-2" d="M1610.43,838.05c-.85,1.16-1.45.76-2-.3A1.56,1.56,0,0,1,1610.43,838.05Z" transform="translate(221.96 1.91)"/><path class="cls-2" d="M1618.53,837.75c-.5,1-1.09,1.47-1.93.3A1.5,1.5,0,0,1,1618.53,837.75Z" transform="translate(221.96 1.91)"/><path class="cls-2" d="M1636.43,838c-.85,1.19-1.46.78-2-.31A1.53,1.53,0,0,1,1636.43,838Z" transform="translate(221.96 1.91)"/><path class="cls-2" d="M1644.53,837.79c-.5,1-1.09,1.43-1.92.29A1.51,1.51,0,0,1,1644.53,837.79Z" transform="translate(221.96 1.91)"/><path class="cls-2" d="M1662.44,838c-.86,1.23-1.47.8-2-.31A1.52,1.52,0,0,1,1662.44,838Z" transform="translate(221.96 1.91)"/><path class="cls-2" d="M-129.56,72c-.87,1.2-1.48.8-2-.31A1.55,1.55,0,0,1-129.56,72Z" transform="translate(221.96 1.91)"/><path class="cls-2" d="M1689.42,838.08c-.84,1.13-1.44.74-2-.3A1.55,1.55,0,0,1,1689.42,838.08Z" transform="translate(221.96 1.91)"/><path class="cls-2" d="M1697.54,837.71c-.5,1.06-1.1,1.51-2,.31A1.52,1.52,0,0,1,1697.54,837.71Z" transform="translate(221.96 1.91)"/><path class="cls-2" d="M1715.42,838.08c-.86,1.14-1.46.71-2-.33A1.5,1.5,0,0,1,1715.42,838.08Z" transform="translate(221.96 1.91)"/><path class="cls-2" d="M1545.46,133.92c-.85,1.22-1.49.94-2-.29A1.75,1.75,0,0,1,1545.46,133.92Z" transform="translate(221.96 1.91)"/><path class="cls-2" d="M1524.54,133.64c-.51,1.22-1.14,1.49-2,.27A1.75,1.75,0,0,1,1524.54,133.64Z" transform="translate(221.96 1.91)"/><path class="cls-2" d="M588.54,24.64c-.5,1.11-1.1,1.57-2,.31A1.52,1.52,0,0,1,588.54,24.64Z" transform="translate(221.96 1.91)"/><path class="cls-2" d="M605.45,25c-.87,1.25-1.48.82-2-.31A1.52,1.52,0,0,1,605.45,25Z" transform="translate(221.96 1.91)"/><path class="cls-2" d="M698.49,863.82c-.5.91-1.09,1.23-1.88.29A1.36,1.36,0,0,1,698.49,863.82Z" transform="translate(221.96 1.91)"/><path class="cls-2" d="M614.54,24.68c-.5,1.09-1.11,1.53-2,.3A1.52,1.52,0,0,1,614.54,24.68Z" transform="translate(221.96 1.91)"/><path class="cls-2" d="M693.53,864.79c-.63,1.11-1.56,1.14-2.62.75A2.42,2.42,0,0,1,693.53,864.79Z" transform="translate(221.96 1.91)"/><path class="cls-2" d="M721.15,865.5a2,2,0,0,1-2.64-.73A2.29,2.29,0,0,1,721.15,865.5Z" transform="translate(221.96 1.91)"/><path class="cls-2" d="M1498.54,133.58c-.45,1.19-1,1.63-2,.38A1.59,1.59,0,0,1,1498.54,133.58Z" transform="translate(221.96 1.91)"/><path class="cls-2" d="M687.54,866.71a1.79,1.79,0,0,1-2.39.94A2.12,2.12,0,0,1,687.54,866.71Z" transform="translate(221.96 1.91)"/><path class="cls-2" d="M727,867.61c-1.08.33-2,.21-2.49-1A2.32,2.32,0,0,1,727,867.61Z" transform="translate(221.96 1.91)"/><path class="cls-2" d="M-39.88,75.52c-1.18.38-2.18.33-2.65-1.06A2.53,2.53,0,0,1-39.88,75.52Z" transform="translate(221.96 1.91)"/><path class="cls-2" d="M632.42,25.06c-.84,1.15-1.45.75-1.95-.3A1.52,1.52,0,0,1,632.42,25.06Z" transform="translate(221.96 1.91)"/><path class="cls-2" d="M1470.8,878.92c.94.81.63,1.41-.33,1.9A1.31,1.31,0,0,1,1470.8,878.92Z" transform="translate(221.96 1.91)"/><path class="cls-2" d="M-219.78,883.79c1.42.62,1.34,1.65.77,2.81A3.08,3.08,0,0,1-219.78,883.79Z" transform="translate(221.96 1.91)"/><path class="cls-2" d="M-46.58,73.07c-1,1.19-1.55.6-2-.51A1.51,1.51,0,0,1-46.58,73.07Z" transform="translate(221.96 1.91)"/><path class="cls-2" d="M1470.44,896.8c1,.49,1.47,1.08.32,1.93A1.5,1.5,0,0,1,1470.44,896.8Z" transform="translate(221.96 1.91)"/><path class="cls-2" d="M640.54,24.72c-.5,1.06-1.1,1.5-1.95.3A1.5,1.5,0,0,1,640.54,24.72Z" transform="translate(221.96 1.91)"/><path class="cls-2" d="M-69.46,71.69c-.5,1.1-1.1,1.53-2,.31A1.52,1.52,0,0,1-69.46,71.69Z" transform="translate(221.96 1.91)"/><path class="cls-2" d="M-77.55,71.94c-.89,1.27-1.5.84-2-.33A1.51,1.51,0,0,1-77.55,71.94Z" transform="translate(221.96 1.91)"/><path class="cls-2" d="M-95.46,71.65c-.49,1.13-1.09,1.57-2,.32A1.51,1.51,0,0,1-95.46,71.65Z" transform="translate(221.96 1.91)"/><path class="cls-2" d="M674.43,25.05c-.88,1.17-1.47.73-2-.34A1.49,1.49,0,0,1,674.43,25.05Z" transform="translate(221.96 1.91)"/><path class="cls-2" d="M3308.44,952.8c1,.49,1.46,1.08.32,1.93A1.5,1.5,0,0,1,3308.44,952.8Z" transform="translate(221.96 1.91)"/><path class="cls-2" d="M-103.56,72c-.87,1.23-1.48.81-2-.32A1.51,1.51,0,0,1-103.56,72Z" transform="translate(221.96 1.91)"/><path class="cls-2" d="M1671.54,837.68c-.5,1.08-1.1,1.53-2,.31A1.51,1.51,0,0,1,1671.54,837.68Z" transform="translate(221.96 1.91)"/></svg>