<svg id="googleplaydown_Image" data-name="googleplaydown Image" xmlns="http://www.w3.org/2000/svg" viewBox="0 0 934.1 322.14"><title>googleplaydown</title><rect x="1.08" y="0.65" width="930.72" height="318.92" rx="66.05" fill="#0f2c42"/><path d="M46,308c-7-9.6-10.93-20.35-11-32.22C35,210.67,35,145.53,35,80.39,35,64.33,41,50.77,51.32,38.89c9.15-10.55,20.73-17.3,34.05-21.31A21,21,0,0,1,91.74,17Q501.57,17,911.41,17A22.07,22.07,0,0,1,923,19.9c-.31,2.26.53,4.2,1.48,6.2a76.74,76.74,0,0,1,7.42,33.19c.13,58.48,0,117,.17,175.46a89.23,89.23,0,0,1-2.89,21.59c-8.57,35-35.93,53.33-68.17,53.39q-396.4.72-792.81.27a70,70,0,0,1-7.39-.72C55.91,308.78,51.13,305.91,46,308Zm167.08-85,.08.11c5-1.69,9.19-4.84,13.71-7.39,13.52-7.77,27.07-15.49,40.53-23.36,3.94-2.3,3.63-5.2-.8-7.77-13.24-7.69-26.54-15.27-39.81-22.89-15.33-9.55-31.2-18.17-47-27l-51.79-30c-6.08-3.61-12.1-7.32-18.26-10.76-2.65-1.49-5.14-3.81-8.64-3-3.36.22-3.93,2.81-3.95,5.28-.06,8.91.12,17.82.21,26.73-.4,12.68-.53,25.37,0,38.05a270.84,270.84,0,0,0,.13,30q-.19,45.9-.37,91.79c0,2,.26,4.1,3,4.46,2.07.91,3.5-.68,5-1.51,15.17-8.56,30.32-17.15,45.38-25.91,6.57-3.83,13.55-7,19.57-11.73,14.2-7.64,28.2-15.62,41.9-24.14C212.53,224,213.05,223.76,213.07,223ZM598,140.83c2.54,1.17,1.51,3.47,1.51,5.28.07,23,0,45.94.1,68.9,0,3.21-.48,6.14-2.48,8.84,12.55,1.2,20.33.66,23.25-1.56-9.41-1.48-9.41-1.48-9.41-11.13q0-31.46,0-62.91c0-3.94-.57-8.08,4.53-10.74-13.3-1-15.47-.81-19.49,1.49-1.35,0-2.37.63-3.64,1.83ZM363.48,203c4.48,0,8.81.2,13.12-.07,2.73-.17,3.49.73,3.39,3.32a108.25,108.25,0,0,0,0,13c.28,3.45-1.34,4.71-4.27,5.47-9.65,2.5-19.19,2.25-28.43-1.46-17.8-7.15-28.23-24-27.46-45,.52-14.25,6.84-25.46,20.23-31.29,13.12-5.71,25.69-4,37,5.13,2.58,2.08,5.39,4,1.31,8.2,5.62-.95,7.51-5.17,10.79-7.48,3-2.11,2.38-3.57-.6-5.11-15.13-7.85-31-9.9-47.44-5.61-21.36,5.58-35.65,25.35-34,46.46,1.85,23.71,17.24,39.81,40.42,42,12.4,1.16,24.52-.91,36.51-3.93,8-2,7.82-2,8.12-10.4.21-5.73-2.15-12.08,3.44-17.09C384.74,200.31,373.32,195.49,363.48,203ZM564,225.12c-9.07,1.11-17.29,1.69-24.31,6.41-5.58,3.75-9.23,8.73-8.57,15.8.63,6.71,4.88,11.06,10.79,13.18,13.37,4.79,26.56,4.32,38.7-3.77a19.57,19.57,0,0,0,8.25-21.86c-1.58-5.25-5.62-8.57-9.59-11.85-10.28-8.48-10.34-9.17-.63-17.95,8.55-7.73,9.14-19.33,1.48-28.05-.78-.9-2.37-1.4-1.92-3.28,4.32,0,8.72.06,11.8-4.11-8.06,0-15.86,0-23.67,0a37.62,37.62,0,0,0-13.24,2.13c-10.52,3.93-17.05,13.6-15.69,23.39,1.45,10.38,8.69,16.1,21.32,16.77,1.36.07,2.93-.33,2.25,1.91C559.73,217.87,561.19,221.31,564,225.12Zm159.64-4.72,1.5-1a7.3,7.3,0,0,0,1,2.25,23.38,23.38,0,0,0,38.48-8.26c3.08-8,3.15-16.28,1.77-24.57-1.54-9.2-5.48-17.09-15.07-19.92-9.84-2.91-19.16-1.91-26.31,6.72-.22.26-.84.2-1.54.35-.13-1-.28-1.76-.34-2.55-.18-2.76-.26-5.09-4.37-4.93-4.56.18-2.93,3.23-2.94,5.26-.09,25.29,0,50.58-.14,75.87,0,3.36.94,4.25,4.18,4.21,3.07,0,4.43-.58,4.29-4.08C723.81,240,724.52,230.19,723.63,220.4Zm156.25-1.07c-.8-1.93-1.19-2.67-1.42-3.46-4.52-15.14-10.79-29.63-16.3-44.4-.89-2.37-6.65-4.32-8.79-2.66s.17,3.53.78,5.08c6.63,16.84,13.41,33.61,20.13,50.4.49,1.22,1.25,2.51,1.2,3.73a19.19,19.19,0,0,1-19.82,18.65c-1.22,0-3-.84-2.93,1.37,0,1.7-1.07,4.54,1,4.91,4.59.82,9.35,1.92,14,.1,7.52-2.93,11.29-9.68,13.55-16.32,5.18-15.21,11.8-29.85,16.82-45.1,2.17-6.62,4.87-13.07,7.25-19.63.38-1,1.89-2.33-.19-3.29a6.91,6.91,0,0,0-9,4C890.84,187.81,884.92,202.74,879.88,219.33Zm-381.52,7.12c16.95.49,31.21-12,31.73-27.84.56-17.15-11.29-30.22-27.83-30.68-18.39-.51-32.75,11.86-33.2,28.59S481,226,498.36,226.45Zm-65.8,0c17.74-.44,30.85-13.33,30.57-30.06-.28-16.93-13.06-28.84-30.57-28.48-17.3.35-31,13.92-30.51,30.3S415.8,226.88,432.56,226.47ZM838,219.39c1.39,1.63,1.07,3.79,1.49,5.65.65,2.87,2.64,1.85,4.27,2.06,2.14.28,2.4-1,2.39-2.71-.08-13.66.19-27.33-.27-41-.3-8.95-5.4-14.07-14.25-15.32A42.87,42.87,0,0,0,809.09,171c-2.51,1-3.16,2.08-2.1,4.71s2.17,3,4.79,1.87c5.37-2.4,11.05-3.7,17-2.67,6.31,1.09,9.91,6.47,9,14.43-.69,6-5.76,2.24-8.72,3.17-2.31.72-5,.27-7.44.53-5.51.56-10.84,1.75-15.58,4.83-5.53,3.59-7.13,8.91-6.72,15.14s3.26,11.1,9.21,13.71c8.46,3.7,19.79,1.53,26.37-4.94C835.8,220.86,836.35,219.46,838,219.39Zm-169.59-.51c-.76.26-1.51.54-2.28.76-10.58,3.1-19.63.4-26.34-8.16-7.39-9.43-10.48-20.28-5.62-31.79A13,13,0,0,1,656.91,177c3.28,4.56,2.7,6.89-2.4,9.18-6.28,2.82-12.61,5.55-18.91,8.32,2.64.35,5.13.94,7.53,0,8.47-3.44,16.9-7,25.44-10.26,2.24-.85,2.25-1.84,1.49-3.65a19,19,0,0,0-12.88-11.59A27.63,27.63,0,0,0,622,195.84c0,17.79,11.85,31,28.26,31C657.25,226.8,664,225.33,668.4,218.88Zm111-33.8c0,12.66.17,25.33-.1,38-.09,3.94,1.62,4.1,4.7,4.16s4.2-.74,4.18-4.1q-.23-37.73,0-75.46c0-3.77-1.56-3.93-4.39-3.86-2.67.07-4.62-.17-4.52,3.8C779.58,160.09,779.38,172.59,779.38,185.08ZM585.38,90C578.24,89.92,573,95.54,573,103.3c0,7.32,4.95,12.66,11.8,12.64,6.66,0,12.13-5.87,12.29-13.13S592.12,90,585.38,90Zm-221.67,13.2c0,1,0,2,0,3-.22,9.45,1.44,10.87,10.78,8.84,4.87-1.06,7.76-4.41,9.05-9s.67-8.92-2.88-12.44c-2.56-2.55-13.54-4.8-16.08-2.69-2.7,2.26-.32,5.86-.83,8.83A22.42,22.42,0,0,0,363.71,103.18Zm-23.65-6c3.76,5.66,7.21,10.7,10.5,15.85,1,1.6,2.14,2.43,4,2.12,2.45-.4,1.37-2.31,1.39-3.56.1-6,0-12,.06-17.94,0-1.53.29-3-2.06-3s-2.1,1.53-2.1,3v14.26c-3.58-5.68-6.8-10.46-9.67-15.46-1.24-2.16-3-1.89-4.69-1.71-2.46.25-1.31,2.26-1.33,3.53-.09,6,0,12-.08,17.94,0,1.55-.32,3,2.06,3s1.87-1.72,1.88-3.12Zm267,.07c4.05,6.09,7.51,11.14,10.79,16.32a3.35,3.35,0,0,0,3.81,1.54c2.11-.3,1.27-2,1.28-3.16.06-6,0-12,0-17.94,0-1.57.64-3.48-2.16-3.38-2.49.08-1.85,1.8-1.86,3.19,0,4.56,0,9.12,0,14.43-1.83-3-3.31-5.48-4.84-7.93a85.81,85.81,0,0,1-4.75-7.59c-1.19-2.42-3.09-2.27-5-2-2.44.36-1.18,2.37-1.21,3.62-.11,5.64-.11,11.29,0,16.94,0,1.54-1.22,3.94,2.09,3.87,2.92-.07,1.83-2.23,1.86-3.62C607.1,107.12,607,102.71,607,97.21ZM425.76,90c-7.06.06-12.35,6-12.24,13.63.1,7,5.12,12.27,11.77,12.29,6.93,0,12.39-6.09,12.24-13.68C437.4,95.12,432.41,89.94,425.76,90Zm-16.34,24.7c-1.18-3.56-2-7.27-4.74-9.83-1.87-1.77-1.4-2.35.41-3.5,2.43-1.54,2.79-4.06,2.2-6.65s-2.81-3.71-5.22-3.9c-3.32-.25-6.65-.15-10-.2-1.44,0-2,.61-2,2.13.08,6.67.09,13.33,0,20,0,1.73.5,2.37,2.21,2.43,1.92.06,2.81-.57,2.6-2.58a14.55,14.55,0,0,1,0-3.49c.17-1.34-.89-3.25,1.15-3.84a4.33,4.33,0,0,1,4.9,1.68,15.34,15.34,0,0,1,2.37,4.88C404.2,115.37,406.3,115.72,409.42,114.7ZM456,103h-.08c0,3.15,0,6.3,0,9.45,0,1.07-.37,2.13,1.29,2.71,10.36,3.58,20-3.93,19-14.85-.7-7.32-5.61-10.23-16.63-9.68-7.43.38-2.09,6-3.49,8.92C455.58,100.5,456,101.84,456,103ZM307.55,114.65c4.66.51,4.86.56,5.75-3.12.74-3.07,2.47-3.57,5.33-3.7,3.7-.17,6.19.57,6.4,4.69.18,3.59,2.84,2.83,4.71,2.46,2.75-.55.67-2.4.34-3.45-1.95-6.16-4.13-12.24-6.14-18.38-.6-1.83-1.55-2.9-3.58-2.5-1.6.32-3.67-1-4.6,1.65C313.11,99.74,310.32,107.14,307.55,114.65Zm182.14,0c3.46.9,5.53.64,5.88-2.92.29-3,2-3.89,5.09-4,3.9-.09,6.44.56,6.72,5,.19,3.15,2.8,2.56,4.54,2.15,2.56-.62.71-2.43.35-3.55-2-6.18-4.2-12.27-6.15-18.46-.65-2.08-1.91-2.55-3.74-2.32-1.63.21-3.56-.81-4.48,1.87C495.35,99.89,492.5,107.15,489.69,114.7ZM518.41,103h-.14c0,3.16.12,6.33,0,9.48-.09,1.92.47,2.73,2.47,2.7,1.68,0,2.57-.57,2.27-2.3-.9-5.14.7-8,6.43-7.93,1.45,0,3.1-1.23,4.32-2.29,3.17-2.74,3.11-8.39-.15-10.47-4.39-2.81-9.61-2.34-14-1.15-3.12.84-.51,5.23-1.07,8A20.31,20.31,0,0,0,518.41,103Zm23.14-.07h-.12c0,3.31.06,6.63,0,10,0,1.79.76,2.27,2.39,2.28s2.59-.54,2.26-2.29c-1-5.16.62-8,6.38-7.89,1.73,0,3.4-1.24,4.69-2.59,3.17-3.32,2.65-8.64-1.19-10.59a17.72,17.72,0,0,0-13.57-.61c-2.38.8-.44,5.4-.79,8.26A31.05,31.05,0,0,0,541.55,102.92Zm-93.28.34c0-3.33-.15-6.67.06-10,.13-2-.36-2.71-2.38-2.68s-2.5.7-2.45,2.68q.21,9.48,0,19c-.05,2.15.49,3,2.74,2.93s2.15-1.3,2.09-2.94C448.18,109.25,448.27,106.25,448.27,103.26ZM691,172.49c-.64-1.32.86-4.34-1.28-3.93-2.58.49-3.23,4-3.53,6.34-.45,3.6,3.5-2.14,3.68,1.36C691.89,175.5,690.49,173.75,691,172.49Zm-15.58-5.15c3.08,2.65.52,6.4,3.08,9.66,1-3.59-.44-6.87,2.27-9.66Z" transform="translate(-34.97 -16.96)" fill="#123242"/><path d="M46,308c5.14-2.12,9.92.75,14.86,1.25a70,70,0,0,0,7.39.72q396.41,0,792.81-.27c32.24-.06,59.6-18.39,68.17-53.39a89.23,89.23,0,0,0,2.89-21.59c-.2-58.49,0-117-.17-175.46a76.74,76.74,0,0,0-7.42-33.19c-.95-2-1.79-3.94-1.48-6.2C950.84,30.14,964.87,51,968.9,79.49a50.88,50.88,0,0,1,.1,7c0,60.15-.11,120.3,0,180.45.07,29.52-16.51,59.41-50.88,68.89A79.43,79.43,0,0,1,897,339.1q-397.62-.17-795.25-.32C78.46,338.75,59.14,328.16,46,308Z" transform="translate(-34.97 -16.96)" fill="#0f2c42"/><path d="M97.56,191.14a271,271,0,0,1-.13-30c3.23,3,1.37,6.79,1.43,10.15.07,3.68,1.1,4.85,4.85,4.82,20.94-.17,41.89-.12,62.84-.06,6.94,0,13.94-.62,20.8,1l12,11.7L167,221l-3.78,3.1c-2.13-1.26-4.47-1.05-6.8-1.05-16.78,0-33.56,0-50.34,0-6.54,0-7-.61-7-7.13,0-6.81,0-13.62-.07-20.43C98.92,193.93,99.85,192,97.56,191.14Z" transform="translate(-34.97 -16.96)" fill="#2d869f"/><path d="M187.35,177.06c-6.86-1.66-13.86-1-20.8-1-21-.06-41.9-.11-62.84.06-3.75,0-4.78-1.14-4.85-4.82-.06-3.36,1.8-7.19-1.43-10.15-.57-12.67-.44-25.36-.05-38,2.15.51,1.57,2.27,1.6,3.66.06,3.83.24,7.68,0,11.49s1,4.91,4.76,4.86c16.15-.2,32.32-.11,48.47-.12,2.32.76,3.84,2.55,5.51,4.18Q167.83,157.09,178,167Z" transform="translate(-34.97 -16.96)" fill="#1f729b"/><path d="M97.56,191.14c2.29.82,1.36,2.79,1.38,4.28.11,6.81.06,13.62.07,20.43,0,6.52.5,7.11,7,7.13,16.78.05,33.56,0,50.34,0,2.33,0,4.67-.21,6.8,1.05-.46,1.9-2,3-3.3,4.22C154,234.21,148,240.1,142.05,246l-41.91,41.37c-2.69-.36-3-2.45-3-4.46Q97.33,237,97.56,191.14Z" transform="translate(-34.97 -16.96)" fill="#41a0a2"/><path d="M363.48,203c9.84-7.48,21.26-2.66,32.18-3.93-5.59,5-3.23,11.36-3.44,17.09-.3,8.41-.09,8.38-8.12,10.4-12,3-24.11,5.09-36.51,3.93-23.18-2.17-38.57-18.27-40.42-42-1.65-21.11,12.64-40.88,34-46.46,16.45-4.29,32.31-2.24,47.44,5.61,3,1.54,3.6,3,.6,5.11-3.28,2.31-5.17,6.53-10.79,7.48,4.08-4.18,1.27-6.12-1.31-8.2-11.32-9.09-23.89-10.84-37-5.13-13.39,5.83-19.71,17-20.23,31.29-.77,21,9.66,37.89,27.46,45,9.24,3.71,18.78,4,28.43,1.46,2.93-.76,4.55-2,4.27-5.47a108.25,108.25,0,0,1,0-13c.1-2.59-.66-3.49-3.39-3.32C372.29,203.17,368,203,363.48,203Z" transform="translate(-34.97 -16.96)" fill="#eef0f1"/><path d="M564,225.12c-2.8-3.81-4.26-7.25-3-11.28.68-2.24-.89-1.84-2.25-1.91-12.63-.67-19.87-6.39-21.32-16.77-1.36-9.79,5.17-19.46,15.69-23.39a37.62,37.62,0,0,1,13.24-2.13c7.81,0,15.61,0,23.67,0-3.08,4.17-7.48,4.14-11.8,4.11-.45,1.88,1.14,2.38,1.92,3.28,7.66,8.72,7.07,20.32-1.48,28.05-9.71,8.78-9.65,9.47.63,17.95,4,3.28,8,6.6,9.59,11.85a19.57,19.57,0,0,1-8.25,21.86c-12.14,8.09-25.33,8.56-38.7,3.77-5.91-2.12-10.16-6.47-10.79-13.18-.66-7.07,3-12.05,8.57-15.8C546.7,226.81,554.92,226.23,564,225.12Zm-.64,33.76c3.15-.43,6.49-.59,9.63-1.82,9.72-3.81,11.73-13.69,4.59-21.24-9.47-10-17.33-9.08-29.35-3.39-9.36,4.43-9.28,16.06-.66,22C552.29,257.69,557.72,258.33,563.35,258.88Zm11.7-63.55c-.37-5.75-1.88-12.19-6.48-17.39-3.21-3.62-7.15-5.87-12.36-4.24a11.27,11.27,0,0,0-8.43,10.56c-.62,7.37,1.14,14.19,6,20,3.64,4.36,8.43,5.71,13.34,4C572.47,206.31,575,202.53,575.05,195.33Z" transform="translate(-34.97 -16.96)" fill="#eef0f1"/><path d="M226.78,161.74c13.27,7.62,26.57,15.2,39.81,22.89,4.43,2.57,4.74,5.47.8,7.77-13.46,7.87-27,15.59-40.53,23.36l-26.88-27Z" transform="translate(-34.97 -16.96)" fill="#f28359"/><path d="M723.63,220.4c.89,9.79.18,19.59.56,29.37.14,3.5-1.22,4-4.29,4.08-3.24,0-4.2-.85-4.18-4.21.15-25.29,0-50.58.14-75.87,0-2-1.62-5.08,2.94-5.26,4.11-.16,4.19,2.17,4.37,4.93.06.79.21,1.57.34,2.55.7-.15,1.32-.09,1.54-.35,7.15-8.63,16.47-9.63,26.31-6.72,9.59,2.83,13.53,10.72,15.07,19.92,1.38,8.29,1.31,16.58-1.77,24.57a23.38,23.38,0,0,1-38.48,8.26,7.3,7.3,0,0,1-1-2.25Zm.62-23.85a36,36,0,0,0,1.1,13.08c1.78,6.84,6.5,10.75,13.44,11.47,8.1.83,13.07-1.69,16.51-8.37,3.78-7.34,3.61-15.21,2.37-22.95-1.65-10.37-7.71-15.31-17.23-15-9.77.29-14.81,5.23-16.15,16A43.33,43.33,0,0,0,724.25,196.55Z" transform="translate(-34.97 -16.96)" fill="#eef0f1"/><path d="M152.17,143c-16.15,0-32.32-.08-48.47.12-3.79,0-5-1.15-4.76-4.86s.1-7.66,0-11.49c0-1.39.55-3.15-1.6-3.66-.08-8.91-.26-17.82-.2-26.73,0-2.47.59-5.06,3.95-5.28L125.92,115a17.59,17.59,0,0,0,5.24,6.49C139.09,127.75,145.82,135.17,152.17,143Z" transform="translate(-34.97 -16.96)" fill="#18699a"/><path d="M879.88,219.33c5-16.59,11-31.52,16.3-46.65a6.91,6.91,0,0,1,9-4c2.08,1,.57,2.26.19,3.29-2.38,6.56-5.08,13-7.25,19.63-5,15.25-11.64,29.89-16.82,45.1-2.26,6.64-6,13.39-13.55,16.32-4.68,1.82-9.44.72-14-.1-2.05-.37-1-3.21-1-4.91-.05-2.21,1.71-1.39,2.93-1.37A19.19,19.19,0,0,0,875.48,228c0-1.22-.71-2.51-1.2-3.73-6.72-16.79-13.5-33.56-20.13-50.4-.61-1.55-2.94-3.42-.78-5.08s7.9.29,8.79,2.66c5.51,14.77,11.78,29.26,16.3,44.4C878.69,216.66,879.08,217.4,879.88,219.33Z" transform="translate(-34.97 -16.96)" fill="#eef0f1"/><path d="M498.36,226.45c-17.34-.49-29.75-13.17-29.3-29.93s14.81-29.1,33.2-28.59c16.54.46,28.39,13.53,27.83,30.68C529.57,214.43,515.31,226.94,498.36,226.45Zm20.1-23.75c-.6-9.33-2.26-18.27-8.59-25.58-4.1-4.73-9.25-7.05-15.57-5.56-6.92,1.64-11.93,5.84-13,12.91-1.89,12.16.34,23.66,8.61,33.21,7,8.1,18.82,7.3,25-1.25C517.93,212.29,518.32,207.52,518.46,202.7Z" transform="translate(-34.97 -16.96)" fill="#eef0f1"/><path d="M432.56,226.47c-16.76.41-30.06-11.9-30.51-28.24s13.21-29.95,30.51-30.3c17.51-.36,30.29,11.55,30.57,28.48C463.41,213.14,450.3,226,432.56,226.47Zm-18.91-34.33c.59,9.11,2.69,17.71,8.65,24.94,4.46,5.42,10.25,7.33,16.95,5.54s10.34-6.54,11.54-13A41,41,0,0,0,445.05,180c-6.05-9.89-17.26-11.76-25.53-4.59C414.41,179.84,413.4,185.78,413.65,192.14Z" transform="translate(-34.97 -16.96)" fill="#eef0f1"/><path d="M152.17,143c-6.35-7.79-13.08-15.21-21-21.48a17.59,17.59,0,0,1-5.24-6.49c4-2.72,1.25-6.84,2.11-10.21l51.8,30c.09,2,2.28,3,2.22,5.33-.21,7.45,0,14.91-.11,22.36,0,2.49-.72,4.68-3.93,4.55q-10.17-9.93-20.33-19.86C156,145.51,154.49,143.72,152.17,143Z" transform="translate(-34.97 -16.96)" fill="#58bc88"/><path d="M178,167c3.21.13,3.9-2.06,3.93-4.55.08-7.45-.1-14.91.11-22.36.06-2.3-2.13-3.31-2.22-5.33,15.75,8.81,31.62,17.43,46.95,27l-26.8,27a1.27,1.27,0,0,1-.67,0l-12-11.7Q182.69,172,178,167Z" transform="translate(-34.97 -16.96)" fill="#94ce82"/><path d="M838,219.39c-1.64.07-2.19,1.47-3.08,2.35-6.58,6.47-17.91,8.64-26.37,4.94-5.95-2.61-8.8-7.34-9.21-13.71s1.19-11.55,6.72-15.14c4.74-3.08,10.07-4.27,15.58-4.83,2.48-.26,5.13.19,7.44-.53,3-.93,8,2.85,8.72-3.17.91-8-2.69-13.34-9-14.43-6-1-11.64.27-17,2.67-2.62,1.16-3.72.79-4.79-1.87s-.41-3.69,2.1-4.71a42.87,42.87,0,0,1,22.53-2.86c8.85,1.25,14,6.37,14.25,15.32.46,13.64.19,27.31.27,41,0,1.74-.25,3-2.39,2.71-1.63-.21-3.62.81-4.27-2.06C839.06,223.18,839.38,221,838,219.39Zm-8.06-21c-5.31.22-10.65.38-15.56,2.75s-6.65,6.2-6.17,11.38a8.87,8.87,0,0,0,6.72,8.3c10.4,3.12,20-2.53,22.43-13.07C839.35,198.93,838.67,198.06,829.93,198.39Z" transform="translate(-34.97 -16.96)" fill="#eef0f1"/><path d="M596,139c4-2.3,6.19-2.49,19.49-1.49-5.1,2.66-4.53,6.8-4.53,10.74q0,31.45,0,62.91c0,9.65,0,9.65,9.41,11.13-2.92,2.22-10.7,2.76-23.25,1.56,2-2.7,2.49-5.63,2.48-8.84-.09-23,0-45.93-.1-68.9,0-1.81,1-4.11-1.51-5.28Z" transform="translate(-34.97 -16.96)" fill="#fefefe"/><path d="M142.05,246c5.95-5.92,11.91-11.81,17.84-17.75,1.27-1.26,2.84-2.32,3.3-4.22L167,221c2.56,1.88,4.21-1.24,6.74-1.14,10.94.42,21.91.11,32.87.23,2.52,0,5.45-.17,6.57,3.11l-.08-.11L212,224.1c-13.7,8.52-27.7,16.5-41.9,24.14.28-3.14-1.71-3.34-4.09-3.28C158,245.14,150,244.39,142.05,246Z" transform="translate(-34.97 -16.96)" fill="#9f2848"/><path d="M668.4,218.88c-4.44,6.45-11.15,7.92-18.18,7.92-16.41,0-28.29-13.17-28.26-31a27.63,27.63,0,0,1,35.22-26.9,19,19,0,0,1,12.88,11.59c.76,1.81.75,2.8-1.49,3.65-8.54,3.27-17,6.82-25.44,10.26-2.4,1-4.89.38-7.53,0,6.3-2.77,12.63-5.5,18.91-8.32,5.1-2.29,5.68-4.62,2.4-9.18a13,13,0,0,0-22.75,2.72c-4.86,11.51-1.77,22.36,5.62,31.79,6.71,8.56,15.76,11.26,26.34,8.16C666.89,219.42,667.64,219.14,668.4,218.88Z" transform="translate(-34.97 -16.96)" fill="#eef0f1"/><path d="M213.15,223.15c-1.12-3.28-4.05-3.08-6.57-3.11-11-.12-21.93.19-32.87-.23-2.53-.1-4.18,3-6.74,1.14l32.34-32.19a1.27,1.27,0,0,0,.67,0l26.88,27C222.34,218.31,218.13,221.46,213.15,223.15Z" transform="translate(-34.97 -16.96)" fill="#bb2738"/><path d="M142.05,246C150,244.39,158,245.14,166,245c2.38-.06,4.37.14,4.09,3.28-6,4.74-13,7.9-19.57,11.73-15.06,8.76-30.21,17.35-45.38,25.91-1.46.83-2.89,2.42-5,1.51Z" transform="translate(-34.97 -16.96)" fill="#792b60"/><path d="M779.38,185.08c0-12.49.2-25-.11-37.48-.1-4,1.85-3.73,4.52-3.8,2.83-.07,4.42.09,4.39,3.86q-.3,37.72,0,75.46c0,3.36-1,4.17-4.18,4.1s-4.79-.22-4.7-4.16C779.55,210.41,779.38,197.74,779.38,185.08Z" transform="translate(-34.97 -16.96)" fill="#e8ebec"/><path d="M585.38,90c6.74,0,11.83,5.65,11.67,12.83s-5.63,13.1-12.29,13.13c-6.85,0-11.84-5.32-11.8-12.64C573,95.54,578.24,89.92,585.38,90Zm6.71,13c0-5.13-3.08-9.16-7.1-9.26s-7.12,3.85-7.12,9.13,3,9.16,7.06,9.22S592.08,108.22,592.09,103Z" transform="translate(-34.97 -16.96)" fill="#e8ebec"/><path d="M363.72,103.18a21.25,21.25,0,0,1,0-3.48c.51-3-1.87-6.57.83-8.83,2.54-2.11,13.52.14,16.08,2.69,3.55,3.52,4.16,7.87,2.88,12.44s-4.18,8-9.05,9c-9.34,2-11,.61-10.78-8.84C363.73,105.17,363.71,104.18,363.72,103.18Zm4.32-.52h.06c0,1.65,0,3.3,0,5,.06,4.21,1.89,5.53,5.86,3.9s5.46-5,5.27-9.21-2-7-6-8.13c-3.3-1-6-.75-5.23,4A27.63,27.63,0,0,1,368,102.66Z" transform="translate(-34.97 -16.96)" fill="#eef0f1"/><path d="M340.06,97.14V112c0,1.4.62,3.09-1.88,3.12s-2.08-1.45-2.06-3c.05-6,0-12,.08-17.94,0-1.27-1.13-3.28,1.33-3.53,1.72-.18,3.45-.45,4.69,1.71,2.87,5,6.09,9.78,9.67,15.46V93.59c0-1.49-.29-3,2.1-3s2.07,1.51,2.06,3c0,6,0,12-.06,17.94,0,1.25,1.06,3.16-1.39,3.56-1.9.31-3-.52-4-2.12C347.27,107.84,343.82,102.8,340.06,97.14Z" transform="translate(-34.97 -16.96)" fill="#e8ebec"/><path d="M607,97.21c0,5.5.07,9.91,0,14.31,0,1.39,1.06,3.55-1.86,3.62-3.31.07-2.07-2.33-2.09-3.87-.08-5.65-.08-11.3,0-16.94,0-1.25-1.23-3.26,1.21-3.62,1.94-.29,3.84-.44,5,2a85.81,85.81,0,0,0,4.75,7.59c1.53,2.45,3,4.93,4.84,7.93,0-5.31,0-9.87,0-14.43,0-1.39-.63-3.11,1.86-3.19,2.8-.1,2.15,1.81,2.16,3.38,0,6,0,12,0,17.94,0,1.15.83,2.86-1.28,3.16a3.35,3.35,0,0,1-3.81-1.54C614.54,108.35,611.08,103.3,607,97.21Z" transform="translate(-34.97 -16.96)" fill="#e8ebec"/><path d="M425.76,90c6.65-.06,11.64,5.12,11.77,12.24.15,7.59-5.31,13.69-12.24,13.68-6.65,0-11.67-5.25-11.77-12.29C413.41,96,418.7,90.06,425.76,90Zm7,13.1c.06-5.09-3-9.21-7.06-9.42s-7.32,3.84-7.38,9,3,9.21,7,9.39S432.68,108.31,432.75,103.1Z" transform="translate(-34.97 -16.96)" fill="#eef0f1"/><path d="M409.42,114.7c-3.12,1-5.22.67-6.09-2.88a15.34,15.34,0,0,0-2.37-4.88,4.33,4.33,0,0,0-4.9-1.68c-2,.59-1,2.5-1.15,3.84a14.55,14.55,0,0,0,0,3.49c.21,2-.68,2.64-2.6,2.58-1.71-.06-2.23-.7-2.21-2.43.11-6.66.1-13.32,0-20,0-1.52.52-2.15,2-2.13,3.33,0,6.66-.05,10,.2,2.41.19,4.61,1.21,5.22,3.9s.23,5.11-2.2,6.65c-1.81,1.15-2.28,1.73-.41,3.5C407.39,107.43,408.24,111.14,409.42,114.7ZM394.91,98.41c.23,1.21-1.13,4.12,2.73,3.7,2.84-.31,5.4-.94,5.35-4.52-.05-3.37-2.56-3.86-5.18-4.07C394.41,93.24,394.64,95.53,394.91,98.41Z" transform="translate(-34.97 -16.96)" fill="#e8ebec"/><path d="M456,103c0-1.16-.38-2.5.07-3.45,1.4-2.9-3.94-8.54,3.49-8.92,11-.55,15.93,2.36,16.63,9.68,1.05,10.92-8.61,18.43-19,14.85-1.66-.58-1.28-1.64-1.29-2.71,0-3.15,0-6.3,0-9.45Zm4.25-.69h.08c0,1.83-.05,3.65,0,5.48.12,4,1.81,5.21,5.69,3.86s5.58-4.71,5.68-8.54c.1-4.09-1.71-7.46-5.83-8.9s-5.64-.4-5.63,4.12Z" transform="translate(-34.97 -16.96)" fill="#eef0f1"/><path d="M307.55,114.65c2.77-7.51,5.56-14.91,8.21-22.35.93-2.63,3-1.33,4.6-1.65,2-.4,3,.67,3.58,2.5,2,6.14,4.19,12.22,6.14,18.38.33,1,2.41,2.9-.34,3.45-1.87.37-4.53,1.13-4.71-2.46-.21-4.12-2.7-4.86-6.4-4.69-2.86.13-4.59.63-5.33,3.7C312.41,115.21,312.21,115.16,307.55,114.65Zm11.68-21.07c-1.17,3.22-2.06,5.79-3,8.32-.83,2.17-.11,2.83,2.15,2.93,3.29.16,5.13-.31,3.35-4.17C320.77,98.66,320.22,96.47,319.23,93.58Z" transform="translate(-34.97 -16.96)" fill="#eef0f1"/><path d="M489.69,114.7c2.81-7.55,5.66-14.81,8.21-22.18.92-2.68,2.85-1.66,4.48-1.87,1.83-.23,3.09.24,3.74,2.32,1.95,6.19,4.17,12.28,6.15,18.46.36,1.12,2.21,2.93-.35,3.55-1.74.41-4.35,1-4.54-2.15-.28-4.46-2.82-5.11-6.72-5-3.09.08-4.8,1-5.09,4C495.22,115.34,493.15,115.6,489.69,114.7Zm11.69-21.26c-1,3-1.77,5.2-2.48,7.38-.38,1.18-1.77,2.61-.31,3.54a5.86,5.86,0,0,0,5.3.15c2.19-1,.12-2.6-.12-3.83A60.28,60.28,0,0,0,501.38,93.44Z" transform="translate(-34.97 -16.96)" fill="#eef0f1"/><path d="M518.41,103a20.31,20.31,0,0,1,.05-4c.56-2.75-2.05-7.14,1.07-8,4.43-1.19,9.65-1.66,14,1.15,3.26,2.08,3.32,7.73.15,10.47-1.22,1.06-2.87,2.3-4.32,2.29-5.73-.06-7.33,2.79-6.43,7.93.3,1.73-.59,2.29-2.27,2.3-2,0-2.56-.78-2.47-2.7.16-3.15,0-6.32,0-9.48Zm6.87-9.5c-2.64-.4-2.69,1.9-2.25,4.1.36,1.81-1.81,5.19,2.4,5,2.86-.12,5.76-.81,5.86-4.54C531.38,94.58,528.89,93.79,525.28,93.49Z" transform="translate(-34.97 -16.96)" fill="#e8ebec"/><path d="M541.55,102.92a31.05,31.05,0,0,1,0-3.48c.35-2.86-1.59-7.46.79-8.26a17.72,17.72,0,0,1,13.57.61c3.84,1.95,4.36,7.27,1.19,10.59-1.29,1.35-3,2.62-4.69,2.59-5.76-.11-7.35,2.73-6.38,7.89.33,1.75-.61,2.3-2.26,2.29s-2.44-.49-2.39-2.28c.09-3.32,0-6.64,0-10Zm6.53-9.47c-3.22-.22-2.13,2.72-2.1,4.85,0,2-.9,4.77,2.83,4.36,3-.33,5.89-1.28,5.78-4.88C554.49,94.46,551.8,93.61,548.08,93.45Z" transform="translate(-34.97 -16.96)" fill="#eef0f1"/><path d="M128,104.78c-.86,3.37,1.88,7.49-2.11,10.21L101.13,91.06c3.5-.85,6,1.47,8.64,3C115.93,97.46,122,101.17,128,104.78Z" transform="translate(-34.97 -16.96)" fill="#41a0a2"/><path d="M448.27,103.26c0,3-.09,6,0,9,.06,1.64.22,2.9-2.09,2.94s-2.79-.78-2.74-2.93q.22-9.48,0-19c-.05-2,.5-2.66,2.45-2.68s2.51.7,2.38,2.68C448.12,96.59,448.27,99.93,448.27,103.26Z" transform="translate(-34.97 -16.96)" fill="#eef0f1"/><path d="M691,172.49c-.48,1.26.92,3-1.13,3.77-.18-3.5-4.13,2.24-3.68-1.36.3-2.35,1-5.85,3.53-6.34C691.83,168.15,690.33,171.17,691,172.49Z" transform="translate(-34.97 -16.96)" fill="#1f729b"/><path d="M675.39,167.34h5.35c-2.71,2.79-1.29,6.07-2.27,9.66C675.91,173.74,678.47,170,675.39,167.34Z" transform="translate(-34.97 -16.96)" fill="#2d869f"/><path d="M596,139l2,1.83h-5.62C593.63,139.63,594.65,139,596,139Z" transform="translate(-34.97 -16.96)" fill="#eef0f1"/><path d="M212,224.1l1.12-1.06C213.05,223.76,212.53,224,212,224.1Z" transform="translate(-34.97 -16.96)" fill="#bb2738"/><path d="M563.35,258.88c-5.63-.55-11.06-1.19-15.79-4.45-8.62-5.94-8.7-17.57.66-22,12-5.69,19.88-6.61,29.35,3.39,7.14,7.55,5.13,17.43-4.59,21.24C569.84,258.29,566.5,258.45,563.35,258.88Z" transform="translate(-34.97 -16.96)" fill="#143443"/><path d="M575.05,195.33c0,7.2-2.58,11-8,12.88-4.91,1.73-9.7.38-13.34-4-4.83-5.78-6.59-12.6-6-20a11.27,11.27,0,0,1,8.43-10.56c5.21-1.63,9.15.62,12.36,4.24C573.17,183.14,574.68,189.58,575.05,195.33Z" transform="translate(-34.97 -16.96)" fill="#143443"/><path d="M724.25,196.55a43.33,43.33,0,0,1,0-5.78c1.34-10.8,6.38-15.74,16.15-16,9.52-.27,15.58,4.67,17.23,15,1.24,7.74,1.41,15.61-2.37,22.95-3.44,6.68-8.41,9.2-16.51,8.37-6.94-.72-11.66-4.63-13.44-11.47A36,36,0,0,1,724.25,196.55Z" transform="translate(-34.97 -16.96)" fill="#143443"/><path d="M518.46,202.7c-.14,4.82-.53,9.59-3.55,13.73-6.21,8.55-18,9.35-25,1.25-8.27-9.55-10.5-21.05-8.61-33.21,1.1-7.07,6.11-11.27,13-12.91,6.32-1.49,11.47.83,15.57,5.56C516.2,184.43,517.86,193.37,518.46,202.7Z" transform="translate(-34.97 -16.96)" fill="#143443"/><path d="M413.65,192.14c-.25-6.36.76-12.3,5.87-16.74,8.27-7.17,19.48-5.3,25.53,4.59a41,41,0,0,1,5.74,29.59c-1.2,6.5-5,11.28-11.54,13s-12.49-.12-16.95-5.54C416.34,209.85,414.24,201.25,413.65,192.14Z" transform="translate(-34.97 -16.96)" fill="#143443"/><path d="M829.93,198.39c8.74-.33,9.42.54,7.42,9.36-2.4,10.54-12,16.19-22.43,13.07a8.87,8.87,0,0,1-6.72-8.3c-.48-5.18,1.41-9.09,6.17-11.38S824.62,198.61,829.93,198.39Z" transform="translate(-34.97 -16.96)" fill="#143443"/><path d="M592.09,103c0,5.26-3.06,9.14-7.16,9.09s-7.06-4-7.06-9.22S581,93.59,585,93.7,592.09,97.83,592.09,103Z" transform="translate(-34.97 -16.96)" fill="#143443"/><path d="M368,102.66a27.63,27.63,0,0,0,0-4.46c-.81-4.77,1.93-5,5.23-4,4,1.15,5.83,4,6,8.13s-1.23,7.56-5.27,9.21-5.8.31-5.86-3.9c0-1.66,0-3.31,0-5Z" transform="translate(-34.97 -16.96)" fill="#143443"/><path d="M432.75,103.1c-.07,5.21-3.31,9.13-7.41,9s-7.09-4.23-7-9.39,3.39-9.2,7.38-9S432.81,98,432.75,103.1Z" transform="translate(-34.97 -16.96)" fill="#143443"/><path d="M394.91,98.41c-.27-2.88-.5-5.17,2.9-4.89,2.62.21,5.13.7,5.18,4.07.05,3.58-2.51,4.21-5.35,4.52C393.78,102.53,395.14,99.62,394.91,98.41Z" transform="translate(-34.97 -16.96)" fill="#143443"/><path d="M460.21,102.31v-4c0-4.52,1.36-5.61,5.63-4.12s5.93,4.81,5.83,8.9c-.1,3.83-1.71,7.16-5.68,8.54s-5.57.13-5.69-3.86c-.06-1.83,0-3.65,0-5.48Z" transform="translate(-34.97 -16.96)" fill="#143443"/><path d="M319.23,93.58c1,2.89,1.54,5.08,2.47,7.08,1.78,3.86-.06,4.33-3.35,4.17-2.26-.1-3-.76-2.15-2.93C317.17,99.37,318.06,96.8,319.23,93.58Z" transform="translate(-34.97 -16.96)" fill="#143443"/><path d="M501.38,93.44a60.28,60.28,0,0,1,2.39,7.24c.24,1.23,2.31,2.86.12,3.83a5.86,5.86,0,0,1-5.3-.15c-1.46-.93-.07-2.36.31-3.54C499.61,98.64,500.36,96.47,501.38,93.44Z" transform="translate(-34.97 -16.96)" fill="#143443"/><path d="M525.28,93.49c3.61.3,6.1,1.09,6,4.57-.1,3.73-3,4.42-5.86,4.54-4.21.18-2-3.2-2.4-5C522.59,95.39,522.64,93.09,525.28,93.49Z" transform="translate(-34.97 -16.96)" fill="#143443"/><path d="M548.08,93.45c3.72.16,6.41,1,6.51,4.33.11,3.6-2.77,4.55-5.78,4.88-3.73.41-2.8-2.4-2.83-4.36C546,96.17,544.86,93.23,548.08,93.45Z" transform="translate(-34.97 -16.96)" fill="#143443"/></svg>