<svg id="lamp_Image" data-name="lamp Image" xmlns="http://www.w3.org/2000/svg" viewBox="0 0 91.32 702.03"><title>lamp</title><path d="M459.43,710.86c-11.32,0-22.65.23-34,.11-5.94-.06-10-4.18-10-10.23q-.12-58.71,0-117.43c0-6.38,4.29-10.13,11-10.28,7-.15,7-.15,7-7.2l0-508.71,14,.06q0,254.92,0,509.85a10.72,10.72,0,0,1,0,1.5c-.48,3.48,1,4.58,4.48,4.58,8.94,0,12.53,3.84,12.53,12.87q0,51,0,102C464.4,695.92,466,704.28,459.43,710.86Z" transform="translate(-402.26 -8.98)" style="fill:#4c7788"/><path d="M459.43,710.86c6.55-6.58,5-14.94,5-22.92q.06-51,0-102c0-9-3.59-12.89-12.53-12.87-3.5,0-5-1.1-4.48-4.58a10.72,10.72,0,0,0,0-1.5q0-254.92,0-509.85l15-.06q0,254.6-.09,509.2c0,5.22.81,7.26,6.56,6.87,6.5-.44,10.52,4,10.53,10.59q.08,58.22,0,116.43c0,6.62-4,10.61-10.48,10.78C465.76,711.08,462.6,710.91,459.43,710.86Z" transform="translate(-402.26 -8.98)" style="fill:#456a88"/><path d="M407.59,46.16c-5.33-1.13-6.08-5.13-4.77-9.22a102.87,102.87,0,0,1,11.3-23.22A10.06,10.06,0,0,1,423,9q20.21.12,40.42.17c5.31,6.59,8.65,14.31,12.47,21.76,2.52,4.93,3.85,9.83.54,14.93l-4.05.34Z" transform="translate(-402.26 -8.98)" style="fill:#4c7888"/><path d="M407.59,46.16l64.8,0c.34,3.75,0,7.38-2,10.7l-8,.2-15,.06-14-.06c-5.16,0-10.32-.08-15.48-.09C407.89,57,407.11,56.21,407.59,46.16Z" transform="translate(-402.26 -8.98)" style="fill:#fdf599"/><path d="M476.44,45.87c3.32-5.1,2-10-.54-14.93-3.82-7.45-7.16-15.17-12.47-21.76,2.82,0,5.64,0,8.46-.18a10.83,10.83,0,0,1,10.47,5.52c4,6.87,7.8,13.9,10.4,21.44,2.06,5.95.21,9-5.44,10.19Z" transform="translate(-402.26 -8.98)" style="fill:#456a88"/><path d="M476.44,45.87l10.87.29c0,1.66.18,3.33.08,5-.23,3.71-2.16,5.85-6,5.87-3.66,0-7.32-.06-11-.1,2-3.32,2.32-7,2-10.7C473.74,46.09,475.09,46,476.44,45.87Z" transform="translate(-402.26 -8.98)" style="fill:#e8dc99"/></svg>