<?xml version="1.0" encoding="utf-8"?>
<!-- Generator: Adobe Illustrator 23.0.6, SVG Export Plug-In . SVG Version: 6.00 Build 0)  -->
<svg version="1.1" id="skyline_xA0_Image_1_" xmlns="http://www.w3.org/2000/svg" xmlns:xlink="http://www.w3.org/1999/xlink"
	 x="0px" y="0px" viewBox="0 0 1920 1080" style="enable-background:new 0 0 1920 1080;" xml:space="preserve">
<style type="text/css">
	.st0{fill:#6FEDE4;}
	.st1{fill:#65D4E4;}
</style>
<g>
	<path class="st0" d="M623.18,647.23c0.05,6.49,0.08,12.98,0.19,19.47c0.02,1.36-0.6,3.26,1.76,3.41c2.75,0.17,2.41-2.01,2.15-3.47
		c-1.27-7.07,1.97-11.81,7.09-16.27c6.39-5.56,12.31-11.7,18.21-17.79c2.39-2.47,4.86-3.45,8.3-3.44
		c41.95,0.11,83.9-0.01,125.84,0.19c4.66,0.02,5.92-1.3,5.72-5.82c-0.31-7.08-0.88-6.24,6.4-6.29c6.33-0.04,12.66-0.17,18.97,0.06
		c3.35,0.12,4.68-0.7,4.61-4.36c-0.15-7.71,0.06-7.72,8-7.71c19.97,0.04,39.95,0.1,59.92,0.15c0,18.5,0.09,36.99-0.09,55.49
		c-0.04,3.98,0.83,5.88,5.19,5.43c3.3-0.34,6.66-0.09,9.99-0.1c12,0.01,24,0.03,35.99,0.03c2.39,0,5.22,0.78,5.04-3.38
		c-0.08-1.92,1.79-1.58,3.05-1.59c5-0.05,10-0.04,15-0.04c2.43,0,5.25-0.69,4.98,3.44c-0.11,1.61,1.45,1.52,2.6,1.54
		c2,0.03,4.01,0.13,6-0.01c3.34-0.23,6.08-0.03,5.33,4.56c-0.33,1.99,0.98,2.52,2.75,2.52c6.33-0.01,12.66,0.01,19,0.08
		c2.35,0.03,3.5-1.71,4.89-3.09c9.09-9.05,18.15-18.11,27.22-27.17c0.02,6.62,0.24,13.24,0,19.85c-0.13,3.67,1.39,4.36,4.66,4.42
		c3.53,0.06,4.56-1.17,4.48-4.6c-0.22-9.59-0.12-19.19-0.15-28.78c1.63-1.84,3.26-3.68,4.87-5.49c1.96,0.89,1.18,2.41,1.19,3.56
		c0.06,10.11,0.14,20.22-0.03,30.33c-0.06,3.36,0.36,5.1,4.46,5.03c3.76-0.07,4.79-1.14,4.69-4.82c-0.23-7.78,0.03-15.57,0.09-23.36
		c0.87,0.44,1.82,0.76,2.6,1.33c19.4,14.21,38.74,28.49,58.21,42.61c2.85,2.07,4.11,4.28,4.09,7.86c-0.13,25,0.02,50-0.16,74.99
		c-0.03,4.17,1.17,5.44,5.33,5.36c3.95-0.08,5.93-0.49,5.88-5.33c-0.25-25.5-0.13-51-0.09-76.49c0-1.76-0.64-3.7,0.84-5.25
		c3.35,1.06,3.15,3.78,3.15,6.51c-0.03,25.16-0.04,50.31,0.03,75.47c0,1.63-1.07,4.19,1.35,4.7c2.87,0.6,6.08,0.97,8.82-0.27
		c1.59-0.72,0.76-3.05,0.76-4.65c0.03-43.32,0.01-86.63,0.04-129.95c0.01-7.88-0.98-6.81,6.93-6.86c9-0.06,17.99-0.1,26.99,0.04
		c2.84,0.04,4.57-0.49,4.08-3.79c-0.41-2.77,1.1-3.34,3.53-3.3c6,0.11,12,0.11,17.99-0.03c2.51-0.06,3.88,0.65,3.48,3.35
		c-0.49,3.32,1.3,3.77,4.1,3.75c16.16-0.09,32.32-0.14,48.48,0.04c3.52,0.04,4.53-1.01,4.48-4.5c-0.11-8.58,0.06-8.58,8.65-8.58
		c17.16,0,34.32,0.04,51.48-0.01c7.76-0.02,6.77,0.96,6.77-7.02c0.03-56.31,0.02-112.62,0.02-168.94c0-8.03,0-8.04,8.28-8.03
		c9.66,0,19.33-0.16,28.99,0.09c3.65,0.09,4.9-0.83,4.83-4.68c-0.17-9.41,0.03-9.41,9.31-9.41c5.5,0,11-0.02,16.49-0.03
		c2.4,0,4.8,0,7.2,0c1.3,0.06,2.61,0.12,3.91,0.19c0,66.75-0.01,133.51-0.01,200.26c0,1,0.02,2,0.02,3
		c-0.01,1.57,0.67,2.34,2.33,2.59c3.92,0.58,4.73-1.2,4.72-4.8c-0.12-26.97,0.1-53.94-0.19-80.9c-0.07-6.34,2.87-9.78,7.95-12.33
		c0.06,31.13,0.1,62.27,0.21,93.4c0.01,1.89-1.07,4.44,2.63,4.7c3.65,0.25,4.41-1.17,4.4-4.55c-0.12-27.31-0.01-54.61-0.14-81.92
		c-0.02-3.43,1.01-5.86,3.36-8.35c20.92-22.12,41.71-44.38,62.56-66.57c1.25-1.33,2.64-2.52,3.96-3.77
		c5.48,4.14,9.45,9.76,14.07,14.71c16.07,17.21,31.61,34.91,47.6,52.2c3.19,3.44,4.62,6.82,4.61,11.5
		c-0.13,50.78-0.08,101.57-0.08,152.35c0,1,0.12,2.01-0.02,2.99c-0.55,3.99,0.79,5.87,5.14,5.42c3.3-0.34,6.65-0.09,9.98-0.1
		c9.99,0.01,19.99-0.08,29.97,0.09c3.04,0.05,4.32-0.88,3.95-3.96c-0.16-1.31-0.03-2.66-0.03-3.99c0-118.24,0-236.47,0.01-354.71
		c0-7.2-0.79-6.34,6.4-6.39c6.49-0.04,12.99-0.11,19.48,0.04c2.8,0.06,4.13-0.47,4.19-3.76c0.19-10.29,0.34-10.28,10.93-10.29
		c24.65-0.01,49.29,0.05,73.94-0.09c3.65-0.02,5.81,0.57,5.09,4.81c-0.55,3.28,1.63,3.3,4,3.3c12.65,0,25.31,0.08,37.96,0.13
		c0,130.99-0.01,261.99-0.01,392.98c0,0.5,0.06,1.01-0.01,1.5c-0.54,3.66,1.28,4.63,4.61,4.41c3.49-0.22,7-0.07,10.5-0.08
		c8.5,0.01,17.01-0.24,25.49,0.14c4.47,0.2,5.52-1.15,5.51-5.53c-0.15-60.5-0.1-121-0.1-181.5c0-5.33,0.19-10.68-0.07-16
		c-0.16-3.4,1.16-4.63,4.31-4.06c5.11,0.92,6.16-1.49,5.85-6.09c-0.38-5.81,0-11.66-0.13-17.49c-0.06-2.58,0.79-3.72,3.43-3.46
		c1.32,0.13,2.66,0.02,4,0.02c83.17,0,166.33-0.05,249.49,0.13c5.15,0.01,6.98-1.36,6.13-6.33c-0.6-3.52,0.53-5.07,4.51-4.89
		c7.82,0.36,15.66,0.19,23.49,0.24c0,201.28-0.01,402.57-0.01,603.85c-1273.5,0-2547,0-3820.5,0.09c-3.75,0-4.6-0.84-4.59-4.59
		c0.11-202.5,0.09-405,0.09-607.5c8.96,0,9.17-0.01,8.91-8.77c-0.12-4.06,0.88-5.53,5.17-5.33c8.3,0.39,16.62,0.2,24.93,0.25
		c0,3.5,0.22,7.02-0.07,10.49c-0.34,4,0.82,5.88,5.18,5.43c3.3-0.34,6.66-0.09,9.99-0.1c1.97,0.06,3.94,0.12,5.91,0.19
		c0.5,2-1.41,5.5,2.07,5.63c4.58,0.18,3.89,2.94,3.93,5.72c0.03,2.09-0.55,4.79,2.93,4.45c4.01-0.39,4.11,1.96,4.1,4.93
		c-0.08,14.97-0.04,29.93-0.04,44.9c0,16.46,0.09,32.93-0.07,49.39c-0.04,3.6,0.82,5.23,4.7,4.89c3.47-0.31,6.98-0.09,10.47-0.1
		c6.64,0.06,13.27,0.12,19.91,0.19c0,16-0.01,32-0.01,47.99c0,17,0,34,0,50.99c0,6.86,0,6.87,7.1,6.86c2.67,0,5.33-0.02,8-0.03
		c20.66,0.01,41.32-0.08,61.98,0.12c3.94,0.04,5.11-1.04,5.01-5c-0.19-7.98-1.31-7.01,7.12-7.09c5-0.04,10.03-0.38,14.99,0.1
		c5.1,0.5,5.94-1.53,5.9-6.15c-0.22-25.99-0.11-51.99-0.11-77.98c0-26.33,0.07-52.65-0.08-78.98c-0.02-3.77,0.76-5.39,4.9-5.09
		c5.31,0.38,10.68-0.17,15.98,0.18c4.15,0.28,5.3-1.03,5.29-5.23c-0.16-42.82-0.1-85.65-0.1-128.47c0-9.39,0-9.39,9.42-9.39
		c10.58,0,10.58,0,10.58-10.74c0-29.66,0.07-59.32-0.09-88.98c-0.02-3.99,0.78-5.43,5.13-5.39c26.32,0.26,52.65,0.21,78.97,0.26
		c0,15.33-0.01,30.66-0.01,45.99c0,17.33,0,34.66,0,51.99c0,6.86,0,6.87,7.1,6.86c2.67,0,5.33-0.02,8-0.03
		c8.3,0.06,16.61,0.12,24.91,0.19c0,42-0.01,83.99-0.01,125.99c0,4,0.25,8.02-0.07,11.99c-0.35,4.39,0.81,6.56,5.68,5.94
		c3.12-0.39,6.32-0.1,9.49-0.11c2.3,0.06,4.61,0.12,6.91,0.19c0,28.32-0.01,56.64-0.01,84.96c0,34.98-0.01,69.96,0.03,104.95
		c0,2.12-0.94,4.93,2.98,4.96c3.5,0.03,2.94-2.36,2.99-4.47c0.04-1.7,0-3.86,2.4-3.44c7.15,1.25,6.92-3.17,6.61-7.99
		c-0.19-2.99-0.04-5.99-0.05-8.99c8.11-0.12,15.76-2.74,23.17-5.4c7.13-2.55,13.83-1.01,20.66-0.27c9.26,1.01,18.51,1.73,27.83,1.81
		c3.6,0.03,4.46-1.21,4.45-4.61c-0.13-21.98-0.06-43.97-0.08-65.95c0-2.56-0.4-4.81,3.61-4.79c38.47,0.17,76.94,0.18,115.41,0.23
		c0,6.16,0.28,12.34-0.1,18.47c-0.3,4.81,0.8,7.39,6.17,6.4c4.03-0.75,5.08,1.15,5,5.02c-0.23,10.81,0.59,21.69-0.31,32.44
		c-0.64,7.59,3.03,12.53,7.06,17.76c1.3,1.69,2.57,2,3.75-0.2c1.49-2.78,3.05-5.52,4.58-8.27c2.27,2.86,4.57,5.69,6.79,8.58
		c1.36,1.77,2.31,1.97,3.61-0.2c2.75-4.62,4.8-9.16,4.57-14.9c-0.45-11.3-0.07-22.63-0.18-33.95c-0.03-2.67,0.32-4.95,2.75-6.46
		c2.35-1.46,2.32-3.75,2.32-6.15c-0.04-21.81,0.01-43.61-0.06-65.42c-0.01-2.76,0.29-5.16,2.41-7.26c3.04-3,1.48-6.97,1.55-10.49
		c0.2-9.49,0.07-9.46,9.37-9.51c7.54-0.04,6.65,0.87,6.69-6.6c0.05-10.39,0.02-10.39,10.42-10.39c9.65,0,19.31-0.01,28.96-0.02
		c1.87,0,3.94-0.2,3.63,2.65c-0.34,3.16,1.44,3.46,3.95,3.41c6.49-0.11,12.98-0.01,19.48-0.05c1.59-0.01,3.2,0.36,3.62-2.21
		c1.15-7.03,1.28-7.01,8.97-6.63c0,3.16,0.22,6.35-0.07,9.49c-0.36,4,0.82,5.88,5.17,5.43c3.3-0.34,6.66-0.09,9.99-0.1
		c0.97,0.06,1.94,0.12,2.91,0.19c0,11.65-0.01,23.3-0.01,34.95c0,11.98,0.08,23.96-0.05,35.94c-0.04,3.49,1.34,4.67,4.49,3.62
		c3.44-1.15,6.94-0.4,10.4-0.69c5.03,1.95,10.06-0.01,15.01-0.36c17.01-1.22,34-2.86,50.96-4.72c13.71-1.5,27.42-2.38,41.21-1.74
		c0,4.47,0.01,8.93-0.01,13.4c-0.01,1.76,0.12,3.7,2.47,3.36c6.02-0.87,5.57,2.96,5.59,6.94c0.02,4.76-2.04,10.89,0.79,13.94
		c3.11,3.35,9.38,0.79,14.25,1.17c10.67,0.01,21.33,0.05,32,0.01c2.16-0.01,4.91,0.88,5.12-2.85c0.06-1.03,1.14-1.09,1.96-1.1
		c4.5-0.04,9-0.05,13.5-0.01c0.62,0.01,1.75,0.29,1.78,0.54c0.72,7.19,6.26,4.15,9.79,4.29c9.23,0.37,9.33,0.12,9.7,9.71
		c0.1,2.54,0.8,3.4,3.43,3.51c9.63,0.4,9.63,0.5,9.63-9.27c0-35.33,0.05-70.67-0.07-106c-0.01-3.53,0.63-4.9,4.59-4.89
		c70.17,0.13,140.33,0.09,210.5,0.1c0.66,0,1.33,0.09,1.99,0.14c0,4.5-0.01,9-0.01,13.5c0,23,0,45.99,0,68.99
		c0,6.36,0.01,6.37,6.6,6.36c2.83,0,5.67-0.02,8.5-0.03c4.16,0.01,8.32-0.18,12.46,0.1c3.46,0.23,5.03-0.88,4.44-4.42
		c-0.62-3.74,0.92-4.76,4.65-4.73c18.95,0.18,37.9,0.18,56.84-0.03c3.91-0.04,5.16,1.3,4.52,4.85c-0.84,4.65,1.37,5.66,5.55,5.34
		c4.13-0.31,8.3,0.02,12.45,0.08c0,11.5,0.14,23-0.09,34.49c-0.08,3.99,0.83,5.88,5.19,5.43c3.3-0.34,6.66-0.09,9.99-0.1
		c7.66,0.01,15.33-0.19,22.98,0.12c3.95,0.16,5.02-1.04,5.01-4.99c-0.14-44.97,0-89.94-0.21-134.91c-0.02-4.99,1.13-6.34,6.25-6.32
		c52.3,0.21,104.6,0.13,156.89,0.13c1.66,0,3.33,0.1,4.99,0.15c0,12.16,0.14,24.33-0.09,36.49c-0.08,3.99,0.83,5.88,5.19,5.43
		c3.3-0.34,6.66-0.09,9.99-0.1c4.15,0,8.29,0.06,12.43-0.01c3.06-0.05,6.19-0.56,5.61,4.3c-0.23,1.91,1.63,1.69,2.91,1.73
		c2.32,0.08,4.64,0.12,6.96,0.17c-0.4,4.74-0.64,9.29,6.51,7.92c1.56-0.3,2.61,0.76,2.41,2.37c-0.52,4.19,0.85,6.29,5.41,5.62
		c1.85-0.27,2.46,0.92,2.68,2.71c0.91,7.24,0.97,7.24,8.12,7.23c2.32,0,4.64-0.02,6.95-0.03c33.3,0.01,66.6-0.03,99.89,0.11
		c3.76,0.02,5.7-0.76,5.03-4.88c-0.46-2.82,1.23-3.23,3.59-3.23c25.31,0.04,50.61,0.02,75.92-0.01c2.01,0,3.88,0.1,3.46,2.82
		c-0.68,4.39,2.03,4.26,5.11,4.26c26.64-0.01,53.27,0.07,79.91,0.12c0.65,3.69-3.3,2.18-4.55,3.65c0.88,2.18,4.26,0.12,4.25,2.72
		c-0.01,2.56-3.39,0.5-4.15,2.48c0.74,2,4.05-0.07,4.17,2.47c0.13,2.73-3.91,0.25-4.13,2.85c1.14,1.38,3.9-0.25,4.1,2.11
		c0.23,2.78-3.87,0.31-4.11,2.87c1.1,1.42,3.66-0.23,4.13,2.1c0.2,1-0.64,1.52-1.52,1.53c-4.57,0.04-3.12,3.45-3.08,5.78
		c0.06,3.19,2.75,2.2,4.53,2.26c3.48,0.12,6.97,0.01,10.46,0c4.83,0.01,9.66,0.03,14.48,0.03c8.54,0,12.41-3.81,12.42-12.18
		c0-3.33,0.69-6.85-0.16-9.94c-1.37-4.96,3.67-7.54,3.63-12c-0.01-1.04,3.5-2.04,4.42,0.76c0.48,1.45,0.75,2.4,2.48,2.37
		c1.52-0.03,2.6-0.34,2.66-2.14c0.06-1.94,1.53-1.83,2.88-1.85c1.57-0.03,2.94,0,3.15,2.18c0.25,2.59,2.41,1.71,3.91,1.74
		c2.29,0.05,2-1.76,2.01-3.21c0.03-4.33,0.14-8.66-0.03-12.98c-0.11-2.74,0.72-3.84,3.63-3.81c3.6,0.03,8.28,1.64,10.56-0.74
		c2.45-2.56,0.8-7.29,0.81-11.07c0.08-25.8,0.05-51.61,0.03-77.41c0-2.57-0.38-4.82,3.62-4.78c24.47,0.2,48.94,0.18,73.41,0.23
		c0,2.5,0.2,5.02-0.06,7.49c-0.42,4,0.8,5.88,5.16,5.42c3.3-0.34,6.66-0.09,9.99-0.1c0.97,0.06,1.94,0.12,2.91,0.19
		c0,73.79,0.03,147.59-0.11,221.38c-0.01,4.44,1.21,6.17,5.6,5.48c3.44-0.54,4.64,0.92,4.57,4.45c-0.19,10.82,0.14,21.66-0.17,32.48
		c-0.13,4.42,1.58,5.26,5.51,5.17c3.63-0.09,5.84-0.25,5.71-4.98c-0.34-12.32-0.12-24.65-0.13-36.98c3-0.66,4.13,0.36,4.08,3.58
		c-0.17,11.32,0.2,22.64-0.18,33.95c-0.17,4.93,2.58,4.33,5.63,4.34c3.06,0.01,5.65,0.56,5.61-4.34
		c-0.24-28.63,0.02-57.26-0.25-85.88c-0.05-5,1.45-6.35,6.14-5.88c3.96,0.39,8.01-0.22,11.97,0.17c4.41,0.43,5.19-1.43,5.11-5.39
		c-0.24-11.65,0.1-23.3-0.18-34.95c-0.11-4.4,0.89-5.94,5.66-5.87c20.64,0.29,41.28,0.12,61.92,0.13c2.32,0,4.88,0.48,4.59-3.29
		c-0.12-1.61,1.24-1.72,2.46-1.72c3-0.01,5.99-0.05,8.99,0.03c0.76,0.02,2.15,0.47,2.15,0.75c0.14,6.79,5.3,3.47,8.39,4.19
		c0.95,0.22,1.99,0,2.99,0.04c2.75,0.12,5.53,0.44,5.1-3.81c-0.1-1.02,1-1.1,1.87-1.05c0,5.5,0.22,11.01-0.09,16.49
		c-0.22,4,0.83,5.88,5.19,5.43c3.3-0.34,6.66-0.09,9.99-0.1c5.99,0.06,11.98,0.13,17.97,0.19c6.54,3.57,12.99,7.32,19.67,10.62
		c3.09,1.53,4.51,3.28,4.34,6.85c-0.28,5.97-0.14,11.97-0.04,17.95c0.03,1.61-0.92,4.22,1.99,4.19c2.88-0.03,1.71-2.64,1.96-4.25
		c0.51-3.32-1.26-7.02,1.86-9.9C617.24,653.02,620.19,650.1,623.18,647.23z M-1212.1,704.21c8.26-0.09,7.13,0.96,7.5-7.43
		c0.19-4.22-0.84-6.24-5.42-5.6c-2.27,0.32-4.62,0.05-6.94,0.08c-1.21,0.01-2.14,0.29-2.63,1.69
		C-1222,699.86-1219.15,704.21-1212.1,704.21z"/>
	<path class="st1" d="M2134.34,1081.21c0-201.28,0.01-402.57,0.01-603.85c5-0.05,9.99-0.1,14.99-0.15
		c0,199.83-0.01,399.67,0.09,599.5c0,3.75-0.82,4.98-4.6,4.58C2141.37,1080.92,2137.84,1081.21,2134.34,1081.21z"/>
	<path class="st1" d="M1802.44,722.18c-3.5,0.01-7.01-0.14-10.5,0.08c-3.34,0.21-5.15-0.76-4.61-4.41c0.07-0.49,0.01-1,0.01-1.5
		c0-130.99,0.01-261.99,0.01-392.98c4.79-0.06,10.83-2.04,14,0.73c3.05,2.67,0.94,8.8,0.94,13.4
		c0.06,126.06,0.05,252.13,0.05,378.19C1802.34,717.85,1802.41,720.01,1802.44,722.18z"/>
	<path class="st1" d="M1591.44,698.18c-3.33,0.01-6.69-0.24-9.98,0.1c-4.35,0.45-5.69-1.42-5.14-5.42c0.14-0.98,0.02-2,0.02-2.99
		c0-50.78-0.05-101.57,0.08-152.35c0.01-4.68-1.42-8.05-4.61-11.5c-15.99-17.29-31.53-34.99-47.6-52.2
		c-4.62-4.95-8.59-10.57-14.07-14.71c2.67-2.63,3.37-5.79,3.26-9.5c-0.23-8.15-0.03-16.31-0.09-24.47
		c-0.02-2.77-0.36-5.02,3.88-5.08c4.5-0.07,4.19,2.35,4.16,5.31c-0.06,8.32,0.05,16.65-0.07,24.97c-0.04,2.67,0.69,4.75,2.51,6.74
		c21.45,23.45,42.8,46.98,64.29,70.39c2.3,2.51,3.31,4.97,3.3,8.39C1591.35,589.96,1591.41,644.07,1591.44,698.18z"/>
	<path class="st1" d="M409.33,713.37c0,12.33-0.21,24.66,0.13,36.98c0.13,4.73-2.08,4.89-5.71,4.98c-3.93,0.09-5.64-0.75-5.51-5.17
		c0.31-10.82-0.02-21.65,0.17-32.48c0.06-3.53-1.13-4.99-4.57-4.45c-4.39,0.69-5.6-1.04-5.6-5.48
		c0.14-73.79,0.11-147.59,0.11-221.38c4.79-0.06,10.84-2.05,14.01,0.74c3.04,2.67,0.93,8.81,0.93,13.41
		c0.07,68.81,0.1,137.62-0.06,206.43C403.22,711.74,404.14,714.19,409.33,713.37z"/>
	<path class="st1" d="M-1265.7,688.34c0.01,3-0.14,6.01,0.05,8.99c0.3,4.82,0.54,9.24-6.61,7.99c-2.4-0.42-2.36,1.73-2.4,3.44
		c-0.05,2.11,0.51,4.5-2.99,4.47c-3.92-0.03-2.98-2.84-2.98-4.96c-0.04-34.98-0.03-69.96-0.03-104.95c0-28.32,0.01-56.64,0.01-84.96
		c4.79-0.06,10.83-2.04,14,0.73c3.05,2.66,0.93,8.8,0.94,13.39C-1265.64,584.44-1265.68,636.39-1265.7,688.34z"/>
	<path class="st1" d="M1433.16,526.18c-5.08,2.54-8.01,5.99-7.95,12.33c0.29,26.96,0.06,53.93,0.19,80.9c0.02,3.6-0.8,5.38-4.72,4.8
		c-1.66-0.25-2.33-1.02-2.33-2.59c0-1-0.02-2-0.02-3c0-66.75,0.01-133.51,0.01-200.26c4.78-0.07,10.81-2.03,13.99,0.71
		c3.07,2.65,0.94,8.78,0.95,13.36C1433.33,463.69,1433.22,494.94,1433.16,526.18z"/>
	<path class="st1" d="M-1287.56,518.18c-3.17,0.01-6.37-0.29-9.49,0.11c-4.88,0.62-6.03-1.56-5.68-5.94
		c0.32-3.97,0.07-7.99,0.07-11.99c0-42,0.01-83.99,0.01-125.99c4.79-0.07,10.81-2.03,13.99,0.72c3.07,2.65,0.93,8.79,0.95,13.37
		C-1287.59,431.7-1287.59,474.94-1287.56,518.18z"/>
	<path class="st1" d="M-1602.56,591.18c-3.49,0.01-7-0.21-10.47,0.1c-3.88,0.34-4.74-1.29-4.7-4.89
		c0.16-16.46,0.07-32.93,0.07-49.39c0-14.97-0.04-29.93,0.04-44.9c0.02-2.97-0.09-5.32-4.1-4.93c-3.48,0.34-2.9-2.36-2.93-4.45
		c-0.04-2.78,0.65-5.54-3.93-5.72c-3.48-0.14-1.57-3.63-2.07-5.63c3.49-0.05,6.98-0.04,10.46-0.17c2.71-0.11,5.11-0.08,4.58,3.76
		c-0.19,1.35,0.48,2.39,1.95,2.2c4.01-0.53,4.31,1.85,4,4.83c-0.35,3.34-0.03,6.04,4.52,5.28c2-0.33,2.55,0.98,2.48,2.75
		c-0.05,1.33-0.01,2.66-0.01,3.99C-1602.63,526.39-1602.59,558.78-1602.56,591.18z"/>
	<path class="st1" d="M1138.21,684.27c-1.48,1.55-0.84,3.49-0.84,5.25c-0.04,25.5-0.16,51,0.09,76.49c0.05,4.85-1.93,5.26-5.88,5.33
		c-4.16,0.08-5.36-1.19-5.33-5.36c0.18-25,0.03-50,0.16-74.99c0.02-3.57-1.24-5.79-4.09-7.86c-19.46-14.12-38.81-28.41-58.21-42.61
		c-0.78-0.57-1.73-0.89-2.6-1.33c0-3.48,0-6.95,0-10.35c0.72-0.5,1.32-0.43,1.9,0.01C1088.35,647.32,1113.28,665.79,1138.21,684.27z
		"/>
	<path class="st1" d="M-1567.56,697.18c-2.67,0.01-5.33,0.03-8,0.03c-7.1,0-7.1,0-7.1-6.86c0-17,0-34,0-50.99
		c0-16,0.01-32,0.01-47.99c4.78-0.07,10.8-2.03,13.99,0.71c3.07,2.64,0.93,8.78,0.95,13.36
		C-1567.58,636.02-1567.59,666.6-1567.56,697.18z"/>
	<path class="st1" d="M-1327.56,374.18c-2.67,0.01-5.33,0.03-8,0.03c-7.1,0-7.1,0-7.1-6.86c0-17.33,0-34.66,0-51.99
		c0-15.33,0.01-30.66,0.01-45.99c4.78-0.07,10.8-2.03,13.99,0.71c3.08,2.65,0.93,8.78,0.95,13.36
		C-1327.58,313.68-1327.59,343.93-1327.56,374.18z"/>
	<path class="st1" d="M-443.56,619.18c-2.83,0.01-5.67,0.03-8.5,0.03c-6.59,0-6.6,0-6.6-6.36c0-23,0-45.99,0-68.99
		c0-4.5,0.01-9,0.01-13.5c4.78-0.08,10.8-2.02,13.98,0.71c3.08,2.64,0.93,8.77,0.95,13.35
		C-443.57,569.34-443.59,594.26-443.56,619.18z"/>
	<path class="st1" d="M-1044.5,680.98c-1.53,2.76-3.09,5.5-4.58,8.27c-1.18,2.2-2.45,1.88-3.75,0.2
		c-4.03-5.23-7.69-10.17-7.06-17.76c0.9-10.74,0.08-21.62,0.31-32.44c0.08-3.86-0.97-5.76-5-5.02c-5.37,0.99-6.47-1.59-6.17-6.4
		c0.38-6.13,0.1-12.31,0.1-18.47c4.79-0.07,10.82-2.04,14,0.73c3.06,2.66,0.63,8.79,0.98,13.39c0.09,1.16,0.01,2.33,0.01,3.49
		c0,7.03,0,7.25,7.04,7.15c3.54-0.05,4.03,1.41,4.01,4.42C-1044.68,652.69-1044.55,666.83-1044.5,680.98z"/>
	<path class="st1" d="M-892.82,604.19c-3.46,0.29-6.96-0.46-10.4,0.69c-3.15,1.05-4.53-0.14-4.49-3.62
		c0.13-11.98,0.05-23.96,0.05-35.94c0-11.65,0.01-23.3,0.01-34.95c4.78-0.08,10.79-2.02,13.98,0.71c3.09,2.64,0.94,8.77,0.95,13.34
		C-892.64,564.34-892.77,584.26-892.82,604.19z"/>
	<path class="st1" d="M905.44,666.18c-3.33,0.01-6.69-0.24-9.99,0.1c-4.37,0.46-5.23-1.45-5.19-5.43
		c0.19-18.49,0.09-36.99,0.09-55.49c4.78-0.09,10.78-2.01,13.97,0.7c3.1,2.63,0.91,8.75,0.96,13.33
		C905.46,634.98,905.41,650.58,905.44,666.18z"/>
	<path class="st1" d="M-116.56,556.18c-3.33,0.01-6.69-0.24-9.99,0.1c-4.36,0.45-5.27-1.44-5.19-5.43
		c0.23-12.16,0.09-24.33,0.09-36.49c4.77-0.1,10.76-2,13.96,0.68c3.11,2.61,0.87,8.73,0.98,13.3
		C-116.5,537.62-116.59,546.9-116.56,556.18z"/>
	<path class="st1" d="M-327.56,660.18c-3.33,0.01-6.69-0.24-9.99,0.1c-4.36,0.45-5.28-1.44-5.19-5.43
		c0.24-11.49,0.09-22.99,0.09-34.49c4.77-0.1,10.76-2,13.96,0.68c3.12,2.61,0.86,8.73,0.98,13.3
		C-327.5,642.95-327.59,651.57-327.56,660.18z"/>
	<path class="st1" d="M-762.56,636.18c-4.87-0.38-11.14,2.18-14.25-1.17c-2.84-3.06-0.77-9.18-0.79-13.94
		c-0.02-3.98,0.43-7.81-5.59-6.94c-2.34,0.34-2.47-1.6-2.47-3.36c0.02-4.47,0.01-8.93,0.01-13.4c4.63,0.01,10.35-1.65,13.59,0.48
		c3.62,2.37,1.04,8.51,1.32,12.98c0.16,2.54,0.86,3.81,3.44,3.37c4.32-0.75,4.83,1.58,4.71,5.12
		C-762.8,624.92-762.59,630.55-762.56,636.18z"/>
	<path class="st1" d="M1414.44,418.18c-2.4,0-4.8,0-7.2,0c0.03-23.48,0.07-46.96,0.1-70.43c0-2.27-0.61-4.57,3.24-4.65
		c3.88-0.09,3.79,1.94,3.78,4.65c-0.05,21.48-0.03,42.96-0.02,64.44C1414.35,414.18,1414.41,416.18,1414.44,418.18z"/>
	<path class="st1" d="M226.44,618.18c-3.49,0.01-6.98,0.12-10.46,0c-1.78-0.06-4.47,0.92-4.53-2.26c-0.04-2.33-1.49-5.74,3.08-5.78
		c0.88-0.01,1.72-0.53,1.52-1.53c-0.47-2.33-3.03-0.68-4.13-2.1c0.24-2.56,4.35-0.09,4.11-2.87c-0.2-2.36-2.96-0.74-4.1-2.11
		c0.22-2.59,4.26-0.12,4.13-2.85c-0.12-2.55-3.43-0.48-4.17-2.47c0.76-1.98,4.14,0.08,4.15-2.48c0.01-2.6-3.37-0.53-4.25-2.72
		c1.24-1.47,5.19,0.04,4.55-3.65c3.82-0.05,7.65-0.16,11.47-0.11c1.18,0.01,3.07-0.69,3.28,1.2c0.28,2.52-2.02,1.41-3.22,1.84
		c-0.43,0.15-0.82,0.38-1.24,0.59c0.45,2.77,4.92-0.26,4.47,3.13c-0.32,2.43-3.45,0.17-4.46,2.12c0.66,2.36,4.41-0.27,4.49,2.46
		c0.08,3.05-3.59,0.51-4.5,2.55c0.75,2.31,4.47-0.29,4.51,2.51c0.05,2.99-3.66,0.38-4.5,2.59c0.75,1.6,2.34,0.65,3.45,1.1
		c1.51,0.62,1.6,2.4,0.46,2.46C223.78,610.13,227.06,615.05,226.44,618.18z"/>
	<path class="st1" d="M623.18,647.23c-2.99,2.87-5.94,5.79-8.99,8.6c-3.12,2.87-1.35,6.58-1.86,9.9c-0.25,1.61,0.92,4.21-1.96,4.25
		c-2.9,0.03-1.96-2.58-1.99-4.19c-0.1-5.98-0.25-11.98,0.04-17.95c0.17-3.56-1.25-5.32-4.34-6.85c-6.67-3.3-13.12-7.05-19.67-10.62
		c13.92-2.91,24.29,5.52,35.6,11.06C622.64,642.71,623.94,644.3,623.18,647.23z"/>
	<path class="st1" d="M-56.56,588.18c-2.32,0.01-4.64,0.03-6.95,0.03c-7.15,0-7.21,0.01-8.12-7.23c-0.23-1.79-0.83-2.99-2.68-2.71
		c-4.56,0.68-5.93-1.42-5.41-5.62c0.2-1.61-0.85-2.67-2.41-2.37c-7.15,1.37-6.91-3.18-6.51-7.92c2.81-0.05,5.62,0,8.42-0.17
		c4.08-0.25,7.79-0.31,6.64,5.65c-0.4,2.05,1.14,2.57,2.8,2.35c4.32-0.58,7.12,0.33,6.18,5.59c-0.28,1.57,0.58,2.71,2.26,2.38
		c5.84-1.16,6.09,2.36,5.71,6.56C-56.74,585.86-56.59,587.02-56.56,588.18z"/>
	<path class="st1" d="M566.44,630.18c-3.33,0.01-6.69-0.24-9.99,0.1c-4.36,0.45-5.41-1.43-5.19-5.43c0.3-5.48,0.08-10.99,0.09-16.49
		c4.76-0.12,10.72-1.98,13.94,0.65c3.15,2.58,0.7,8.69,1.03,13.24C566.5,624.89,566.41,627.54,566.44,630.18z"/>
	<path class="st1" d="M1046.25,633.94c0.03,9.59-0.07,19.19,0.15,28.78c0.08,3.43-0.95,4.66-4.48,4.6c-3.28-0.06-4.8-0.75-4.66-4.42
		c0.24-6.61,0.03-13.23,0-19.85C1039.95,639.7,1042.98,636.7,1046.25,633.94z"/>
	<path class="st1" d="M-1636.56,471.18c-3.33,0.01-6.69-0.24-9.99,0.1c-4.36,0.45-5.51-1.43-5.18-5.43
		c0.29-3.47,0.07-6.99,0.07-10.49c4.76-0.13,10.7-1.96,13.92,0.64c3.18,2.56,0.63,8.67,1.07,13.2
		C-1636.6,469.86-1636.59,470.52-1636.56,471.18z"/>
	<path class="st1" d="M-910.56,530.18c-3.33,0.01-6.69-0.24-9.99,0.1c-4.36,0.45-5.54-1.42-5.17-5.43c0.29-3.14,0.06-6.33,0.07-9.49
		c4.87,0.08,11.33-2.26,14.13,0.97C-909.1,519.13-910.72,525.43-910.56,530.18z"/>
	<path class="st1" d="M385.44,486.18c-3.33,0.01-6.69-0.24-9.99,0.1c-4.36,0.45-5.59-1.42-5.16-5.42c0.26-2.47,0.05-4.99,0.06-7.49
		c0.33-0.04,0.66-0.12,0.98-0.11c4.42,0.1,9.93-1.35,12.96,0.76C387.32,476.12,384.83,482,385.44,486.18z"/>
	<path class="st1" d="M-1212.1,704.21c-7.05,0-9.91-4.35-7.49-11.27c0.49-1.4,1.42-1.68,2.63-1.69c2.31-0.02,4.67,0.24,6.94-0.08
		c4.58-0.64,5.6,1.38,5.42,5.6C-1204.97,705.18-1203.84,704.12-1212.1,704.21z"/>
</g>
</svg>
