<svg id="skyline_Image" data-name="skyline Image" xmlns="http://www.w3.org/2000/svg" viewBox="0 0 3840.16 812.74"><title>skylineneight</title><path d="M623.18,647.23c.05,6.49.08,13,.19,19.47,0,1.36-.6,3.26,1.76,3.41,2.75.17,2.41-2,2.15-3.47-1.27-7.07,2-11.81,7.09-16.27,6.39-5.56,12.31-11.7,18.21-17.79a10.5,10.5,0,0,1,8.3-3.44c42,.11,83.9,0,125.84.19,4.66,0,5.92-1.3,5.72-5.82-.31-7.08-.88-6.24,6.4-6.29,6.33,0,12.66-.17,19,.06,3.35.12,4.68-.7,4.61-4.36-.15-7.71.06-7.72,8-7.71l59.92.15c0,18.5.09,37-.09,55.49,0,4,.83,5.88,5.19,5.43,3.3-.34,6.66-.09,10-.1l36,0c2.39,0,5.22.78,5-3.38-.08-1.92,1.79-1.58,3-1.59,5,0,10,0,15,0,2.43,0,5.25-.69,5,3.44-.11,1.61,1.45,1.52,2.6,1.54,2,0,4,.13,6,0,3.34-.23,6.08,0,5.33,4.56-.33,2,1,2.52,2.75,2.52q9.5,0,19,.08c2.35,0,3.5-1.71,4.89-3.09q13.63-13.57,27.22-27.17c0,6.62.24,13.24,0,19.85-.13,3.67,1.39,4.36,4.66,4.42,3.53.06,4.56-1.17,4.48-4.6-.22-9.59-.12-19.19-.15-28.78l4.87-5.49c2,.89,1.18,2.41,1.19,3.56.06,10.11.14,20.22,0,30.33-.06,3.36.36,5.1,4.46,5,3.76-.07,4.79-1.14,4.69-4.82-.23-7.78,0-15.57.09-23.36a18.17,18.17,0,0,1,2.6,1.33c19.4,14.21,38.74,28.49,58.21,42.61a8.68,8.68,0,0,1,4.09,7.86c-.13,25,0,50-.16,75,0,4.17,1.17,5.44,5.33,5.36,4-.08,5.93-.49,5.88-5.33-.25-25.5-.13-51-.09-76.49,0-1.76-.64-3.7.84-5.25,3.35,1.06,3.15,3.78,3.15,6.51q0,37.74,0,75.47c0,1.63-1.07,4.19,1.35,4.7,2.87.6,6.08,1,8.82-.27,1.59-.72.76-3.05.76-4.65q0-65,0-129.95c0-7.88-1-6.81,6.93-6.86,9-.06,18-.1,27,0,2.84,0,4.57-.49,4.08-3.79-.41-2.77,1.1-3.34,3.53-3.3q9,.16,18,0c2.51-.06,3.88.65,3.48,3.35-.49,3.32,1.3,3.77,4.1,3.75,16.16-.09,32.32-.14,48.48,0,3.52,0,4.53-1,4.48-4.5-.11-8.58.06-8.58,8.65-8.58,17.16,0,34.32,0,51.48,0,7.76,0,6.77,1,6.77-7q0-84.47,0-168.94c0-8,0-8,8.28-8,9.66,0,19.33-.16,29,.09,3.65.09,4.9-.83,4.83-4.68-.17-9.41,0-9.41,9.31-9.41,5.5,0,11,0,16.49,0h7.2l3.91.19q0,100.13,0,200.26c0,1,0,2,0,3,0,1.57.67,2.34,2.33,2.59,3.92.58,4.73-1.2,4.72-4.8-.12-27,.1-53.94-.19-80.9-.07-6.34,2.87-9.78,8-12.33q.09,46.69.21,93.4c0,1.89-1.07,4.44,2.63,4.7s4.41-1.17,4.4-4.55c-.12-27.31,0-54.61-.14-81.92a11.07,11.07,0,0,1,3.36-8.35q31.38-33.18,62.56-66.57c1.25-1.33,2.64-2.52,4-3.77,5.48,4.14,9.45,9.76,14.07,14.71,16.07,17.21,31.61,34.91,47.6,52.2a15.55,15.55,0,0,1,4.61,11.5q-.2,76.17-.08,152.35a21.29,21.29,0,0,1,0,3c-.55,4,.79,5.87,5.14,5.42,3.3-.34,6.65-.09,10-.1,10,0,20-.08,30,.09,3,.05,4.32-.88,4-4a33.17,33.17,0,0,1,0-4q0-177.36,0-354.71c0-7.2-.79-6.34,6.4-6.39,6.49,0,13-.11,19.48,0,2.8.06,4.13-.47,4.19-3.76.19-10.29.34-10.28,10.93-10.29,24.65,0,49.29.05,73.94-.09,3.65,0,5.81.57,5.09,4.81-.55,3.28,1.63,3.3,4,3.3,12.65,0,25.31.08,38,.13q0,196.49,0,393a10.72,10.72,0,0,1,0,1.5c-.54,3.66,1.28,4.63,4.61,4.41,3.49-.22,7-.07,10.5-.08,8.5,0,17-.24,25.49.14,4.47.2,5.52-1.15,5.51-5.53q-.23-90.75-.1-181.5c0-5.33.19-10.68-.07-16-.16-3.4,1.16-4.63,4.31-4.06,5.11.92,6.16-1.49,5.85-6.09-.38-5.81,0-11.66-.13-17.49-.06-2.58.79-3.72,3.43-3.46,1.32.13,2.66,0,4,0q124.76,0,249.49.13c5.15,0,7-1.36,6.13-6.33-.6-3.52.53-5.07,4.51-4.89,7.82.36,15.66.19,23.49.24q0,301.92,0,603.85-1910.25,0-3820.5.09c-3.75,0-4.6-.84-4.59-4.59q.17-303.75.09-607.5c9,0,9.17,0,8.91-8.77-.12-4.06.88-5.53,5.17-5.33,8.3.39,16.62.2,24.93.25,0,3.5.22,7-.07,10.49-.34,4,.82,5.88,5.18,5.43,3.3-.34,6.66-.09,10-.1l5.91.19c.5,2-1.41,5.5,2.07,5.63,4.58.18,3.89,2.94,3.93,5.72,0,2.09-.55,4.79,2.93,4.45,4-.39,4.11,2,4.1,4.93-.08,15,0,29.93,0,44.9,0,16.46.09,32.93-.07,49.39,0,3.6.82,5.23,4.7,4.89,3.47-.31,7-.09,10.47-.1l19.91.19q0,24,0,48v51c0,6.86,0,6.87,7.1,6.86,2.67,0,5.33,0,8,0,20.66,0,41.32-.08,62,.12,3.94,0,5.11-1,5-5-.19-8-1.31-7,7.12-7.09,5,0,10-.38,15,.1s5.94-1.53,5.9-6.15c-.22-26-.11-52-.11-78,0-26.33.07-52.65-.08-79,0-3.77.76-5.39,4.9-5.09,5.31.38,10.68-.17,16,.18,4.15.28,5.3-1,5.29-5.23-.16-42.82-.1-85.65-.1-128.47,0-9.39,0-9.39,9.42-9.39,10.58,0,10.58,0,10.58-10.74,0-29.66.07-59.32-.09-89,0-4,.78-5.43,5.13-5.39,26.32.26,52.65.21,79,.26q0,23,0,46v52c0,6.86,0,6.87,7.1,6.86,2.67,0,5.33,0,8,0l24.91.19q0,63,0,126c0,4,.25,8-.07,12-.35,4.39.81,6.56,5.68,5.94a79,79,0,0,1,9.49-.11l6.91.19q0,42.48,0,85,0,52.47,0,104.95c0,2.12-.94,4.93,3,5,3.5,0,2.94-2.36,3-4.47,0-1.7,0-3.86,2.4-3.44,7.15,1.25,6.92-3.17,6.61-8-.19-3,0-6,0-9,8.11-.12,15.76-2.74,23.17-5.4,7.13-2.55,13.83-1,20.66-.27a278.37,278.37,0,0,0,27.83,1.81c3.6,0,4.46-1.21,4.45-4.61-.13-22-.06-44-.08-66,0-2.56-.4-4.81,3.61-4.79,38.47.17,76.94.18,115.41.23,0,6.16.28,12.34-.1,18.47-.3,4.81.8,7.39,6.17,6.4,4-.75,5.08,1.15,5,5-.23,10.81.59,21.69-.31,32.44-.64,7.59,3,12.53,7.06,17.76,1.3,1.69,2.57,2,3.75-.2,1.49-2.78,3-5.52,4.58-8.27,2.27,2.86,4.57,5.69,6.79,8.58,1.36,1.77,2.31,2,3.61-.2,2.75-4.62,4.8-9.16,4.57-14.9-.45-11.3-.07-22.63-.18-34,0-2.67.32-4.95,2.75-6.46s2.32-3.75,2.32-6.15c0-21.81,0-43.61-.06-65.42,0-2.76.29-5.16,2.41-7.26,3-3,1.48-7,1.55-10.49.2-9.49.07-9.46,9.37-9.51,7.54,0,6.65.87,6.69-6.6,0-10.39,0-10.39,10.42-10.39l29,0c1.87,0,3.94-.2,3.63,2.65-.34,3.16,1.44,3.46,3.95,3.41,6.49-.11,13,0,19.48,0,1.59,0,3.2.36,3.62-2.21,1.15-7,1.28-7,9-6.63,0,3.16.22,6.35-.07,9.49-.36,4,.82,5.88,5.17,5.43,3.3-.34,6.66-.09,10-.1l2.91.19q0,17.48,0,35c0,12,.08,24-.05,35.94,0,3.49,1.34,4.67,4.49,3.62,3.44-1.15,6.94-.4,10.4-.69,5,1.95,10.06,0,15-.36,17-1.22,34-2.86,51-4.72a265.22,265.22,0,0,1,41.21-1.74c0,4.47,0,8.93,0,13.4,0,1.76.12,3.7,2.47,3.36,6-.87,5.57,3,5.59,6.94,0,4.76-2,10.89.79,13.94,3.11,3.35,9.38.79,14.25,1.17,10.67,0,21.33,0,32,0,2.16,0,4.91.88,5.12-2.85.06-1,1.14-1.09,2-1.1q6.75-.06,13.5,0c.62,0,1.75.29,1.78.54.72,7.19,6.26,4.15,9.79,4.29,9.23.37,9.33.12,9.7,9.71.1,2.54.8,3.4,3.43,3.51,9.63.4,9.63.5,9.63-9.27,0-35.33,0-70.67-.07-106,0-3.53.63-4.9,4.59-4.89q105.26.2,210.5.1c.66,0,1.33.09,2,.14q0,6.75,0,13.5v69c0,6.36,0,6.37,6.6,6.36l8.5,0c4.16,0,8.32-.18,12.46.1,3.46.23,5-.88,4.44-4.42-.62-3.74.92-4.76,4.65-4.73q28.43.27,56.84,0c3.91,0,5.16,1.3,4.52,4.85-.84,4.65,1.37,5.66,5.55,5.34s8.3,0,12.45.08c0,11.5.14,23-.09,34.49-.08,4,.83,5.88,5.19,5.43,3.3-.34,6.66-.09,10-.1,7.66,0,15.33-.19,23,.12,3.95.16,5-1,5-5-.14-45,0-89.94-.21-134.91,0-5,1.13-6.34,6.25-6.32,52.3.21,104.6.13,156.89.13,1.66,0,3.33.1,5,.15,0,12.16.14,24.33-.09,36.49-.08,4,.83,5.88,5.19,5.43,3.3-.34,6.66-.09,10-.1,4.15,0,8.29.06,12.43,0,3.06-.05,6.19-.56,5.61,4.3-.23,1.91,1.63,1.69,2.91,1.73,2.32.08,4.64.12,7,.17-.4,4.74-.64,9.29,6.51,7.92a2,2,0,0,1,2.41,2.37c-.52,4.19.85,6.29,5.41,5.62,1.85-.27,2.46.92,2.68,2.71.91,7.24,1,7.24,8.12,7.23,2.32,0,4.64,0,7,0,33.3,0,66.6,0,99.89.11,3.76,0,5.7-.76,5-4.88-.46-2.82,1.23-3.23,3.59-3.23q38,.06,75.92,0c2,0,3.88.1,3.46,2.82-.68,4.39,2,4.26,5.11,4.26q40,0,79.91.12c.65,3.69-3.3,2.18-4.55,3.65.88,2.18,4.26.12,4.25,2.72s-3.39.5-4.15,2.48c.74,2,4.05-.07,4.17,2.47.13,2.73-3.91.25-4.13,2.85,1.14,1.38,3.9-.25,4.1,2.11.23,2.78-3.87.31-4.11,2.87,1.1,1.42,3.66-.23,4.13,2.1.2,1-.64,1.52-1.52,1.53-4.57,0-3.12,3.45-3.08,5.78.06,3.19,2.75,2.2,4.53,2.26,3.48.12,7,0,10.46,0l14.48,0c8.54,0,12.41-3.81,12.42-12.18,0-3.33.69-6.85-.16-9.94-1.37-5,3.67-7.54,3.63-12,0-1,3.5-2,4.42.76.48,1.45.75,2.4,2.48,2.37,1.52,0,2.6-.34,2.66-2.14s1.53-1.83,2.88-1.85c1.57,0,2.94,0,3.15,2.18.25,2.59,2.41,1.71,3.91,1.74,2.29,0,2-1.76,2-3.21,0-4.33.14-8.66,0-13-.11-2.74.72-3.84,3.63-3.81,3.6,0,8.28,1.64,10.56-.74,2.45-2.56.8-7.29.81-11.07q.12-38.7,0-77.41c0-2.57-.38-4.82,3.62-4.78,24.47.2,48.94.18,73.41.23a71.91,71.91,0,0,1-.06,7.49c-.42,4,.8,5.88,5.16,5.42,3.3-.34,6.66-.09,10-.1l2.91.19q0,110.69-.11,221.38c0,4.44,1.21,6.17,5.6,5.48,3.44-.54,4.64.92,4.57,4.45-.19,10.82.14,21.66-.17,32.48-.13,4.42,1.58,5.26,5.51,5.17,3.63-.09,5.84-.25,5.71-5-.34-12.32-.12-24.65-.13-37,3-.66,4.13.36,4.08,3.58-.17,11.32.2,22.64-.18,34-.17,4.93,2.58,4.33,5.63,4.34s5.65.56,5.61-4.34c-.24-28.63,0-57.26-.25-85.88-.05-5,1.45-6.35,6.14-5.88,4,.39,8-.22,12,.17,4.41.43,5.19-1.43,5.11-5.39-.24-11.65.1-23.3-.18-35-.11-4.4.89-5.94,5.66-5.87,20.64.29,41.28.12,61.92.13,2.32,0,4.88.48,4.59-3.29-.12-1.61,1.24-1.72,2.46-1.72,3,0,6,0,9,0,.76,0,2.15.47,2.15.75.14,6.79,5.3,3.47,8.39,4.19a16.53,16.53,0,0,0,3,0c2.75.12,5.53.44,5.1-3.81-.1-1,1-1.1,1.87-1,0,5.5.22,11-.09,16.49-.22,4,.83,5.88,5.19,5.43,3.3-.34,6.66-.09,10-.1l18,.19c6.54,3.57,13,7.32,19.67,10.62,3.09,1.53,4.51,3.28,4.34,6.85-.28,6-.14,12,0,18,0,1.61-.92,4.22,2,4.19s1.71-2.64,2-4.25c.51-3.32-1.26-7,1.86-9.9S620.19,650.1,623.18,647.23Zm-1835.28,57c8.26-.09,7.13,1,7.5-7.43.19-4.22-.84-6.24-5.42-5.6a55.31,55.31,0,0,1-6.94.08,2.38,2.38,0,0,0-2.63,1.69C-1222,699.86-1219.15,704.21-1212.1,704.21Z" transform="translate(1690.73 -268.63)" style="fill:#00091e"/><path d="M2134.34,1081.21q0-301.92,0-603.85l15-.15q0,299.74.09,599.5c0,3.75-.82,5-4.6,4.58A99.13,99.13,0,0,0,2134.34,1081.21Z" transform="translate(1690.73 -268.63)" style="fill:#00091e"/><path d="M1802.44,722.18c-3.5,0-7-.14-10.5.08s-5.15-.76-4.61-4.41a10.72,10.72,0,0,0,0-1.5q0-196.48,0-393c4.79-.06,10.83-2,14,.73s.94,8.8.94,13.4q.09,189.09,0,378.19C1802.34,717.85,1802.41,720,1802.44,722.18Z" transform="translate(1690.73 -268.63)" style="fill:#00091e"/><path d="M1591.44,698.18c-3.33,0-6.69-.24-10,.1-4.35.45-5.69-1.42-5.14-5.42a21.3,21.3,0,0,0,0-3q0-76.17.08-152.35a15.57,15.57,0,0,0-4.61-11.5c-16-17.29-31.53-35-47.6-52.2-4.62-4.95-8.59-10.57-14.07-14.71,2.67-2.63,3.37-5.79,3.26-9.5-.23-8.15,0-16.31-.09-24.47,0-2.77-.36-5,3.88-5.08,4.5-.07,4.19,2.35,4.16,5.31-.06,8.32.05,16.65-.07,25a9.08,9.08,0,0,0,2.51,6.74c21.45,23.45,42.8,47,64.29,70.39a11.38,11.38,0,0,1,3.3,8.39Q1591.33,617,1591.44,698.18Z" transform="translate(1690.73 -268.63)" style="fill:#00091e"/><path d="M409.33,713.37c0,12.33-.21,24.66.13,37,.13,4.73-2.08,4.89-5.71,5-3.93.09-5.64-.75-5.51-5.17.31-10.82,0-21.65.17-32.48.06-3.53-1.13-5-4.57-4.45-4.39.69-5.6-1-5.6-5.48q.21-110.68.11-221.38c4.79-.06,10.84-2.05,14,.74s.93,8.81.93,13.41q.1,103.22-.06,206.43C403.22,711.74,404.14,714.19,409.33,713.37Z" transform="translate(1690.73 -268.63)" style="fill:#00091e"/><path d="M-1265.7,688.34c0,3-.14,6,0,9,.3,4.82.54,9.24-6.61,8-2.4-.42-2.36,1.73-2.4,3.44,0,2.11.51,4.5-3,4.47-3.92,0-3-2.84-3-5q-.06-52.47,0-104.95,0-42.48,0-85c4.79-.06,10.83-2,14,.73s.93,8.8.94,13.39Q-1265.6,610.42-1265.7,688.34Z" transform="translate(1690.73 -268.63)" style="fill:#00091e"/><path d="M1433.16,526.18c-5.08,2.54-8,6-8,12.33.29,27,.06,53.93.19,80.9,0,3.6-.8,5.38-4.72,4.8-1.66-.25-2.33-1-2.33-2.59,0-1,0-2,0-3q0-100.12,0-200.26c4.78-.07,10.81-2,14,.71s.94,8.78,1,13.36C1433.33,463.69,1433.22,494.94,1433.16,526.18Z" transform="translate(1690.73 -268.63)" style="fill:#00091e"/><path d="M-1287.56,518.18a77,77,0,0,0-9.49.11c-4.88.62-6-1.56-5.68-5.94.32-4,.07-8,.07-12q0-63,0-126c4.79-.07,10.81-2,14,.72s.93,8.79,1,13.37Q-1287.53,453.32-1287.56,518.18Z" transform="translate(1690.73 -268.63)" style="fill:#00091e"/><path d="M-1602.56,591.18c-3.49,0-7-.21-10.47.1-3.88.34-4.74-1.29-4.7-4.89.16-16.46.07-32.93.07-49.39,0-15,0-29.93,0-44.9,0-3-.09-5.32-4.1-4.93-3.48.34-2.9-2.36-2.93-4.45,0-2.78.65-5.54-3.93-5.72-3.48-.14-1.57-3.63-2.07-5.63,3.49-.05,7,0,10.46-.17,2.71-.11,5.11-.08,4.58,3.76-.19,1.35.48,2.39,1.95,2.2,4-.53,4.31,1.85,4,4.83-.35,3.34,0,6,4.52,5.28,2-.33,2.55,1,2.48,2.75,0,1.33,0,2.66,0,4Q-1602.61,542.58-1602.56,591.18Z" transform="translate(1690.73 -268.63)" style="fill:#00091e"/><path d="M1138.21,684.27c-1.48,1.55-.84,3.49-.84,5.25,0,25.5-.16,51,.09,76.49,0,4.85-1.93,5.26-5.88,5.33-4.16.08-5.36-1.19-5.33-5.36.18-25,0-50,.16-75a8.69,8.69,0,0,0-4.09-7.86c-19.46-14.12-38.81-28.41-58.21-42.61a18.17,18.17,0,0,0-2.6-1.33V628.84a1.45,1.45,0,0,1,1.9,0Z" transform="translate(1690.73 -268.63)" style="fill:#00091e"/><path d="M-1567.56,697.18c-2.67,0-5.33,0-8,0-7.1,0-7.1,0-7.1-6.86v-51q0-24,0-48c4.78-.07,10.8-2,14,.71s.93,8.78,1,13.36C-1567.58,636-1567.59,666.6-1567.56,697.18Z" transform="translate(1690.73 -268.63)" style="fill:#00091e"/><path d="M-1327.56,374.18c-2.67,0-5.33,0-8,0-7.1,0-7.1,0-7.1-6.86v-52q0-23,0-46c4.78-.07,10.8-2,14,.71s.93,8.78,1,13.36C-1327.58,313.68-1327.59,343.93-1327.56,374.18Z" transform="translate(1690.73 -268.63)" style="fill:#00091e"/><path d="M-443.56,619.18l-8.5,0c-6.59,0-6.6,0-6.6-6.36v-69q0-6.75,0-13.5c4.78-.08,10.8-2,14,.71s.93,8.77.95,13.35C-443.57,569.34-443.59,594.26-443.56,619.18Z" transform="translate(1690.73 -268.63)" style="fill:#00091e"/><path d="M-1044.5,681c-1.53,2.76-3.09,5.5-4.58,8.27-1.18,2.2-2.45,1.88-3.75.2-4-5.23-7.69-10.17-7.06-17.76.9-10.74.08-21.62.31-32.44.08-3.86-1-5.76-5-5-5.37,1-6.47-1.59-6.17-6.4.38-6.13.1-12.31.1-18.47,4.79-.07,10.82-2,14,.73s.63,8.79,1,13.39c.09,1.16,0,2.33,0,3.49,0,7,0,7.25,7,7.15,3.54,0,4,1.41,4,4.42C-1044.68,652.69-1044.55,666.83-1044.5,681Z" transform="translate(1690.73 -268.63)" style="fill:#00091e"/><path d="M-892.82,604.19c-3.46.29-7-.46-10.4.69-3.15,1-4.53-.14-4.49-3.62.13-12,.05-24,.05-35.94q0-17.48,0-35c4.78-.08,10.79-2,14,.71s.94,8.77.95,13.34C-892.64,564.34-892.77,584.26-892.82,604.19Z" transform="translate(1690.73 -268.63)" style="fill:#00091e"/><path d="M905.44,666.18c-3.33,0-6.69-.24-10,.1-4.37.46-5.23-1.45-5.19-5.43.19-18.49.09-37,.09-55.49,4.78-.09,10.78-2,14,.7s.91,8.75,1,13.33C905.46,635,905.41,650.58,905.44,666.18Z" transform="translate(1690.73 -268.63)" style="fill:#00091e"/><path d="M-116.56,556.18c-3.33,0-6.69-.24-10,.1-4.36.45-5.27-1.44-5.19-5.43.23-12.16.09-24.33.09-36.49,4.77-.1,10.76-2,14,.68s.87,8.73,1,13.3C-116.5,537.62-116.59,546.9-116.56,556.18Z" transform="translate(1690.73 -268.63)" style="fill:#00091e"/><path d="M-327.56,660.18c-3.33,0-6.69-.24-10,.1-4.36.45-5.28-1.44-5.19-5.43.24-11.49.09-23,.09-34.49,4.77-.1,10.76-2,14,.68s.86,8.73,1,13.3C-327.5,643-327.59,651.57-327.56,660.18Z" transform="translate(1690.73 -268.63)" style="fill:#00091e"/><path d="M-762.56,636.18c-4.87-.38-11.14,2.18-14.25-1.17-2.84-3.06-.77-9.18-.79-13.94,0-4,.43-7.81-5.59-6.94-2.34.34-2.47-1.6-2.47-3.36,0-4.47,0-8.93,0-13.4,4.63,0,10.35-1.65,13.59.48,3.62,2.37,1,8.51,1.32,13,.16,2.54.86,3.81,3.44,3.37,4.32-.75,4.83,1.58,4.71,5.12C-762.8,624.92-762.59,630.55-762.56,636.18Z" transform="translate(1690.73 -268.63)" style="fill:#00091e"/><path d="M1414.44,418.18h-7.2q0-35.22.1-70.43c0-2.27-.61-4.57,3.24-4.65s3.79,1.94,3.78,4.65q-.08,32.22,0,64.44C1414.35,414.18,1414.41,416.18,1414.44,418.18Z" transform="translate(1690.73 -268.63)" style="fill:#00091e"/><path d="M226.44,618.18c-3.49,0-7,.12-10.46,0-1.78-.06-4.47.92-4.53-2.26,0-2.33-1.49-5.74,3.08-5.78.88,0,1.72-.53,1.52-1.53-.47-2.33-3-.68-4.13-2.1.24-2.56,4.35-.09,4.11-2.87-.2-2.36-3-.74-4.1-2.11.22-2.59,4.26-.12,4.13-2.85-.12-2.55-3.43-.48-4.17-2.47.76-2,4.14.08,4.15-2.48s-3.37-.53-4.25-2.72c1.24-1.47,5.19,0,4.55-3.65,3.82-.05,7.65-.16,11.47-.11,1.18,0,3.07-.69,3.28,1.2.28,2.52-2,1.41-3.22,1.84a10.76,10.76,0,0,0-1.24.59c.45,2.77,4.92-.26,4.47,3.13-.32,2.43-3.45.17-4.46,2.12.66,2.36,4.41-.27,4.49,2.46.08,3-3.59.51-4.5,2.55.75,2.31,4.47-.29,4.51,2.51.05,3-3.66.38-4.5,2.59.75,1.6,2.34.65,3.45,1.1,1.51.62,1.6,2.4.46,2.46C223.78,610.13,227.06,615.05,226.44,618.18Z" transform="translate(1690.73 -268.63)" style="fill:#00091e"/><path d="M623.18,647.23c-3,2.87-5.94,5.79-9,8.6s-1.35,6.58-1.86,9.9c-.25,1.61.92,4.21-2,4.25s-2-2.58-2-4.19c-.1-6-.25-12,0-17.95.17-3.56-1.25-5.32-4.34-6.85-6.67-3.3-13.12-7-19.67-10.62,13.92-2.91,24.29,5.52,35.6,11.06C622.64,642.71,623.94,644.3,623.18,647.23Z" transform="translate(1690.73 -268.63)" style="fill:#00091e"/><path d="M-56.56,588.18l-6.95,0c-7.15,0-7.21,0-8.12-7.23-.23-1.79-.83-3-2.68-2.71-4.56.68-5.93-1.42-5.41-5.62a2,2,0,0,0-2.41-2.37c-7.15,1.37-6.91-3.18-6.51-7.92,2.81-.05,5.62,0,8.42-.17,4.08-.25,7.79-.31,6.64,5.65-.4,2,1.14,2.57,2.8,2.35,4.32-.58,7.12.33,6.18,5.59-.28,1.57.58,2.71,2.26,2.38,5.84-1.16,6.09,2.36,5.71,6.56A28.63,28.63,0,0,0-56.56,588.18Z" transform="translate(1690.73 -268.63)" style="fill:#00091e"/><path d="M566.44,630.18c-3.33,0-6.69-.24-10,.1-4.36.45-5.41-1.43-5.19-5.43.3-5.48.08-11,.09-16.49,4.76-.12,10.72-2,13.94.65s.7,8.69,1,13.24C566.5,624.89,566.41,627.54,566.44,630.18Z" transform="translate(1690.73 -268.63)" style="fill:#00091e"/><path d="M1046.25,633.94c0,9.59-.07,19.19.15,28.78.08,3.43-1,4.66-4.48,4.6-3.28-.06-4.8-.75-4.66-4.42.24-6.61,0-13.23,0-19.85A66.16,66.16,0,0,1,1046.25,633.94Z" transform="translate(1690.73 -268.63)" style="fill:#00091e"/><path d="M-1636.56,471.18c-3.33,0-6.69-.24-10,.1-4.36.45-5.51-1.43-5.18-5.43.29-3.47.07-7,.07-10.49,4.76-.13,10.7-2,13.92.64s.63,8.67,1.07,13.2C-1636.6,469.86-1636.59,470.52-1636.56,471.18Z" transform="translate(1690.73 -268.63)" style="fill:#00091e"/><path d="M-910.56,530.18c-3.33,0-6.69-.24-10,.1-4.36.45-5.54-1.42-5.17-5.43.29-3.14.06-6.33.07-9.49,4.87.08,11.33-2.26,14.13,1C-909.1,519.13-910.72,525.43-910.56,530.18Z" transform="translate(1690.73 -268.63)" style="fill:#00091e"/><path d="M385.44,486.18c-3.33,0-6.69-.24-10,.1-4.36.45-5.59-1.42-5.16-5.42a74.78,74.78,0,0,0,.06-7.49,6.68,6.68,0,0,1,1-.11c4.42.1,9.93-1.35,13,.76S384.83,482,385.44,486.18Z" transform="translate(1690.73 -268.63)" style="fill:#00091e"/><path d="M-1212.1,704.21c-7.05,0-9.91-4.35-7.49-11.27a2.38,2.38,0,0,1,2.63-1.69,53.5,53.5,0,0,0,6.94-.08c4.58-.64,5.6,1.38,5.42,5.6C-1205,705.18-1203.84,704.12-1212.1,704.21Z" transform="translate(1690.73 -268.63)" style="fill:#00091e"/></svg>