<svg id="wheel_Image" data-name="wheel Image" xmlns="http://www.w3.org/2000/svg" viewBox="0 0 98.83 98.88"><defs><style>.cls-1{fill:#374b56;}.cls-2{fill:#80a2b6;}.cls-3{fill:#637f8e;}.cls-4{fill:#637f8f;}.cls-5{fill:#638090;}</style></defs><title>wheel</title><path class="cls-1" d="M9.58,58.38a49.42,49.42,0,1,1,49,49.56A49.34,49.34,0,0,1,9.58,58.38ZM50.47,18.82c-8.83,1.75-16.38,5.64-21.86,13-5,4.23-7.5,9.84-8.84,16.08-1.53,7.4-2.68,14.79.62,22A24,24,0,0,0,29.61,86.2a32.33,32.33,0,0,0,20.78,12,31.86,31.86,0,0,0,17.35-.11c8.49-1.76,16-5.15,21-12.66C94.18,81.72,96.23,76,97.85,70a34.55,34.55,0,0,0,.55-21.12c-1-6.09-3.85-11.26-7.71-15.95a37.72,37.72,0,0,0-23-14A31.14,31.14,0,0,0,50.47,18.82Z" transform="translate(-9.58 -9.06)"/><path class="cls-2" d="M19.77,47.91c1.34-6.24,3.84-11.85,8.84-16.08,5.63,4.77,12.72,7.06,18.83,11,2.35,1.53,3.21.5,3.18-2.07-.11-7.32-.11-14.65-.15-22a31.14,31.14,0,0,1,17.2.12c0,7.1.06,14.2-.1,21.29-.09,3.83,1.32,4.29,4.4,2.62,6.21-3.36,12.48-6.63,18.72-9.93,3.86,4.69,6.73,9.86,7.71,15.95-6.83,1.43-12.12,6-18.19,9-2.83,1.39-.5,2.56.9,3.31,5.56,3,11.16,5.87,16.74,8.8-1.62,6-3.67,11.73-9.11,15.47C83.13,81,76.54,78.24,70.31,74.87c-2.65-1.44-2.7.51-2.69,2.3q0,10.47.12,21a31.86,31.86,0,0,1-17.35.11c.07-6.61.17-13.21.18-19.82,0-1.52.09-4.32-2.31-3C42,79,35,81.13,29.61,86.2A24,24,0,0,1,20.39,70c6.88-1.73,12.38-6.22,18.61-9.25,1.47-.71,2-2,.13-2.89C32.55,54.75,26.81,50.06,19.77,47.91ZM58.26,70C65,70,69.64,65.51,69.64,59c0-6.73-4.84-11.83-11.35-11.93-5.73-.09-11.69,6.06-11.64,12C46.71,65.27,51.77,70.05,58.26,70Z" transform="translate(-9.58 -9.06)"/><path class="cls-3" d="M90.69,32.92c-6.24,3.3-12.51,6.57-18.72,9.93-3.08,1.67-4.49,1.21-4.4-2.62.16-7.09.08-14.19.1-21.29A37.72,37.72,0,0,1,90.69,32.92Z" transform="translate(-9.58 -9.06)"/><path class="cls-4" d="M50.47,18.82c0,7.33,0,14.66.15,22,0,2.57-.83,3.6-3.18,2.07-6.11-4-13.2-6.27-18.83-11C34.09,24.46,41.64,20.57,50.47,18.82Z" transform="translate(-9.58 -9.06)"/><path class="cls-3" d="M67.74,98.12q-.06-10.47-.12-21c0-1.79,0-3.74,2.69-2.3C76.54,78.24,83.13,81,88.74,85.46,83.72,93,76.23,96.36,67.74,98.12Z" transform="translate(-9.58 -9.06)"/><path class="cls-4" d="M29.61,86.2C35,81.13,42,79,48.26,75.45c2.4-1.36,2.31,1.44,2.31,3,0,6.61-.11,13.21-.18,19.82A32.33,32.33,0,0,1,29.61,86.2Z" transform="translate(-9.58 -9.06)"/><path class="cls-3" d="M19.77,47.91c7,2.15,12.78,6.84,19.36,9.92C41,58.71,40.47,60,39,60.72c-6.23,3-11.73,7.52-18.61,9.25C17.09,62.7,18.24,55.31,19.77,47.91Z" transform="translate(-9.58 -9.06)"/><path class="cls-4" d="M97.85,70c-5.58-2.93-11.18-5.84-16.74-8.8-1.4-.75-3.73-1.92-.9-3.31,6.07-3,11.36-7.58,18.19-9A34.55,34.55,0,0,1,97.85,70Z" transform="translate(-9.58 -9.06)"/><path class="cls-5" d="M58.26,70c-6.49,0-11.55-4.76-11.61-11,0-6,5.91-12.1,11.64-12,6.51.1,11.36,5.2,11.35,11.93C69.64,65.51,65,70,58.26,70Z" transform="translate(-9.58 -9.06)"/></svg>